<svg width="73" height="67" viewBox="0 0 73 67" fill="none" xmlns="http://www.w3.org/2000/svg">
<path d="M14.4675 51.8396C14.5414 51.7195 14.8882 51.2697 15.0251 51.0701C14.9473 51.3489 14.2005 52.2741 14.4675 51.8396ZM23.2773 27.2757C23.1783 27.4539 23.0789 27.6328 22.9792 27.8122C23.3304 27.353 23.7707 26.714 24.1054 26.2912C24.16 26.2224 24.0834 26.4478 24.2076 26.2816C24.3317 26.1156 24.2308 26.0915 24.3986 25.8424C24.5894 25.5598 25.5494 24.3514 25.8711 23.9072C26.9466 22.4197 28.0006 20.9004 29.1138 19.4289C29.2221 19.2857 29.3301 19.1441 29.4377 19.0043C29.3123 19.1865 29.2136 19.333 29.1385 19.4472C28.8172 19.9386 28.958 19.7995 29.2042 19.4956C29.4351 19.2094 29.749 18.7941 29.8834 18.5908C29.9519 18.4876 29.8003 18.3872 31.0864 16.7373C31.8967 15.7024 31.3752 16.8199 32.6058 14.9722C31.4319 16.2355 32.4541 14.8937 33.2613 13.8218C33.3902 13.6487 34.5578 12.1632 35.0572 11.5075C35.2272 11.2832 35.4186 10.8843 35.6487 10.5854C35.8034 10.3845 35.9678 10.257 36.2035 9.95262C37.304 8.53431 38.406 7.15398 39.6034 5.75906C39.0956 6.73564 40.2241 5.18071 40.2908 5.12691C40.62 4.83949 39.3603 6.35046 39.8942 5.78405C40.5932 4.9463 41.3078 4.11567 42.0625 3.28746C41.4161 3.94304 42.7423 2.25708 43.0614 2.05128C43.0618 2.05102 43.0622 2.05076 43.0625 2.0505C43.0617 2.05043 43.061 2.05033 43.0603 2.0502C43.0539 2.04889 43.0502 2.0453 43.0492 2.03954C43.0525 1.97729 43.2232 1.77299 43.6946 1.32741C43.8313 1.20248 43.9563 1.08158 44.26 0.847882C44.3315 0.793982 44.4287 0.722414 44.5569 0.639055C44.6764 0.562806 44.8499 0.451464 45.1402 0.321304C45.2731 0.263324 45.4758 0.177661 45.7826 0.102364C46.094 0.0362761 46.4211 -0.0473599 47.1106 0.032C47.7482 0.106017 48.5331 0.449165 49.0567 0.95731C49.3197 1.20282 49.5312 1.48537 49.6695 1.71828C49.7852 1.91159 49.8707 2.0954 49.9361 2.26401C50.1954 3.00148 50.1588 3.20505 50.1829 3.49569C50.1891 3.74716 50.1783 3.86923 50.1651 4.02185C50.1404 4.274 50.1026 4.46737 50.0744 4.59895C50.0092 4.90124 49.944 5.11959 49.8846 5.31161C49.3899 6.82926 48.849 8.01435 48.7555 8.39712C48.7144 8.54941 49.1747 7.60677 48.2906 9.88096C48.1974 10.1178 48.1706 10.0056 48.1291 10.1349C48.1038 10.2137 48.122 10.7497 47.8295 11.2106C47.7239 11.3735 48.0322 10.1787 47.1295 12.7286C47.2888 12.4685 47.268 12.6208 47.1409 13.0089C46.8191 13.9991 45.8052 16.4901 45.5373 17.084C45.6242 16.9348 45.717 16.7698 45.806 16.6147C45.4202 17.4143 45.4336 17.5756 45.3579 17.7627C45.0584 18.5023 44.6026 19.4929 44.3418 20.19C44.0387 21 44.1568 21.0514 43.7483 21.9744C43.86 21.763 43.9725 21.5496 44.0859 21.3338C43.8283 21.9849 43.5713 22.634 43.3155 23.2795C43.7356 21.7134 43.1833 23.6004 43.1398 23.7234C43.0712 23.9188 43.1131 23.6159 42.9966 23.9426C42.9855 23.9753 43.0633 23.9561 42.8808 24.4505C42.4967 25.4896 42.48 25.3032 42.3147 25.7346C42.2996 25.7749 42.4093 25.6551 42.1323 26.4125C41.2534 28.8155 42.0932 26.388 42.1223 26.2895C42.1586 26.1654 41.6122 26.8954 42.4762 24.8976C42.186 25.5729 42.0589 25.5982 42.0266 25.6744C41.9992 25.7394 41.5565 26.9304 41.536 26.9939C41.3473 27.5865 41.6137 27.1037 41.5827 27.2214C41.5571 27.3177 40.9177 28.7044 40.9988 29.1192C40.5422 29.7259 40.9739 28.6602 41.3845 27.5072C41.4089 27.3256 40.8868 28.5639 40.8617 28.6293C40.2377 30.2473 40.7429 29.4122 40.7083 29.805C40.6901 30.0107 40.3272 30.6274 40.7046 30.0746C40.1531 31.5483 40.4139 30.6263 40.3652 30.7162C40.292 30.8524 40.1351 31.3804 40.1048 31.4427C40.0604 31.5338 40.1374 31.1871 39.9766 31.552C39.9502 31.6128 39.804 32.2447 40.1428 31.488C39.7322 32.5157 39.8378 32.4581 39.5565 32.7516C39.5588 33.5689 39.194 33.204 39.0705 33.4778C38.7423 34.2063 39.0428 34.0741 39.0383 34.1175C39.0016 34.4143 38.1325 36.4438 37.9665 36.9672C37.8879 36.7053 38.5947 35.3344 38.6883 35.0018C38.9994 33.8953 38.0294 36.4759 38.1321 35.625C38.0609 35.9701 37.9893 36.3162 37.9177 36.6624C37.5613 37.2097 37.8329 36.3418 37.26 37.9639C37.2679 38.2683 37.6805 36.8231 37.6582 37.1366C37.6457 37.3191 37.2966 38.2561 37.3165 38.2837C37.3412 38.315 37.628 37.4585 37.6261 37.61C37.6199 37.9421 36.3371 40.967 37.1794 38.6106C36.9306 39.2611 36.5886 39.5184 36.4385 40.1039C36.3404 40.4859 37.4233 38.5457 36.183 41.6041C36.0586 41.6297 36.6266 40.3652 36.6332 40.3256C36.6405 40.2738 36.3245 40.4228 36.2977 40.4592C36.2056 40.5885 35.1149 43.7795 34.7464 44.401C34.9767 44.1901 33.8589 46.7798 33.7863 47.0886C33.768 47.1692 33.9572 46.9144 33.9343 46.9993C33.7924 47.5192 33.1173 48.8555 32.8702 49.4916C32.5937 50.2028 32.6948 50.1451 32.68 50.1836C32.5558 50.4975 32.6051 50.228 32.532 50.42C32.4771 50.5642 32.2306 51.2032 32.0183 51.7588C31.8129 52.2961 31.6427 52.7467 31.6247 52.8082C31.6164 52.8392 31.8213 52.5361 31.668 52.9861C31.6406 53.067 31.5692 52.9703 31.1213 54.2823C30.5845 55.8589 31.6426 53.2492 31.4978 53.932C30.9885 54.8617 31.1311 54.904 31.0228 55.1595C30.9854 55.2476 30.6031 55.9105 30.3348 56.6599C30.5122 56.1209 30.6978 55.5642 30.8817 55.0149C30.6581 55.5483 30.3066 56.5726 30.1176 57.0158C30.0284 57.2238 29.9982 57.0058 29.828 57.4794C29.7941 57.5767 29.8847 58.0557 30.2261 56.8C30.3447 56.7373 30.0807 57.2849 30.0039 57.5699C29.9919 57.6142 30.0784 57.8137 29.8639 58.1326C29.8154 58.2069 29.7156 57.1642 29.2013 59.5668C29.1854 59.6434 29.326 59.4064 29.3116 59.4819C29.3009 59.5344 29.0809 60.1046 29.0693 60.1654C29.0558 60.231 29.2044 59.9794 29.1899 60.0586C29.1125 60.4745 28.72 60.906 29.0074 60.1036C28.8844 60.3752 28.7708 60.625 28.6584 60.8821C28.9195 60.6522 28.5677 61.3239 28.4971 61.6193C28.4206 61.9048 28.4191 62.0851 28.4467 61.8576C28.4558 61.7425 28.4658 61.4665 28.3615 61.0844C28.2607 60.7002 28.0467 60.3497 27.959 60.2258C27.842 60.0519 27.6851 59.8827 27.6019 59.7992C27.5154 59.7123 27.4977 59.691 27.5385 59.7151C27.6206 59.7585 27.8991 60.0108 28.0287 60.1751C28.1586 60.3191 28.3356 60.6296 28.3816 60.718C28.4312 60.8227 28.4343 60.715 28.2111 60.3129C28.1666 60.2368 28.1262 60.1754 28.0936 60.1277C27.9024 59.8295 27.4549 59.4252 27.0882 59.2448C26.7181 59.0518 26.4465 58.9955 26.276 58.9668C25.9182 58.9157 25.8057 58.9532 25.6684 58.978C25.4161 59.0191 25.0236 59.1986 25.2152 59.0856C25.2239 59.0778 25.1307 59.0771 25.1396 59.0473C25.143 59.0053 25.0341 59.1038 26.0416 58.5877C25.7614 58.7525 25.4872 58.9032 25.2904 58.9982C25.4417 59.1336 26.213 58.5008 26.2855 58.4484C27.0672 57.9529 26.5509 58.3484 27.7116 57.5103C27.8188 57.4322 28.0725 57.3196 28.2992 57.1459C29.2128 56.4454 26.9938 57.9314 26.9074 57.8871C26.8481 57.9015 29.2602 56.3429 29.3551 56.2866C29.7453 56.1135 28.2822 57.04 28.6031 56.9331C28.6443 56.9181 29.0166 56.6735 29.5438 56.3145C30.6396 55.5707 32.3769 54.3355 32.863 54.0244C33.6915 53.4956 34.189 53.4317 34.0415 53.2138C34.4151 53.2673 34.5156 52.9812 34.6204 52.9096C35.878 52.0536 35.8807 52.0543 36.9339 51.2793C37.1665 51.1081 37.4114 51.0307 37.4866 50.9612C37.5304 50.9204 37.3912 50.9162 37.6138 50.7268C37.9236 50.4643 39.9582 49.1267 40.133 49.0594C40.3073 48.9926 39.3061 49.6709 39.5269 49.6076C40.2449 49.1077 40.9192 48.6059 41.6431 48.1022C41.9441 47.893 41.8214 48.0455 41.951 47.9549C42.0053 47.917 43.0108 47.1467 42.9568 47.1609C42.827 47.1961 39.659 49.4818 40.4439 48.8103C40.5947 48.6811 41.2382 48.3753 41.0606 48.318C43.8239 46.3992 46.5831 44.475 49.4061 42.5737C49.5161 42.4998 49.6244 42.4272 49.731 42.3558C49.6299 42.4335 49.5258 42.5122 49.4188 42.5922C47.8743 43.7503 46.094 44.8958 44.4879 46.0421C44.2518 46.2103 43.449 46.7606 43.5887 46.7544C45.0584 45.7379 46.8572 44.4214 48.3075 43.4754C48.3534 43.4455 48.2271 43.6158 48.4015 43.5079C48.6203 43.3721 49.1223 42.9724 49.4885 42.6938C49.6865 42.5437 49.8422 42.4297 49.9068 42.3974C49.9439 42.3797 49.3916 42.8663 49.6073 42.7876C50.1584 42.5872 50.095 42.2393 50.4974 41.9716C50.8095 41.7574 53.0141 40.4885 53.5455 40.0594C54.0742 39.6011 51.8863 41.0335 52.0099 40.8618C52.7204 40.3473 53.4624 39.8753 54.2743 39.4147C54.6885 39.1815 55.1015 38.958 55.6156 38.7189C55.8779 38.5991 56.1486 38.4782 56.5469 38.3456C56.9356 38.2334 57.4938 38.0141 58.5333 38.1174C58.6518 38.1269 57.7649 37.9886 58.6935 38.0683C59.0986 38.131 59.7175 38.2955 60.3403 38.7942C61.3618 39.6781 61.4574 40.4 61.572 40.7677C61.6631 41.1712 61.6676 41.3843 61.6743 41.5869C61.6781 41.9428 61.6464 42.1374 61.6189 42.3064C61.5614 42.6208 61.5 42.798 61.4479 43.0236C61.3415 43.5461 60.9663 44.8005 60.8767 44.9425C60.8654 44.9629 60.856 44.6859 60.8655 44.6464C60.9989 44.0977 61.1733 43.912 61.1894 43.863C61.2512 43.6564 61.2586 43.4366 61.308 43.2299C61.3858 42.8576 61.4892 42.7436 61.5439 41.9357C61.5536 41.6124 61.5228 41.5803 61.5047 41.5819C61.4792 41.5694 61.4829 41.6143 61.4246 41.1341C61.4184 41.0927 61.4084 41.0112 61.3845 40.8853C61.3596 40.7615 61.3258 40.5868 61.2208 40.3072C61.1246 40.0577 60.9362 39.6345 60.5194 39.1956C60.0806 38.7175 59.3366 38.3169 58.6696 38.2178C57.1254 38.0086 56.5709 38.4058 56.5048 38.5062C56.5032 38.5141 56.6071 38.4785 56.8722 38.4101C57.1368 38.3635 57.5957 38.1657 58.6549 38.3104C59.4366 38.3871 60.4855 39.0934 60.845 39.7248C61.2551 40.3704 61.316 40.7947 61.375 41.1245C61.4578 41.7503 61.4081 42.0613 61.3756 42.3723C61.2985 42.949 61.1824 43.3763 61.0607 43.8081C60.8146 44.656 60.5247 45.451 60.2391 46.2122C59.6719 47.7112 59.1351 48.9979 59.0404 49.286C59.303 48.707 59.5647 48.1201 59.8214 47.5274C59.2922 48.7288 58.8407 50.2129 58.5849 50.2266C58.344 50.7978 58.1006 51.3673 57.8548 51.9375C56.227 55.6973 54.1742 59.2342 52.76 62.4295C52.6971 62.5811 52.6431 62.7169 52.5981 62.8396C52.4991 63.09 52.4717 63.0738 52.4409 63.0429C52.4206 62.99 52.4504 63.0577 52.4087 62.5496C52.3856 62.3958 52.3616 62.1931 52.2017 61.8402C52.057 61.5044 51.6644 60.9977 51.1796 60.7371C50.1655 60.2395 49.8126 60.4737 49.7214 60.4503C49.7804 60.4306 49.8673 60.385 50.1994 60.3912C50.3536 60.3976 50.6048 60.4213 50.9328 60.549C51.2586 60.6711 51.6742 60.9474 51.9504 61.2913C52.5182 62.02 52.4984 62.5357 52.5293 62.7301C52.5437 62.9523 52.5359 63.0202 52.5428 63.0583C52.5393 63.0144 52.572 63.0075 52.5455 62.5953C52.5143 62.3863 52.5004 61.979 52.0672 61.3574C51.6337 60.7155 50.7597 60.3565 50.3829 60.33C49.9853 60.2784 49.8213 60.3232 49.7386 60.3351C49.653 60.3526 49.6421 60.3614 49.6528 60.3599C49.6793 60.357 49.7969 60.3187 49.9307 60.2649C50.4915 60.0395 51.2631 59.6427 51.6635 59.4277C51.7755 59.3672 51.8646 59.3172 51.9181 59.2844C51.9747 59.2494 51.9875 59.0922 52.6594 58.7164C53.2572 58.3812 53.402 58.4162 53.7359 58.2558C54.0141 58.1219 54.3067 57.9311 54.3909 57.8912C54.4558 57.8606 54.5092 57.9015 54.6629 57.8292C55.1517 57.598 54.684 57.6578 55.2482 57.574C55.1374 57.6438 55.0281 57.7127 54.9183 57.7819C55.5004 57.4941 56.3218 57.1432 55.5047 57.6455C55.3652 57.7313 55.46 57.611 55.3521 57.6706C51.159 59.9822 54.5639 58.254 55.9951 57.3547C56.4159 57.2234 58.5168 55.9977 58.5968 55.9735C58.7075 55.9411 58.3771 56.2045 58.8844 55.9933C58.9889 55.9486 61.8238 54.3302 60.8503 55.0003C60.6494 55.1379 59.2684 55.8714 58.9413 56.0567C59.8056 55.7912 61.4984 54.5533 61.7087 54.4472C62.5523 54.0184 60.1943 55.4617 62.0719 54.458C63.5208 53.6873 62.1063 54.3157 62.6369 53.9662C62.9322 53.7691 64.6409 53.0089 64.5152 52.8765C64.638 52.8067 64.7186 52.7656 64.7718 52.7427C64.9693 52.6572 64.8012 52.8122 64.8597 52.7874C64.9293 52.7557 66.0385 52.1188 66.4366 51.9669C66.4838 51.9487 66.3829 52.1022 66.433 52.0858C66.5251 52.0491 67.666 51.4838 67.7195 51.4578C67.7469 51.4392 67.4316 51.4937 67.5388 51.4232C67.6519 51.3365 68.86 50.851 68.939 50.8097C69.0049 50.7312 67.5252 51.3746 67.7427 51.1894C68.3956 50.9118 69.5791 50.4089 70.1429 50.2091C70.0028 50.2579 69.2258 50.4964 68.982 50.5845C69.0139 50.3973 70.7656 49.9257 70.1919 50.1872C70.5684 50.0406 70.2942 50.0734 70.5074 49.9723C70.5612 49.9427 71.1469 49.839 71.2616 49.8069C71.2744 49.7959 70.6558 49.8429 70.7733 49.7979C70.98 49.6624 72.8325 49.583 72.9371 49.6416C73.3338 49.6871 71.9216 49.6952 71.7873 49.7864C71.7824 49.7775 72.9948 49.883 72.9928 49.9088C73.0708 49.999 71.743 49.9276 71.8943 50.031C72.2306 50.0317 72.5585 50.0521 72.869 50.0851C71.6214 50.0261 69.2833 50.6091 68.9093 50.9189C70.4031 50.2351 72.5739 50.1702 72.5041 50.4444C72.5036 50.539 71.7356 50.6255 71.7672 50.6569C71.8922 50.724 72.9331 50.6247 72.9624 50.644C72.9928 50.6513 73.0064 50.6576 73.0061 50.663C73.0061 50.663 73.0061 50.663 73.0061 50.663C73.0183 50.6922 71.5262 50.7525 71.4506 50.82C71.3326 50.8738 72.009 50.9942 72.0053 51.0411C71.9811 51.0343 70.9575 51.2019 71.314 51.2284C71.6718 51.2345 72.5509 51.2167 72.5775 51.2333C72.7465 51.2514 71.216 51.3673 71.1795 51.4369C71.1585 51.4431 71.9798 51.43 72.0023 51.4621C72.0237 51.4789 71.4131 51.5769 71.1933 51.6932C71.0288 51.7723 71.5396 51.7344 71.4519 51.7572C71.3791 51.742 70.0537 52.0522 70.009 52.102C69.9209 52.1439 70.2355 52.1116 70.1968 52.1405C70.1396 52.1789 69.7335 52.2898 69.7935 52.2951C69.8278 52.2657 71.4813 52.0775 71.4778 52.1791C71.464 52.2545 69.7759 52.3923 71.3814 52.4573C71.3922 52.4556 71.7609 52.3813 71.7726 52.3852C72.004 52.4398 70.8428 52.6417 72.2759 52.5193C69.648 52.9493 71.9646 52.6707 71.5905 52.8869C71.4515 52.9495 70.5027 53.2061 70.5028 53.2305C70.6164 53.2791 70.9031 53.1361 71.0151 53.1528C71.0739 53.1511 70.2579 53.4746 70.4651 53.4742C70.5704 53.4564 71.4433 53.2373 71.4805 53.2525C71.8336 53.2535 71.4196 53.372 71.5016 53.3982C71.5554 53.4087 72.0689 53.3576 72.0837 53.3669C72.1015 53.3663 71.4226 53.542 71.292 53.618C71.191 53.6648 71.5992 53.6321 71.5262 53.6587C71.1009 53.7882 70.0903 53.9184 71.0799 53.8995C71.1394 53.898 71.4746 53.8217 71.4853 53.8254C71.7036 53.8579 71.0917 53.9804 70.995 54.0773C70.8354 54.222 71.6926 53.9496 70.9861 54.2014C71.5511 54.1243 71.8076 54.0724 72.4418 54.0454C71.575 54.0699 71.0387 54.3498 70.9229 54.4513C70.8107 54.575 71.1807 54.4586 72.0454 54.3701C71.4843 54.4231 71.575 54.5828 71.4101 54.615C71.3217 54.6198 70.4013 54.7571 70.9041 54.9466C70.9708 54.9636 71.447 54.7819 71.3147 54.9054C70.0999 55.2485 71.3181 54.9487 71.3076 54.9749C71.328 55.0682 70.6308 55.2592 69.7001 55.6702C68.7813 56.0659 67.7247 56.5809 67.4274 56.7475C67.2804 56.8301 67.1481 56.9119 67.0142 56.9983C66.5181 57.32 66.1465 57.6304 66.022 57.6974C65.5169 57.9692 65.899 57.6742 65.7723 57.7096C65.6431 57.745 64.2704 58.6629 64.195 58.6959C63.8984 58.8202 64.1386 58.5825 64.1071 58.5944C63.7327 58.7327 61.8251 59.8674 61.2694 60.151C61.3156 60.1944 62.4111 59.5943 61.7755 60.0567C61.0356 60.5953 60.8608 60.3876 60.8343 60.3888C58.6134 61.6179 56.4064 62.8568 54.1194 64.0738C53.3624 64.4671 52.6734 64.8547 51.6517 65.2648C51.3743 65.3658 51.1046 65.4816 50.5415 65.5737C50.2415 65.6003 49.8784 65.7022 49.0685 65.4477C48.6618 65.3117 48.1602 64.9929 47.8324 64.5655C47.4949 64.1363 47.3588 63.7023 47.2981 63.4145C47.1827 62.8046 47.2445 62.5008 47.2723 62.2524C47.3098 61.9998 47.3538 61.8248 47.398 61.6601C47.4864 61.3389 47.5746 61.0948 47.6631 60.8581C47.6254 60.861 47.5276 61.0468 47.4023 61.4102C47.3413 61.5957 47.266 61.823 47.2029 62.2099C47.1753 62.4072 47.138 62.6418 47.1698 63.0593C47.2079 63.4426 47.321 64.2198 48.0657 64.9273C48.8209 65.6127 49.5999 65.6676 49.9607 65.6808C50.3607 65.6863 50.5949 65.6371 50.7947 65.5964C51.1784 65.5096 51.388 65.4263 51.5785 65.3552C51.9386 65.2144 52.1226 65.1233 52.1457 65.1195C52.2204 65.1062 52.1463 65.1581 51.9402 65.2582C51.7117 65.3547 51.477 65.5132 50.6623 65.6863C50.4412 65.7211 50.1642 65.7784 49.6394 65.7205C49.1609 65.6966 48.0343 65.27 47.5282 64.3705C47.0454 63.5225 47.1009 63.0035 47.0935 62.6594C47.1068 62.3088 47.1509 62.0928 47.1912 61.8992C47.3628 61.1644 47.5422 60.7694 47.7071 60.3563C48.0389 59.5653 48.3315 58.9951 48.4295 58.8234C48.2088 59.2166 47.9886 59.6182 47.7702 60.0498C47.9456 59.2098 48.8727 57.7992 49.2884 56.8144C49.4234 56.4931 49.0683 57.0609 49.0709 57.0465C49.1885 56.6693 49.512 56.1355 49.3787 56.5897C49.7311 55.7081 49.7493 55.8729 50.0793 55.2333C50.0962 55.2003 49.8986 55.4463 50.13 54.9263C50.2398 54.682 50.8689 53.4227 50.8981 53.2302C50.9108 53.1505 50.3669 53.6735 50.5237 53.8503C49.7422 55.1726 50.394 54.3334 50.1217 54.8645C50.0788 54.9469 50.0675 54.6978 49.4345 56.0808C49.3694 55.719 50.2997 54.2418 50.4055 53.9672C50.631 53.3963 49.3988 55.5949 49.3369 56.098C49.2815 55.8249 49.2348 56.2482 48.971 56.7585C48.682 57.3193 48.7602 57.0481 48.6063 57.357C48.1875 58.2035 48.4712 57.8997 48.0277 58.5681C48.5891 58.092 47.749 59.3673 47.2963 60.1878C47.231 60.3054 47.1785 60.3987 47.1336 60.4835C47.175 60.3729 47.2121 60.276 47.2537 60.1702C47.6333 59.2145 48.0159 58.4012 48.3981 57.5859C48.3568 57.6293 48.3157 57.6725 48.2747 57.7154C48.3927 57.4807 48.5111 57.2475 48.6283 57.0182C48.6251 57.063 48.622 57.1076 48.6189 57.1521C49.1149 55.9098 49.3698 55.6882 49.4194 55.5915C50.0528 54.3686 50.757 52.97 51.3349 51.7572C51.418 51.5767 51.2739 51.6485 51.9517 50.3714C52.1627 49.9667 52.0686 50.393 52.2638 49.9171C52.2733 49.7668 52.2871 49.6556 52.3045 49.5705C52.3776 49.24 52.4927 49.262 52.5543 49.1176C52.7814 48.5818 52.8632 48.235 52.8834 48.1853C53.1512 47.5236 53.5567 46.5652 53.8339 45.8435C53.8385 45.8298 53.6228 46.1759 53.8277 45.7191C53.8966 45.5626 54.7843 44.1834 55.0841 42.9394C54.9629 43.2439 54.8315 43.5579 54.6935 43.8784C54.7766 43.6925 55.0437 42.9107 55.1789 42.3407C55.3257 41.7302 55.2777 41.6117 55.2231 41.7188C55.1617 41.8626 55.063 42.8772 54.8415 42.9206C54.9074 42.7556 55.0201 42.4297 55.1154 42.0793C55.1617 41.9115 55.2026 41.7218 55.2098 41.6613C55.2158 41.6435 55.1989 41.6287 55.2098 41.8818C55.2288 42.0197 55.2056 42.2061 55.4343 42.7547C55.5426 42.9976 55.7651 43.3974 56.1823 43.7612C56.6039 44.1377 57.1879 44.3893 57.6729 44.4604C58.0262 44.5183 58.3198 44.4783 58.4313 44.4563C58.5535 44.4321 58.5712 44.4213 58.5618 44.4263C58.535 44.4363 58.3986 44.496 58.2567 44.569C57.9606 44.7198 57.6167 44.9189 57.3073 45.104C56.6904 45.4743 56.1943 45.7936 56.0884 45.8446C56.0371 45.8697 56.2991 45.6293 56.229 45.6646C56.1785 45.6862 55.1458 46.3734 54.9961 46.4466C54.9059 46.489 55.3444 46.1546 55.2952 46.1605C55.2492 46.1683 53.9426 47.0074 53.904 47.1302C54.2128 46.8821 55.1174 46.3135 54.6872 46.6785C54.6344 46.7232 54.2854 46.8965 54.2219 46.9518C53.5931 47.4877 55.621 46.1013 55.9302 45.9132C55.1766 46.4699 54.1037 47.1615 53.0439 47.8771C52.3974 48.3133 51.7602 48.7538 51.2072 49.1694C50.567 49.537 52.044 48.4657 51.3298 48.8979C49.8546 49.7924 51.002 49.2358 50.9661 49.2708C50.6554 49.5667 49.2516 50.1253 49.4075 50.3415C48.8689 50.6717 49.0199 50.5241 48.3132 51.0654C48.4175 51.0144 48.5259 50.9604 48.6317 50.9084C47.9168 51.6009 45.9886 52.4904 46.1004 52.3749C46.3972 52.0671 47.3561 51.54 47.4296 51.4845C47.5384 51.4024 47.6911 50.9622 49.0583 50.2944C49.4542 49.793 47.0464 51.5642 48.0851 50.6798C47.3477 51.2237 44.18 53.3159 43.7804 53.6974C43.7333 53.7436 44.0855 53.715 43.2674 54.1829C42.879 54.4049 43.7533 53.7819 43.5634 53.8662C42.9834 54.1262 36.0631 59.1278 34.7037 60.054C34.6167 60.1141 34.6168 60.0461 34.532 60.1051C34.2748 60.2847 33.3983 60.9812 32.8964 61.2941C32.8829 61.3026 32.8696 61.3108 32.8567 61.3187C32.8709 61.3108 32.8845 61.3033 32.8977 61.296C33.2834 61.0849 33.204 61.1692 32.943 61.3633C32.5524 61.6538 31.7665 62.1742 31.4676 62.3593C30.6922 62.8404 30.6815 62.7264 30.3365 62.9189C29.7895 63.221 29.1605 63.6303 28.4225 64.0442C28.0472 64.2502 27.6644 64.4606 27.1019 64.666C26.8035 64.7637 26.5021 64.8863 25.8426 64.9214C25.5188 64.93 25.0463 64.91 24.485 64.6687C23.9203 64.435 23.447 63.9596 23.2466 63.663C23.0241 63.3723 22.7892 62.8345 22.7303 62.4762C22.6604 62.1116 22.6674 61.8656 22.6769 61.6773C22.7026 61.3032 22.7593 61.1032 22.8117 60.9238C22.569 60.766 23.53 58.6609 23.8472 57.8158C24.0912 57.1148 24.3178 56.0636 23.9013 56.9679C24.3366 55.7727 24.7599 54.5115 25.1606 53.3996C25.2278 53.2132 25.1919 53.4928 25.3059 53.1713C25.3167 53.1395 25.2701 53.0843 25.3634 52.8164C26.1426 50.5872 25.8656 51.7061 26.0562 51.3112C26.1628 51.0913 26.2384 50.9224 26.2901 50.7961C25.8143 52.0859 25.2797 53.5863 25.1369 53.977C25.3902 53.6891 26.1792 51.1181 26.4942 50.3973C26.505 50.3726 26.5434 50.4874 26.5536 50.462C26.5538 50.4615 26.554 50.4609 26.5542 50.4604C26.592 50.3665 26.6937 50.0925 26.8053 49.7778C27.0009 49.2236 27.2296 48.5317 27.0831 48.7492C27.0425 48.8095 26.885 49.2076 26.6864 49.7326C26.5849 50.0008 26.4736 50.2991 26.3609 50.6041C26.441 50.3445 26.289 50.5034 26.3025 50.4574C26.3578 50.2716 26.4606 50.0001 26.584 49.6937C26.8197 49.1101 27.1325 48.4015 27.2607 48.0867C27.3052 47.9771 27.2509 47.9652 27.2577 47.947C27.4394 47.5061 27.5148 47.7487 27.5341 47.2444C28.0194 46.5225 26.9936 48.7411 27.1759 48.6207C27.3145 48.5263 29.198 43.4631 29.0484 43.426C29.0706 43.4144 29.1164 43.352 29.1935 43.2164C29.361 42.9244 29.8878 41.5097 29.9534 41.2603C29.964 41.2174 29.818 41.18 29.8363 41.1287C29.8826 40.9986 30.6538 39.3225 30.8163 38.6552C30.6632 38.9941 30.5122 39.3278 30.3579 39.6699C31.1609 37.5822 30.9969 37.8845 30.6856 38.5676C30.6718 38.6023 30.6534 38.6341 30.6401 38.6671C30.4026 39.1912 30.1047 39.876 30.09 39.8813C30.0344 39.8996 31.3747 36.3532 31.2422 37.0829C31.2231 37.185 30.5334 38.8023 30.9396 38.0241C31.01 37.8897 31.3893 36.8275 31.4214 36.7745C31.6312 36.4321 30.8354 38.764 31.0394 38.5217C31.165 37.9229 31.4865 37.2328 31.7109 36.5808C31.8121 36.2865 31.7698 36.1878 31.7823 36.1515C31.9711 35.6076 31.9283 35.9371 31.9957 35.757C32.0321 35.6587 32.2833 34.543 32.4216 34.8255C33.6084 31.2793 32.6356 33.7996 31.8225 35.9432C32.0058 35.2344 32.5541 33.9266 32.7651 33.326C32.8408 33.1102 32.7201 33.2089 32.8449 32.8429C33.1015 32.0902 34.5501 28.5837 34.9255 27.6687C34.7325 28.2445 34.8747 28.109 35.0378 27.6703C35.2007 27.2319 34.9548 27.5581 34.9764 27.4686C34.9997 27.3738 35.8407 25.341 35.9586 24.9948C35.4 26.5556 35.6134 26.2351 36.1268 24.9282C36.0765 25.1257 36.0259 25.3237 35.9752 25.5221C36.2397 24.7425 36.9799 23.1773 37.117 22.7155C37.1382 22.6436 36.9761 22.8688 36.988 22.8284C37.1098 22.4293 37.6877 21.1281 37.6883 21.0597C37.6898 21.0001 37.4176 21.5431 37.4711 21.3232C37.4829 21.2756 37.7785 20.7726 37.9653 20.2218C38.0339 20.0195 37.9257 20.1156 37.9414 20.0641C38.0726 19.6338 38.0798 19.9273 38.3585 19.152C38.5619 18.5859 38.619 18.1319 38.9497 17.3712C37.8437 19.8623 38.7199 17.7441 39.0864 16.6698C39.1457 16.4961 38.977 16.5993 39.4207 15.6052C38.7971 17.8432 39.7656 15.0282 39.9844 14.4609C39.997 14.4299 40.076 14.4463 40.1835 14.1684C40.1923 14.1451 40.1296 14.1587 40.2235 13.9011C41.1211 11.4365 40.5814 13.0232 40.8091 12.5746C40.9076 12.3798 41.292 11.1522 41.4066 10.8432C41.4068 10.8426 41.407 10.842 41.4073 10.8414C41.4357 10.7683 41.4759 10.8173 41.5823 10.5294C41.7667 10.0297 41.8872 9.53968 42.0027 9.21781C42.0145 9.18535 42.1054 9.19549 42.3104 8.5637C42.3665 8.39019 42.4163 8.16598 42.2954 8.41851C42.0237 8.98015 41.7106 9.97156 41.392 10.8356C41.2664 11.1767 41.1332 11.5146 41.0041 11.7861C40.7688 12.2792 41.0377 11.5133 41.2971 10.7997C41.4861 10.2812 41.659 9.81802 41.6844 9.7497C41.7044 9.69581 41.5402 10.2568 41.7564 9.70665C41.9344 9.25376 42.1114 8.3466 42.3913 7.68343C42.4157 7.6251 42.7367 7.12568 42.7333 7.15658C42.7341 7.17174 42.4462 8.03417 42.5281 7.91957C42.5348 7.91426 42.7362 7.36525 42.7854 7.31126C42.8467 7.24274 43.2451 7.12134 43.2947 7.00926C43.4196 6.7256 43.28 6.88795 43.3516 6.70572C43.515 6.29657 44.0913 4.93942 43.9896 4.86602C43.9098 5.08385 43.8248 5.31135 43.7378 5.54064C44.1602 4.26993 43.924 4.79811 43.9648 4.6121C44.0007 4.42357 44.0876 4.49302 44.2166 4.1018C44.2247 4.07608 44.2565 3.96913 44.2977 3.80839C44.3335 3.68109 44.3778 3.42334 44.3558 3.53085C44.3548 3.5833 44.3274 3.64115 44.3757 3.97356C44.385 4.0334 44.4193 4.20008 44.4798 4.35928C44.5513 4.53571 44.6037 4.68691 44.8437 4.9952C45.2726 5.59365 46.274 5.92133 46.7703 5.84989C47.1859 5.82469 47.4396 5.70838 47.5315 5.67076C47.647 5.62033 47.725 5.57368 47.7573 5.55474C47.8361 5.50701 47.8541 5.49263 47.8628 5.4889C47.8779 5.48543 47.7987 5.56985 47.8171 5.56782C47.8683 5.50756 47.8968 5.4804 47.8541 5.50923C47.7881 5.5376 47.7464 5.64081 47.1911 5.80518C47.0387 5.84196 46.8953 5.87027 46.6499 5.87397C46.3963 5.87655 46.1014 5.83149 45.8268 5.72907C45.2631 5.52394 44.8841 5.125 44.7025 4.85519C44.4006 4.38469 44.4076 4.24603 44.3641 4.14395C44.3123 3.96888 44.3165 4.06386 44.3409 4.19813C44.3646 4.33261 44.4389 4.53256 44.3801 4.38391C44.2767 4.09564 44.2671 3.95556 44.2542 3.84651C44.244 3.73566 44.2467 3.65501 44.2501 3.61678C44.2579 3.52467 44.2717 3.49573 44.2804 3.48996C44.2989 3.47984 44.3032 3.5539 44.2847 3.6261C43.8792 5.01701 44.1857 3.55309 44.061 3.88235C44.0219 3.98639 44.0027 4.25369 43.9825 4.30672C43.9145 4.48892 43.8429 4.4538 43.8097 4.57679C43.7301 4.86639 43.9454 4.56709 43.9428 4.59309C43.9313 4.86192 43.5048 5.82915 43.6027 5.17448C43.4354 5.52696 43.5565 5.62444 43.3961 5.90239C43.0729 6.46422 43.4198 5.58014 43.4838 5.33217C43.5959 4.90109 43.6879 4.6144 43.7855 4.31734C43.8363 4.1618 43.8894 4.00023 43.9391 3.83095C43.9668 3.73562 43.9884 3.65734 44.0096 3.56802C44.0273 3.50059 44.0421 3.39025 44.0269 3.48597C44.0247 3.54713 43.9997 3.57759 44.0305 3.91516C44.0491 4.04155 44.0772 4.38008 44.3457 4.86068C44.606 5.4637 45.7481 6.22476 46.5152 6.18874C46.9272 6.20112 47.0761 6.15917 47.2721 6.11668C47.4509 6.07252 47.578 6.02165 47.6495 5.99205C47.8083 5.92538 47.9074 5.86586 47.9523 5.84043C48.0593 5.77678 48.078 5.76332 48.0901 5.76053C48.1054 5.77041 47.9797 5.91509 47.9241 5.97474C47.8952 6.00457 47.709 6.13449 47.4952 6.32498C47.1929 6.59223 46.8896 6.92412 47.0425 7.09609C46.676 7.42823 45.9703 7.82135 45.6395 8.21353C45.3468 8.5607 45.5425 8.54759 45.5189 8.58219C45.4846 8.63317 45.1116 9.04528 45.0016 9.20402C44.8733 9.389 44.9898 9.33307 44.7753 9.61789C44.2496 10.3208 44.1606 10.2132 44.0943 10.2774C43.3431 11.0171 43.7866 10.7966 43.6516 10.9849C43.5198 11.1564 41.5461 13.4909 41.1879 14.0403C41.329 13.815 41.4657 13.5959 41.6107 13.3672C41.242 13.6923 41.0559 14.1615 40.9231 14.0765C41.0612 14.3104 40.3246 14.9795 40.1569 15.2076C40.0886 15.3 40.1284 15.3191 40.041 15.4352C39.6968 15.8915 38.9003 16.8745 38.7278 17.1376C37.9922 18.2566 40.1808 15.6492 40.3566 15.4452C40.0252 15.8623 38.228 18.3111 39.1753 17.2705C39.3227 17.1083 39.4575 16.7456 39.5291 16.6449C40.0091 15.9716 39.6945 16.5483 39.7417 16.5027C39.8233 16.4219 40.0646 15.9473 40.1643 15.8376C40.1954 15.8036 40.0843 16.0971 40.5616 15.4836C40.3909 15.8459 39.0104 17.527 38.8509 17.7742C38.7942 17.8622 39.3362 17.4599 38.0556 18.8451C38.0828 18.8385 38.1099 18.8319 38.1371 18.8253C37.5038 19.6756 36.8985 20.4954 36.2686 21.3532C36.3057 21.235 36.596 20.7086 36.1609 21.3214C35.9192 21.663 36.1769 21.4689 36.1562 21.501C36.0808 21.6182 35.4604 22.4537 34.668 23.5262C33.3681 25.2834 31.6207 27.6652 31.1383 28.3402C30.8816 28.6983 30.2026 29.7582 30.1486 29.8352C29.8239 30.2948 28.6017 31.9034 28.3731 32.2381C28.2303 32.4471 28.4327 32.2964 28.2974 32.4778C28.1731 32.6442 28.2394 32.427 28.2008 32.4751C27.8819 32.8698 25.6789 36.0949 25.0819 36.8098C25.4302 36.3593 26.9611 33.9796 26.885 33.9974C26.8723 34.0029 26.4265 34.5266 26.3654 34.6581C26.1761 34.8124 25.8647 35.5768 25.5792 35.9092C25.5467 35.9471 25.5728 35.7246 25.1005 36.3486C24.9363 36.5657 24.5983 37.1816 24.107 37.7043C23.546 38.5624 20.2946 42.87 20.1756 43.2395C20.1742 43.252 20.648 42.657 20.3889 43.1025C20.0446 43.6948 20.2258 43.0717 19.7493 43.7081C19.6769 43.8045 18.412 45.6171 18.3799 45.6854C18.089 46.3012 19.2504 44.7543 19.2459 44.7848C19.2356 44.8597 18.3209 46.1809 18.2763 46.2293C18.2332 46.275 18.8633 45.1152 17.9996 46.4327C18.1195 46.297 18.2396 46.1611 18.3597 46.0252C17.9605 46.6499 17.8303 46.6429 17.721 46.7849C17.38 47.2274 17.1661 47.8169 16.4811 48.4238C16.299 48.5853 16.4774 48.2291 16.4535 48.2485C16.2281 48.438 16.1788 48.8485 15.8118 49.1107C15.7845 49.1302 16.2862 48.2714 15.283 49.6833C15.3643 49.5933 15.444 49.5054 15.5246 49.4163C15.4093 49.633 14.4062 51.0783 14.2636 51.2665C13.8445 51.8195 14.1112 51.2683 13.7191 51.8421C14.09 51.5593 12.8839 53.2913 12.856 53.124C12.809 53.4499 11.6762 54.848 11.1868 55.5332C10.8742 55.9708 10.3071 56.8856 10.1995 57.0244C10.0724 57.1877 10.0246 57.0777 9.79159 57.3676C9.72829 57.4458 9.14222 58.4042 8.50223 59.1256C8.37486 59.2703 8.00282 59.4953 8.17125 59.1818C8.45679 58.6491 9.22404 57.8069 9.13426 57.756C9.02913 57.7142 8.21237 58.9822 7.95528 59.3211C6.81042 60.8257 7.34606 59.8656 7.28757 59.8869C7.14807 59.9353 6.54324 60.7958 6.51526 60.822C6.38405 60.9482 6.75096 60.3111 6.71552 60.2704C6.6658 60.2224 5.9921 60.9622 6.10376 60.7642C6.25988 60.4866 6.88123 59.7854 6.90958 59.7368C7.28776 59.087 6.56667 59.8338 6.33308 60.03C6.26308 60.0877 6.43232 59.7803 6.38476 59.8355C5.66177 60.6746 6.42997 60.1558 5.9935 60.7355C5.60442 61.2523 5.99978 60.5131 5.98055 60.5304C5.9594 60.5494 5.50167 61.1875 5.4009 61.2666C5.35459 61.3002 6.35381 59.5365 6.23545 59.5474C5.87158 60.0967 5.52658 60.6195 5.16253 61.1694C5.03555 61.1448 5.65022 60.4252 5.69131 60.346C5.78182 60.1756 5.42531 60.5768 5.40846 60.536C5.3957 60.5129 5.68761 59.9532 5.33322 60.3943C5.21179 60.5453 5.03148 60.9437 4.55596 61.4705C5.90906 59.3682 4.85466 60.7459 4.77658 60.784C4.70058 60.8192 5.31174 59.7837 4.48801 60.9798C4.26489 60.8979 4.4456 60.9141 4.65107 60.5534C4.90102 60.1137 4.17337 61.0125 5.27562 59.5519C5.12921 59.5729 4.27976 60.7883 4.22902 60.8454C4.1838 60.8959 4.32948 60.5981 4.24749 60.6831C3.28679 61.6833 3.90746 60.969 3.56715 61.221C3.53352 61.248 2.74093 62.2851 3.29862 61.462C4.31793 59.9579 4.88054 59.4257 4.7911 58.9883C3.90756 59.9934 3.12832 61.461 2.90097 61.7891C2.55126 62.2932 2.86333 61.7362 2.80471 61.787C2.78701 61.8016 2.47738 62.2496 2.46852 62.253C2.05103 62.4138 3.84297 60.2996 4.32044 59.5492C4.15939 59.7127 3.98632 59.8932 3.82087 60.063C4.00524 59.7994 4.18955 59.536 4.36914 59.2792C3.43539 60.4713 4.31591 59.3055 4.36876 58.8824C4.38072 58.7872 3.86932 59.6451 4.42312 58.6439C3.91244 59.3164 4.04317 59.0602 3.64464 59.7224C3.59439 59.6539 4.50704 58.2047 4.85682 57.6384C3.40486 59.5358 4.44302 58.5789 3.11836 60.1829C2.98124 60.5499 3.52877 59.7411 3.49737 59.8142C3.37821 60.0854 2.91706 60.5753 2.61456 61.3633C2.5671 61.4895 2.97123 61.099 2.49577 61.7635C2.44403 61.8355 2.0593 62.225 2.05959 62.2134C2.04128 62.1176 2.37252 61.6941 2.35789 61.6641C2.35064 61.6263 2.01897 62.1249 2.01314 62.1198C1.93026 62.0848 2.27014 61.6976 2.20498 61.7422C2.05799 61.8466 0.698062 63.4445 2.32198 61.2408C1.08805 63.1605 2.23755 61.5286 2.71328 60.7888C2.83667 60.5976 2.83108 60.5144 2.9974 60.2474C3.21334 59.9008 3.51647 59.5154 3.63491 59.3311C3.75747 59.1392 2.90471 60.131 4.02147 58.6147C3.37495 59.3156 2.48314 60.8063 1.87675 61.5147C0.624925 62.9838 2.46801 60.3085 2.65035 60.0211C2.69768 59.9461 2.46852 60.1476 2.49905 60.0969C2.54419 60.0213 3.63761 58.5305 3.69191 58.352C3.74783 58.1713 3.30649 58.9021 3.22575 58.9105C3.16281 58.9281 4.39599 57.0567 3.67223 58.032C3.17935 58.6959 2.43352 60.0385 2.1414 60.1438C2.82513 59.1503 3.52466 58.1347 4.21093 57.1384C3.77825 57.6333 3.32575 58.1563 2.89407 58.65C3.65857 57.5308 4.41533 56.5926 5.07741 55.4888C3.10255 57.9059 5.52406 54.5574 5.52613 54.5092C5.52428 54.4844 4.66785 55.3903 4.52847 55.5317C5.10642 54.5968 6.98134 51.891 5.69189 53.3365C5.9333 53.0803 6.32434 52.3184 6.31124 52.3211C6.16932 52.3552 5.1509 53.9019 5.25374 53.6065C5.37651 53.2588 5.76955 52.9398 6.07169 52.4942C7.62483 50.2027 6.77646 50.533 8.44681 48.3144C8.4004 48.349 8.35402 48.3836 8.30765 48.4181C10.0743 45.9764 11.8477 43.5296 13.6199 41.0911C14.1804 40.04 15.9285 37.4294 16.8411 36.1832C17.024 35.933 17.9784 34.7376 18.0567 34.6528C18.2028 34.495 17.5283 35.4546 17.8781 35.053C17.9511 34.9683 19.4846 32.8872 19.3068 32.9885C19.1307 33.2169 18.637 33.9793 18.5337 34.0889C17.809 34.8485 22.5509 28.4455 22.7378 28.0946C22.6113 28.2223 22.4844 28.3506 22.3597 28.4758C22.6638 28.0778 22.9736 27.6723 23.2773 27.2757ZM15.4472 50.04C15.342 50.3365 14.8527 50.9143 14.6163 51.2892C14.284 51.8156 13.9511 52.857 13.9404 52.2989C14.4425 51.5458 14.9434 50.7947 15.4472 50.04ZM23.2212 39.353C22.8301 39.8202 22.9539 39.3288 23.306 38.9694C23.3452 38.9297 23.7497 38.7215 23.2212 39.353ZM19.4558 44.4741C19.4686 44.4519 19.777 44.0278 19.79 44.0145C20.1235 43.6748 19.1936 44.9532 19.4558 44.4741ZM37.3737 19.6033C36.9823 20.138 37.4072 19.8521 37.5954 19.4868C37.6072 19.4637 37.3996 19.5683 37.3737 19.6033ZM37.0867 19.9782C36.6493 20.3098 36.2839 21.3104 36.7494 20.6358C36.7923 20.5729 37.1061 19.9644 37.0867 19.9782ZM21.9042 41.0679C21.8968 40.9788 22.2837 40.4856 22.4501 40.2766C22.4889 40.3131 22.0514 40.8508 21.9042 41.0679ZM31.149 28.2011C31.1279 28.152 29.8516 29.914 29.8176 30.0637C29.9928 29.778 31.1678 28.2441 31.149 28.2011ZM34.3815 23.6757C34.3441 23.713 33.9099 24.323 33.9543 24.3304C34.2161 24.063 34.5549 23.5002 34.3815 23.6757ZM41.0104 14.8966C41.0277 14.8587 40.4829 15.1399 41.4269 14.2062C41.5674 14.0669 41.1868 14.6604 41.2394 14.6084C41.3411 14.5073 41.4211 14.4187 41.4784 14.348C41.1165 14.8434 40.7286 15.3597 40.6831 15.3931C40.448 15.5767 41.0024 14.9131 41.0104 14.8966ZM44.4376 10.3285C44.4804 10.2113 45.0164 9.61148 45.1422 9.49239C45.1658 9.46992 45.1566 9.64811 45.3862 9.36855C45.5667 9.14939 45.203 9.39791 45.58 8.99087C45.9573 8.58626 45.532 9.19435 45.5654 9.16548C45.6187 9.11346 46.1401 8.44496 46.176 8.50442C46.1979 8.55025 45.5633 9.22276 45.4259 9.40048C45.2438 9.63251 45.5321 9.41955 45.2051 9.77516C44.9948 10.0055 44.9989 9.78282 44.9505 9.82861C44.9127 9.8621 44.2763 10.7478 44.439 10.3275C44.4386 10.3278 44.4381 10.3282 44.4376 10.3285ZM41.576 14.2136C41.5514 14.2526 41.5199 14.2968 41.4784 14.348C41.5114 14.3028 41.5439 14.2578 41.576 14.2136ZM16.4114 48.5757C16.6301 48.3433 16.1319 49.1407 15.8811 49.3953C15.8396 49.374 16.3764 48.6133 16.4114 48.5757ZM41.8358 13.6976C42.427 13.0081 42.049 13.5614 41.576 14.2136C41.7139 13.995 41.6317 13.9371 41.8358 13.6976ZM26.3654 34.6581C26.3967 34.6327 26.4245 34.6223 26.4482 34.6355C26.3645 34.7013 26.3463 34.6995 26.3654 34.6581ZM27.6609 32.9421C28.0245 32.2974 27.1526 33.5121 27.2047 33.5406C27.2257 33.5495 27.6467 32.9674 27.6609 32.9421ZM37.8926 18.9277C37.845 18.9776 38.2779 17.9909 37.5099 19.3191C38.0255 18.6833 37.5251 19.3924 37.5535 19.391C37.6263 19.3974 38.3873 18.2896 38.5968 18.0592C38.6496 17.8042 38.0452 18.7687 37.8937 18.9263C37.8933 18.9267 37.893 18.9272 37.8926 18.9277ZM42.7438 5.9207C42.7435 5.72727 42.9536 5.19603 43.0746 4.85023C43.0817 5.03481 42.8799 5.55219 42.7438 5.9207ZM53.9858 45.2604C54.849 42.8223 55.184 42.6195 54.2815 44.7748C54.2632 44.8189 53.9536 45.4181 53.9858 45.2604ZM45.0389 53.4329C44.7631 53.486 45.4423 52.9811 45.923 52.6992C46.0321 52.6351 46.4786 52.463 46.0596 52.7883C45.9913 52.6639 45.292 53.0937 45.0389 53.4329ZM42.0945 13.2508C42.2002 12.9922 42.7537 12.3876 43.0253 12.0708C42.9166 12.3062 42.3523 12.9641 42.0945 13.2508ZM56.6717 45.3316C56.4395 45.4651 56.3398 45.6485 56.3836 45.6306C56.5792 45.5521 56.9587 45.2222 56.6717 45.3316ZM40.4616 15.314C40.3968 15.3211 41.0345 14.429 41.1663 14.4476C41.0237 14.6157 40.4953 15.3175 40.4616 15.314ZM43.0166 5.25113C43.0938 5.10273 42.8493 5.92864 42.7421 6.15457C42.7037 6.11759 42.9667 5.35139 43.0166 5.25113ZM52.9689 47.8181C52.7612 47.9496 52.235 48.3096 52.202 48.3824C52.1589 48.4741 52.9149 47.9311 52.9689 47.8181ZM65.2835 58.5928C65.3203 58.5934 64.5222 59.1788 64.1221 59.3604C63.3635 59.7028 65.246 58.5966 65.2835 58.5928ZM58.4928 44.2629C58.4081 44.3837 58.5658 44.2434 58.5176 44.3652C58.5429 44.355 58.5688 44.3519 58.48 44.3748C58.4075 44.3924 58.1 44.4593 57.6841 44.3906C57.0231 44.3114 56.2279 43.8098 55.8947 43.3595C55.5325 42.8995 55.4547 42.6129 55.386 42.404C55.2871 42.0393 55.3062 41.9473 55.3045 41.894C55.3085 41.8473 55.316 41.8485 55.3347 41.9367C55.3452 41.981 55.3561 42.0583 55.4014 42.2289C55.4656 42.3912 55.4647 42.6883 56.0002 43.351C56.2639 43.686 56.9825 44.2046 57.6995 44.2937C58.0147 44.3455 58.3431 44.3021 58.4281 44.2801C58.5303 44.2566 58.5135 44.2567 58.4928 44.2629ZM58.1076 44.4034C58.0697 44.4575 57.7077 44.7701 58.0562 44.5751C58.2141 44.4876 58.3888 44.276 58.1076 44.4034ZM59.9488 61.5825C59.2723 61.8547 62.1976 60.2893 62.2871 60.2587C62.3351 60.2417 62.3677 60.2326 62.3872 60.2294C62.4798 60.1457 63.0238 59.8397 63.1222 59.8677C62.9547 59.9532 62.5111 60.2052 62.455 60.2271C62.4309 60.2365 62.4127 60.243 62.3996 60.2465C62.2375 60.4067 60.0795 61.5295 59.9488 61.5825ZM55.0495 64.1654C55.7275 63.6504 55.9639 63.7762 55.9042 63.8173C55.1435 64.3342 55.5891 63.904 55.5607 63.9106C55.5002 63.929 54.9611 64.3066 55.0518 64.1642C55.0511 64.1646 55.0503 64.165 55.0495 64.1654ZM58.9435 62.0967C58.9714 62.078 59.5849 61.7464 59.6112 61.7358C60.1475 61.5255 58.4129 62.4633 58.9435 62.0967ZM47.1009 7.07446C47.4441 6.74541 47.1821 7.14006 46.9472 7.34817C46.9282 7.36452 46.7991 7.36606 47.1009 7.07446ZM57.8428 44.5684C57.7945 44.5389 55.3943 45.9652 55.6014 45.996C55.8191 45.8047 58.4564 44.3124 57.8428 44.5684ZM39.9357 56.8493C40.3636 56.548 39.965 56.9743 39.7134 57.0981C39.6199 57.1441 39.8279 56.9253 39.9357 56.8493ZM39.4843 16.4058C39.2073 16.8736 39.0992 16.6571 39.4467 16.3265C39.4602 16.3137 39.4952 16.3873 39.4843 16.4058ZM43.3747 54.4958C41.95 55.5942 42.0819 55.0423 44.0592 53.7939C44.0093 53.8497 43.9594 53.9056 43.9094 53.9615C46.1388 52.4482 44.0753 53.8761 43.5487 54.2754C43.3488 54.4271 43.5564 54.3563 43.3763 54.4951C43.3758 54.4954 43.3752 54.4956 43.3747 54.4958ZM37.6855 58.4258C36.1067 59.2089 38.9286 57.4411 39.6789 56.8663C38.9896 57.4874 38 58.1641 39.3975 57.3162C37.4617 58.7071 38.2096 58.0498 38.1281 58.0969C38.0292 58.1544 37.7519 58.3932 37.6855 58.4258ZM41.4225 55.7862C41.5007 55.7213 42.1459 55.3302 42.3628 55.1655C42.1053 55.4595 40.9102 56.2137 41.4225 55.7862ZM47.1716 60.5286C47.1899 60.5799 47.1971 60.6452 47.1587 60.8033C47.123 60.9646 47.0426 61.1644 46.892 61.698C46.9431 61.3247 47.0901 60.8186 47.1716 60.5286ZM14.8108 50.2905C14.5696 50.6214 14.0784 51.2673 14.2834 51.1075C14.3047 51.0885 14.8437 50.3165 14.8108 50.2905ZM50.9234 49.046C50.8476 49.0867 49.0074 50.3715 49.688 49.9894C49.8928 49.8731 51.5567 48.6978 50.9234 49.046ZM55.4195 41.8031C55.4311 41.7588 55.4442 41.6163 55.4308 41.7072C55.4278 41.7595 55.4135 41.8805 55.4638 42.1544C55.4962 42.3906 55.6877 42.8174 55.698 42.8305C55.7419 42.9464 55.4964 42.5143 55.4358 42.2113C55.3609 41.8857 55.3784 41.7523 55.382 41.6983C55.3989 41.6091 55.3975 41.7835 55.4195 41.8031ZM13.557 51.9317C13.5209 51.9699 12.8076 52.9984 12.915 52.9065C13.121 52.7286 13.6842 51.7962 13.557 51.9317ZM48.0956 5.8146C48.1358 5.77481 48.1623 5.85628 48.1225 5.8862C48.1086 5.89497 48.0953 5.91151 47.9487 5.99787C47.9032 6.02386 47.8443 6.05607 47.7596 6.09519C47.675 6.13256 47.5698 6.18308 47.3358 6.24671C47.0991 6.29782 46.8445 6.38653 46.204 6.30162C45.6099 6.22818 44.8444 5.8039 44.456 5.28607C44.2416 5.01253 44.1606 4.84091 44.0829 4.67108C44.0091 4.50301 43.9634 4.35473 43.9324 4.22786C43.8774 3.99219 43.8728 3.89267 43.8644 3.77801C43.8552 3.56977 43.8659 3.52296 43.8696 3.46943C43.8781 3.39504 43.8764 3.42142 43.8661 3.46012C43.8193 3.64805 43.7222 3.9152 43.7514 3.62556C43.7511 3.6149 43.7738 3.52493 43.7889 3.45673C43.7973 3.42118 43.8027 3.38418 43.7966 3.43133C43.7948 3.45232 43.7849 3.51265 43.7852 3.66109C43.7863 3.74854 43.7902 3.8926 43.8289 4.10132C43.8481 4.20604 43.8949 4.40946 43.983 4.62459C44.0278 4.73487 44.0849 4.85572 44.1599 4.98445C44.235 5.11556 44.3763 5.32185 44.5388 5.49378C45.1821 6.28402 46.5937 6.50678 47.027 6.38143C47.2805 6.34559 47.4674 6.28719 47.6111 6.2337C47.7255 6.19049 47.8078 6.15156 47.8775 6.11592C48.141 5.97435 48.1651 5.93538 48.1968 5.91391C48.2404 5.87606 48.1772 5.9266 48.1145 5.98612C47.9807 6.11079 47.7971 6.29581 47.6346 6.45936C47.3916 6.70385 47.2125 6.88523 47.1444 6.95327C47.0422 6.96657 47.3189 6.69308 47.6003 6.42629C47.7805 6.25452 47.9402 6.10916 47.997 6.04688C48.0176 6.02399 47.9978 5.91614 48.0957 5.81517C48.0956 5.81498 48.0956 5.81479 48.0956 5.8146ZM52.4959 65.4538C52.5743 65.3743 53.7418 64.7546 54.3221 64.4573C54.5419 64.3474 54.703 64.2758 54.7047 64.3003C54.5852 64.3661 54.4611 64.434 54.3437 64.4981C53.7605 64.8142 53.1899 65.1255 52.4959 65.4538ZM50.646 66.0554C50.2538 66.0998 50.0947 66.0794 50.2943 66.0647C50.4957 66.0458 50.8323 65.9894 51.1124 65.9095C51.6646 65.7543 52.0853 65.5632 52.2839 65.49C52.292 65.5102 52.0523 65.6345 51.7059 65.7686C51.3869 65.9014 50.8035 66.0437 50.646 66.0554ZM56.7838 44.8359C56.615 44.9569 57.2136 44.7112 57.0998 44.8021C57.0345 44.8537 56.6069 45.0705 56.4982 45.1751C56.4677 45.2051 56.9217 45.0336 57.0398 44.9591C57.2019 44.8559 57.0017 44.8905 57.1849 44.7813C57.4824 44.6046 57.7665 44.4591 58.0132 44.3458C58.2493 44.234 58.5185 44.1414 58.4638 44.1626C58.4578 44.1635 58.5182 44.0951 58.4036 44.1253C58.3711 44.1166 58.3232 44.2222 57.719 44.1719C57.0997 44.1249 56.1778 43.5233 55.8871 43.0034C55.5533 42.4775 55.5287 42.189 55.4908 42.0041C55.4472 41.6689 55.4744 41.6683 55.4688 41.6887C55.5838 42.4228 54.9383 43.5908 54.3989 45.22C54.4466 45.1675 54.972 43.94 54.9929 43.8753C55.155 43.4583 55.3461 42.9342 55.5002 42.4225C55.5757 42.1731 55.6423 41.9122 55.6683 41.7656C55.6827 41.7012 55.6774 41.6419 55.6791 41.7976C55.6903 41.8943 55.6658 42.0207 55.8242 42.4573C55.9031 42.6576 56.0684 42.9998 56.4159 43.3306C56.7751 43.6826 57.3131 43.9283 57.7481 43.9896C58.2954 44.0574 58.4348 43.9495 58.4129 43.9677C58.3983 43.9711 58.291 44.0126 58.181 44.0644C57.9552 44.1694 57.6802 44.3183 57.4451 44.4519C57.1253 44.6352 57.3056 44.5897 57.1681 44.672C57.0561 44.7402 57.145 44.5775 56.7838 44.8359ZM14.8949 50.0834C14.7056 50.1899 14.3598 50.7784 14.1024 51.1329C14.2616 51.0531 14.6298 50.4213 14.8949 50.0834ZM50.9711 53.0285C51.0633 52.834 51.3778 52.2504 51.3758 52.1892C51.3745 52.1098 50.9359 52.9594 50.9711 53.0285ZM40.8358 12.0697C40.8314 12.0885 40.6384 12.5823 40.6278 12.6018C40.3899 13.0183 40.9681 11.5401 40.8358 12.0697ZM36.307 23.8273C36.174 24.204 36.0547 24.594 35.9369 24.6902C36.0384 24.4593 36.2754 23.7635 36.307 23.8273ZM30.0448 40.0643C30.1669 40.0212 29.6739 41.1241 29.5843 41.3326C29.5731 41.2396 29.9578 40.0928 30.0448 40.0643ZM47.4983 60.5423C47.3356 60.9471 47.3014 61.1697 47.2802 61.3281C47.2565 61.5109 47.2401 61.5787 47.1081 62.0647C47.0857 62.1465 46.9773 62.3554 46.924 62.2662C46.8683 62.1841 46.8842 61.7214 47.1265 61.1824C47.169 61.0872 47.1441 61.238 47.1682 61.2471C47.1912 61.2657 47.2654 61.0877 47.4983 60.5423ZM44.3711 53.5764C44.4864 53.4147 44.9735 53.0927 45.2991 52.8682C45.2548 52.9589 44.5979 53.4097 44.3711 53.5764ZM12.1923 53.7278C11.9143 53.9608 11.0526 55.2955 11.3294 55.0098C11.3665 54.9711 12.0585 53.9106 12.1923 53.7278ZM43.0146 11.6288C43.3616 11.0866 42.5089 12.1006 42.2967 12.4816C42.4145 12.3259 42.9889 11.6672 43.0146 11.6288ZM31.5989 36.1818C31.5903 36.2124 31.3341 36.857 31.3191 36.8862C31.0433 37.3909 31.7695 35.5621 31.5989 36.1818ZM37.9086 20.0014C37.8736 20.2587 37.2379 21.7762 37.0489 22.1007C37.096 21.7362 37.9507 19.6847 37.9086 20.0014ZM48.8193 57.5693C48.584 58.0517 48.343 58.5041 48.1015 58.9577C48.101 58.8314 48.7604 57.5984 48.8193 57.5693ZM30.6856 38.5676C30.6718 38.6023 30.6534 38.6341 30.6401 38.6671C30.6554 38.6332 30.6708 38.6001 30.6856 38.5676ZM53.7547 47.1286C53.9379 46.7332 53.8171 46.7849 53.805 46.8073C53.6546 47.0979 53.5495 47.5691 53.7547 47.1286ZM14.4929 50.4138C14.3374 50.4895 13.9628 51.1286 13.6993 51.4659C13.8243 51.403 14.3031 50.6963 14.4929 50.4138ZM36.0601 59.3548C35.553 59.5991 37.3485 58.2188 37.769 57.9926C37.8326 58.0169 36.1371 59.3176 36.0601 59.3548ZM41.6641 13.115C41.5875 13.106 41.0691 13.8906 41.2171 13.7525C41.304 13.6731 41.7148 13.1157 41.6641 13.115ZM38.7199 57.3699C38.8808 57.2323 39.3212 57 39.2017 57.1322C39.0476 57.3023 38.6794 57.4054 38.7199 57.3699ZM54.1443 46.4687C54.0674 46.5067 53.0917 47.2486 53.5472 47.02C53.8563 46.8661 53.8574 46.7523 53.9239 46.7071C53.995 46.6567 55.6885 45.6694 54.1443 46.4687ZM22.9212 59.5202C22.8561 59.7809 22.7744 60.0571 22.6885 60.3926C22.6094 60.7554 22.4903 61.0393 22.4874 61.8665C22.4186 60.8818 22.8165 59.7218 22.9212 59.5202ZM43.8987 10.3282C43.8071 10.3855 41.8706 12.7477 43.0273 11.4497C43.0932 11.3718 44.1738 10.1193 43.8987 10.3282ZM47.4983 60.5423C47.526 60.4734 47.5586 60.3969 47.5971 60.3112C47.6134 60.2752 47.6307 60.2376 47.6492 60.1983C47.6318 60.238 47.6151 60.2758 47.5992 60.312C47.5615 60.3976 47.5278 60.4737 47.4983 60.5423ZM51.2434 52.8389C51.2135 53.0087 51.5906 52.2637 51.6721 52.0327C51.6534 51.94 51.249 52.8148 51.2434 52.8389ZM22.5597 62.006C22.5762 62.1759 22.5988 62.4051 22.6959 62.7358C22.7836 63.0509 22.9942 63.4663 23.1807 63.7111C23.3669 63.9744 23.7576 64.3918 24.2662 64.6483C24.7703 64.9103 25.2653 64.9831 25.5946 64.9959C26.2687 65.0098 26.5687 64.9033 26.8224 64.8388C26.7783 64.8602 26.5781 64.9596 26.0105 65.0209C25.7162 65.0419 25.2714 65.071 24.632 64.8526C23.9869 64.6487 23.3601 64.0635 23.1479 63.735C22.8984 63.4103 22.6747 62.8591 22.6219 62.5604C22.5581 62.2541 22.5589 62.0828 22.5597 62.006ZM29.4545 42.2354C29.2277 42.7521 28.993 43.3966 29.0383 43.4287C29.0263 43.4366 29.0081 43.459 28.9834 43.4982C28.9582 43.5389 28.7667 44.1076 28.6568 44.3425C27.9924 45.7662 30.764 38.6824 29.3237 42.8515C29.3668 42.6473 29.4104 42.4419 29.4545 42.2354ZM38.8257 17.9683C39.0028 17.6899 39.2411 16.8393 39.1354 17.0429C39.0631 17.1821 38.6497 18.2426 38.8257 17.9683ZM34.4568 29.4147C34.5021 29.3297 34.7723 28.5024 34.7485 28.4681C34.5343 28.9219 34.2499 29.7997 34.4568 29.4147ZM39.773 15.7119C39.8544 15.5269 39.8464 15.252 39.8338 15.2722C39.726 15.446 39.5967 16.0079 39.773 15.7119ZM48.4354 59.1125C48.5956 58.8376 48.9536 57.9285 48.9854 57.7094C49.0147 57.6807 49.0774 57.5934 49.1825 57.4296C49.1823 57.4301 49.182 57.4306 49.1817 57.4311C49.3422 57.1762 52.7597 50.4177 50.3677 54.9046C50.292 55.0454 50.4465 54.8781 50.143 55.4559C50.1227 55.4942 50.0673 55.4905 50.0051 55.6084C49.8629 55.8773 49.0915 57.3378 48.9794 57.6613C48.9696 57.6596 48.9519 57.675 48.9242 57.7124C48.6738 58.045 48.3111 59.317 48.4354 59.1125ZM33.8436 31.029C33.9244 30.8723 34.1074 30.3483 34.086 30.2785C33.9663 30.5271 33.6558 31.3926 33.8436 31.029ZM43.6965 10.2819C43.4475 10.5223 42.9362 11.2573 43.1356 11.0719C43.2574 10.9562 43.9837 10.0019 43.6965 10.2819ZM35.8216 25.8372C35.0358 27.7257 35.6501 26.2938 35.5991 26.6098C35.6735 26.3517 35.7471 26.0956 35.8216 25.8372ZM56.7448 62.8327C56.4497 62.9771 56.7235 62.6783 57.0765 62.5651C57.1873 62.5299 56.9083 62.7526 56.7448 62.8327ZM69.5385 55.8887C69.2644 55.8816 70.3971 55.4579 69.9999 55.7177C69.9841 55.726 69.5552 55.8846 69.5385 55.8887ZM60.5988 60.6033C60.4435 60.7795 60.322 60.8575 59.7659 61.1432C60.5641 60.6757 59.78 61.0303 60.5988 60.6033ZM29.0484 43.426C29.0442 43.4283 29.0409 43.4303 29.0383 43.4287C29.0425 43.4259 29.0457 43.4253 29.0484 43.426ZM40.4395 13.9106C40.5926 13.6969 40.8458 13.0184 40.7063 13.1958C40.6946 13.209 40.4283 13.8016 40.4395 13.9106ZM48.9854 57.7094C48.9594 57.735 48.9602 57.7159 48.9794 57.6613C48.9886 57.6628 48.9895 57.6799 48.9854 57.7094ZM39.1141 17.5256C39.0781 17.4806 38.6647 18.5033 38.6565 18.5408C38.513 19.1551 38.9551 17.9487 39.1141 17.5256ZM39.2082 15.8211C39.1792 15.8674 39.4972 15.6648 39.5923 15.4592C39.6658 15.3 39.3193 15.644 39.2082 15.8211ZM62.4352 59.5511C62.7369 59.3847 63.1621 59.1505 63.2705 59.1607C63.0631 59.264 62.4506 59.5937 62.4352 59.5511ZM69.059 56.0212C68.7488 56.2472 67.9529 56.6479 67.429 56.9096C67.3792 56.8258 68.7517 56.1859 69.059 56.0212ZM47.9851 60.0202C48.0019 59.9819 48.4138 59.146 48.3031 59.2387C48.1403 59.3598 47.8446 60.2534 47.9851 60.0202ZM40.2838 14.5421C40.4868 14.2105 39.8351 14.8292 39.6699 15.2127C39.5864 15.4069 40.2443 14.604 40.2838 14.5421ZM41.3164 11.8523C41.4638 11.3605 40.9576 12.5106 40.9526 12.7093C41.0438 12.4846 41.2665 12.0204 41.3164 11.8523ZM35.1355 28.1332C35.8942 26.6976 35.2531 27.3916 35.1788 27.6691C35.1684 27.7082 35.1172 28.1683 35.1355 28.1332ZM9.5646 56.7785C9.4531 56.982 10.028 56.3359 10.039 56.2109C10.048 56.1296 9.63476 56.6501 9.5646 56.7785ZM26.2901 50.7961C26.3142 50.7307 26.3388 50.664 26.3609 50.6041C26.3468 50.6501 26.3238 50.7137 26.2901 50.7961ZM43.1815 7.60464C42.5402 8.56557 42.7711 8.53534 42.7365 8.62626C42.6656 8.80887 42.4152 9.27107 42.2921 9.63291C42.4201 9.20567 42.555 8.75802 42.6869 8.31546C42.5868 8.54852 41.9847 10.011 41.6222 10.9226C41.4673 11.3122 41.3537 11.6116 41.3591 11.6352C41.3777 11.7191 41.5761 11.1963 41.6721 10.9415C41.7051 10.8537 41.7279 10.7932 41.7316 10.787C41.754 10.7499 41.9714 10.664 42.0099 10.5805C42.0694 10.457 43.0019 7.97756 43.1815 7.60464ZM36.3228 24.9732C36.2104 25.2073 36.1199 25.2516 36.0918 25.37C36.0822 25.4103 36.1408 25.44 36.106 25.5772C36.1785 25.3754 36.2507 25.174 36.3228 24.9732ZM43.6287 5.64743C43.8098 5.37643 43.3128 6.68825 43.2845 6.734C43.1497 6.94878 43.4889 5.85492 43.6287 5.64743ZM39.3626 17.0398C39.3877 16.9875 39.8052 15.9678 39.76 15.9616C39.6277 16.213 39.0832 17.6055 39.3626 17.0398ZM36.0477 25.7408C35.8997 26.1034 35.5749 26.7623 35.6967 26.7199C35.6969 26.7194 35.6971 26.7189 35.6973 26.7183C35.8145 26.3915 35.9298 26.0696 36.0477 25.7408ZM40.9293 13.3802C40.3689 13.8398 40.731 13.6984 41.1605 13.2353C41.2268 13.0378 41.017 13.3099 40.9293 13.3802ZM39.4322 15.1102C39.2849 15.2519 38.0655 16.8949 38.3201 16.6996C38.412 16.627 39.07 15.6458 39.1079 15.6069C39.164 15.548 39.0112 15.8966 39.3742 15.3957C39.3261 15.4071 39.4824 15.0607 39.4322 15.1102ZM40.4857 13.7826C39.9564 14.2657 40.0326 14.5267 40.3594 14.1085C40.4835 13.9502 40.5635 13.7112 40.4857 13.7826ZM42.299 11.5301C42.1269 11.7096 41.68 12.2177 41.4405 12.6374C41.843 12.1407 42.2267 11.6725 42.6318 11.1836C42.6452 11.1015 42.4553 11.3655 42.2979 11.5314C42.2983 11.531 42.2986 11.5305 42.299 11.5301ZM72.1639 54.4161C71.7502 54.3732 72.6986 54.31 72.763 54.3479C72.8862 54.4034 72.3365 54.427 72.1639 54.4161ZM5.36588 59.2557C5.25372 59.3713 5.12644 59.4097 4.96178 59.717C5.21151 59.4682 5.46482 59.2144 5.71915 58.9591C5.76229 58.6584 5.48981 59.1278 5.36588 59.2557ZM4.18163 60.0557C4.20731 60.0135 3.87779 60.1112 4.36421 59.6689C4.69477 59.3672 3.41209 61.3448 3.08831 61.6399C3.32478 61.229 3.95472 60.4242 4.18163 60.0557ZM1.05458 62.8872C1.02706 62.8968 1.52027 62.1551 1.58852 62.0792C1.95007 61.6764 1.22104 62.809 1.05458 62.8872ZM2.73231 60.5817C2.45505 60.9027 2.97067 60.1265 3.14684 59.9183C3.19244 59.9224 2.78029 60.5242 2.73231 60.5817ZM66.1488 53.4007C65.6747 53.4826 65.4527 53.9501 66.0501 53.5686C66.0777 53.551 66.17 53.3977 66.1488 53.4007ZM1.38243 62.0508C1.65328 61.7388 1.15553 62.49 0.966429 62.7166C0.921492 62.7116 1.34184 62.0978 1.38243 62.0508ZM65.703 53.2435C65.1123 53.4342 65.4671 53.6435 65.5399 53.621C65.8412 53.5236 66.74 52.9101 66.9277 52.7821C65.4992 53.5594 65.9828 53.1567 65.703 53.2435ZM63.3304 54.7461C62.8565 55.0454 64.149 54.4255 64.3457 54.211C64.0997 54.3478 63.4671 54.6594 63.3304 54.7461ZM60.2984 56.2806C60.0296 56.4147 59.233 56.8211 59.1288 56.9417C59.4105 56.7743 60.2151 56.3911 60.2984 56.2806ZM59.6236 56.4655C59.1765 56.6275 59.1833 56.8723 59.6257 56.5535C59.6429 56.5412 59.6406 56.4608 59.6236 56.4655ZM57.2783 57.6743C56.9683 57.7471 56.7616 58.1022 57.2015 57.8652C57.331 57.795 57.3116 57.6672 57.2783 57.6743ZM64.8512 53.266C64.4377 53.4429 64.0034 53.8454 64.8515 53.4132C64.5648 53.5911 64.2843 53.767 63.9992 53.9463C64.7682 53.5987 64.9393 53.4226 65.0636 53.2965C65.1261 53.2348 65.1787 53.1845 65.2825 53.1333C65.7349 52.9107 65.7782 53.0839 65.7144 53.1778C66.0267 52.8953 67.5944 52.0845 68.6037 51.6559C67.6923 51.9773 66.3479 52.566 65.5554 52.9481C65.3642 53.0399 65.2051 53.1587 65.0412 53.254C65.0088 53.2729 64.9764 53.2907 64.9439 53.3069C64.6383 53.4586 64.8745 53.2565 64.8527 53.2652C64.8522 53.2655 64.8517 53.2658 64.8512 53.266ZM54.2504 59.3393C53.4154 59.6831 54.0124 59.599 54.4415 59.3212C54.4589 59.3084 54.2711 59.3307 54.2504 59.3393ZM0.165319 62.66C0.942268 61.7129 0.520945 62.5126 1.83669 60.341C1.32824 61.2793 1.87611 60.4422 1.79848 60.6402C1.73462 60.8003 1.35552 61.2795 1.6264 61.0362C1.27634 61.3791 0.101241 63.0857 0.0449308 63.1407C0.0454159 63.14 0.0459009 63.1393 0.046386 63.1386C0.00888204 63.1771 -0.0782031 62.9562 0.165319 62.66ZM60.0272 55.7984C59.6389 55.7197 59.7318 56.1337 59.1093 56.235C58.5665 56.8881 61.0218 55.1775 61.4646 55.2339C58.6162 56.7664 63.4631 54.4308 61.2955 55.1761C62.9972 54.4048 61.8076 54.8401 62.0359 54.6582C62.2805 54.4634 63.234 54.0109 63.1436 53.9516C63.1431 53.9519 63.1426 53.9521 63.1421 53.9524C62.5763 54.2664 62.0131 54.5817 61.4513 54.8976C62.1038 54.7749 60.9188 55.3544 60.4476 55.4227C60.3078 55.5477 60.1674 55.6731 60.0272 55.7984ZM63.3194 54.2156C63.259 54.242 62.0412 54.9385 62.1417 54.9314C62.3172 54.8637 64.054 53.8863 63.3194 54.2156ZM69.0205 51.3551C68.4848 51.5534 67.7116 51.8599 67.4856 52.0537C67.9611 51.8268 68.7552 51.5338 69.0205 51.3551ZM52.414 60.6743C52.6178 60.0898 51.802 61.791 52.1006 61.3292C52.112 61.309 52.402 60.7037 52.414 60.6743ZM58.7728 56.5365C58.1661 56.7828 58.5557 56.8524 58.9455 56.5622C58.9681 56.5454 58.8007 56.5251 58.7728 56.5365ZM0.706965 61.8402C0.678956 61.7738 1.72551 60.3662 1.90735 60.1079C1.84885 60.2892 0.732547 61.9255 0.706965 61.8402ZM69.9334 50.8079C68.6625 50.9403 67.4601 51.8131 67.3202 51.8691C67.1761 51.931 67.3573 51.739 67.3238 51.752C67.2368 51.7783 65.7736 52.5156 65.7155 52.5589C65.668 52.5893 65.9905 52.5752 65.7123 52.7664C66.2171 52.3865 69.0232 51.1394 69.2573 51.102C69.3897 51.0502 68.3455 51.2371 69.9313 50.8085C69.932 50.8083 69.9327 50.8081 69.9334 50.8079ZM66.954 52.0117C67.3492 51.8822 66.3142 52.3944 66.0655 52.5016C65.4951 52.7383 66.8976 52.0252 66.954 52.0117ZM64.5057 53.2078C64.3876 53.255 63.3704 53.7878 63.3156 53.89C63.8291 53.7042 64.7749 53.098 64.5057 53.2078ZM53.4248 59.2973C53.1708 59.445 52.4459 59.7799 52.4304 59.8501C52.6832 59.7066 53.4125 59.367 53.4248 59.2973ZM3.76447 56.6787C3.44276 57.0539 4.08805 56.1084 4.29472 55.8545C4.33852 55.8562 3.7904 56.6488 3.76447 56.6787ZM58.4211 56.1289C58.2582 56.2 55.1702 57.9584 54.7475 58.218C55.193 58.0228 58.2755 56.3191 58.4076 56.2226C58.4456 56.1946 58.4419 56.1204 58.4211 56.1289ZM65.2284 52.398C65.4848 52.1733 65.731 52.157 65.767 52.1399C66.1421 51.9597 66.9295 51.5549 66.7904 51.7102C66.0902 52.0094 64.7105 52.8504 65.2284 52.398ZM53.0297 59.0939C51.9952 59.6878 54.0525 58.6708 53.7473 58.7386C53.7272 58.744 53.1384 59.0317 53.0297 59.0939ZM58.758 55.9154C58.9572 55.7285 62.1144 54.0525 62.6258 53.7792C62.2294 54.1323 61.8209 54.2506 61.2179 54.5885C61.0545 54.6803 61.1233 54.6999 61.1056 54.7098C60.8244 54.8669 61.0078 54.6998 60.833 54.7949C60.7212 54.8547 58.4731 56.1782 58.758 55.9154ZM65.3714 52.2605C65.5148 52.1207 67.6214 51.0651 67.7469 51.045C68.4273 50.8184 65.5014 52.1826 65.3714 52.2605ZM58.4199 55.9797C58.6863 55.6712 60.284 54.8959 59.2558 55.5442C59.1577 55.6057 58.6989 55.7898 58.4199 55.9797ZM53.0793 58.9147C53.0208 58.943 51.9227 59.5012 51.9216 59.5509C52.0848 59.4871 53.6866 58.6376 53.0793 58.9147ZM53.5733 58.4737C53.5477 58.4889 53.8449 58.4251 53.3271 58.6948C53.2831 58.7173 53.1575 58.6766 52.5301 59.0553C52.4034 59.1319 52.232 59.2965 52.248 59.2924C52.9878 59.0719 54.8778 57.7029 53.5733 58.4737ZM65.3725 52.1716C65.2427 52.1927 65.4549 51.9458 65.7237 51.878C65.8397 51.849 65.6797 52.0113 65.3725 52.1716ZM49.8142 60.5299C49.9075 60.4741 49.9001 60.4605 49.8311 60.4758C49.7787 60.4881 49.6048 60.5271 49.7419 60.4887C49.7859 60.4798 49.8591 60.4637 50.0155 60.4595C50.1805 60.461 50.45 60.4528 50.9054 60.6342C51.356 60.7962 51.9275 61.3182 52.1309 61.7608C52.3483 62.1932 52.367 62.4713 52.3833 62.6296C52.3997 62.9515 52.3718 62.9787 52.369 63.0168C52.3631 63.0426 52.3621 63.0361 52.3599 63.0357C52.3482 63.0238 52.3376 63.0762 52.3463 62.8968C52.3368 62.7974 52.3943 62.6287 52.2091 62.0672C52.113 61.793 51.8811 61.3789 51.5126 61.0719C51.1423 60.756 50.7386 60.6173 50.491 60.5665C49.9743 60.4735 49.8453 60.5421 49.7697 60.5472C49.6989 60.5626 49.7023 60.5665 49.7133 60.564C49.7411 60.5585 49.8085 60.5342 49.8142 60.5299ZM3.96329 55.4129C3.96296 55.4134 3.96262 55.4139 3.96229 55.4143C4.33022 54.923 4.16083 55.2686 4.17889 55.2464C5.01413 54.2213 4.69808 54.4279 4.80284 54.2515C5.02677 53.8737 5.12228 54.0307 5.49713 53.38C4.86892 54.4465 5.48141 53.506 5.55114 53.5114C5.82819 53.5439 4.51502 54.7771 4.20074 55.3105C4.15706 55.3846 4.58494 54.915 4.47671 55.1065C4.12981 55.7217 2.54241 57.312 3.96329 55.4129ZM65.9056 51.7738C66.1125 51.5678 68.3029 50.6365 67.7556 50.9549C67.6327 50.9974 65.5483 52.063 65.9056 51.7738ZM34.0262 45.5499C33.8965 46.0611 34.4015 44.9506 34.434 44.7311C34.4514 44.6187 34.0837 45.3239 34.0262 45.5499ZM37.3173 37.7461C37.5292 37.1619 37.5206 36.463 37.2816 37.1942C37.2567 37.2709 37.258 37.7997 37.3173 37.7461ZM35.0283 53.046C34.4491 53.3399 34.578 53.46 34.9646 53.1851C35.0998 53.089 35.0466 53.0367 35.0283 53.046ZM31.4541 52.5922C31.4804 52.5396 31.7339 51.8403 31.6884 51.8487C31.5654 52.1053 31.268 52.967 31.4541 52.5922ZM35.1812 52.9083C34.8858 53.1543 35.4993 52.875 35.8077 52.5082C35.6206 52.6525 35.2114 52.8832 35.1812 52.9083ZM57.0662 56.2939C56.8196 56.5114 56.0158 56.932 55.5668 57.1938C55.4737 57.1407 56.7476 56.4895 57.0662 56.2939ZM36.2746 40.1594C36.4259 39.5872 35.9231 40.7445 36.0447 40.6667C36.0546 40.6537 36.2687 40.1824 36.2746 40.1594ZM52.186 40.9989C51.8463 41.2841 53.0663 40.5824 52.6893 40.7117C52.6663 40.7213 52.209 40.9798 52.186 40.9989ZM61.2815 42.6518C61.3078 42.4951 61.3624 42.2581 61.3675 41.7406C61.3578 41.4719 61.3775 41.1402 61.1565 40.48C61.04 40.1563 60.8176 39.6799 60.3563 39.2317C59.8763 38.7544 59.1885 38.4545 58.6441 38.3778C57.9812 38.2816 57.585 38.3691 57.4497 38.3912C57.3231 38.4234 57.3521 38.408 57.8114 38.3831C57.8755 38.3834 58.1822 38.3554 58.6362 38.427C59.1792 38.5018 59.9159 38.8263 60.4035 39.3537C60.6284 39.588 60.8044 39.8501 60.925 40.0825C61.0339 40.2916 61.1091 40.4902 61.1634 40.6716C61.3441 41.3227 61.3149 41.6477 61.3186 41.9048C61.3044 42.3996 61.2631 42.6234 61.2815 42.6518ZM4.76978 54.1839C4.59226 54.2716 5.1927 53.4618 5.29181 53.3503C5.32996 53.3083 4.99908 54.072 4.76978 54.1839ZM31.5982 55.4221C31.3359 55.618 30.6153 56.0846 30.5169 56.2109C30.8482 55.9736 31.7424 55.4426 31.5982 55.4221ZM35.3149 42.6514C35.5917 42.2175 35.8975 41.3957 35.6948 41.5496C35.3564 42.4532 35.8483 41.4856 35.3149 42.6514ZM36.8732 51.5791C36.6517 51.7262 36.5561 51.951 36.5848 51.9382C36.8566 51.8166 37.1183 51.4669 36.8732 51.5791ZM29.1273 59.0268C29.184 59.0291 29.4425 58.2317 29.3731 58.3216C29.3467 58.3586 29.0814 59.022 29.1273 59.0268ZM52.776 62.7366C52.8568 62.5994 52.813 62.7722 52.7619 62.9514C52.6968 63.1291 52.7277 63.2744 52.7197 62.7618C52.695 62.6299 52.6913 62.8208 52.6693 62.9534C52.6483 63.0871 52.6292 63.1251 52.6402 63.0865C52.6585 63.0101 52.7686 62.7455 52.776 62.7366ZM42.9585 47.3035C42.9434 47.2143 41.8725 48.0299 42.3445 47.7781C42.4635 47.7144 42.9615 47.3348 42.9585 47.3035ZM53.7066 39.8405C53.3251 40.1333 53.9832 39.7659 54.6971 39.3802C55.3812 38.9979 56.3445 38.5666 55.6654 38.8075C55.4862 38.8508 53.7465 39.7903 53.7066 39.8405ZM60.7374 45.1843C60.8023 45.0223 61.037 45.1992 60.705 45.8215C60.6621 45.9017 60.7347 45.4793 60.6944 45.5432C60.6751 45.5862 60.1253 46.967 60.1054 47.0252C60.0859 47.0964 60.1988 47.0469 60.1813 47.1202C60.1638 47.1993 59.7666 48.0078 59.592 48.4375C59.2645 49.2474 59.2962 49.3563 59.2688 49.4252C59.1921 49.6135 59.0102 49.9191 58.8494 50.3051C58.6315 50.8284 58.3837 51.4278 58.1217 52.0513C57.3666 53.8451 56.4474 55.6904 55.8028 56.7306C56.5214 55.4299 57.0942 54.1147 57.7026 52.7004C57.6799 52.9367 57.8826 52.416 58.0262 52.0106C58.1595 51.6321 58.245 51.3701 58.0526 52.0218C58.0453 52.0461 58.0376 52.0716 58.0294 52.0983C58.0369 52.0779 58.0464 52.053 58.0576 52.024C58.4246 51.1302 60.567 45.7714 60.7368 45.1861C60.737 45.1855 60.7372 45.1849 60.7374 45.1843ZM38.2687 35.494C38.2189 35.8827 38.9023 34.0539 38.861 33.8606C38.7543 34.0954 38.2758 35.4463 38.2687 35.494ZM35.2441 43.9734C35.195 44.1459 35.2998 44.382 34.8756 45.2274C34.8753 45.2282 34.875 45.229 34.8747 45.2298C34.7502 45.4782 34.8218 45.1678 34.7888 45.2096C34.7768 45.2225 34.3781 46.0069 34.6248 45.3242C34.9956 44.2969 34.7884 45.2773 34.9993 44.734C35.0248 44.668 35.3314 43.5956 35.2872 43.6501C35.2823 43.6556 35.1832 43.9716 35.1552 44.0192C35.0482 44.203 35.0316 44.087 35.0185 44.1137C34.976 44.2044 34.4392 45.872 34.2692 46.0782C34.2123 46.1491 35.1879 43.4356 35.2394 43.3421C35.2732 43.2792 35.4102 43.364 35.4511 43.301C35.4724 43.2673 35.8319 42.1684 35.8995 42.0336C35.9191 41.9944 35.9353 41.9649 35.9476 41.9433C35.8388 42.0895 36.2197 41.1107 36.259 41.1624C36.2733 41.186 36.002 41.855 35.989 41.8783C35.9834 41.8883 35.9778 41.8967 35.973 41.9047C36.0821 41.7875 35.2031 44.0632 35.4754 43.6033C35.2683 44.2771 35.3892 43.4641 35.2441 43.9734ZM34.1155 47.1835C34.126 47.1096 34.1366 47.0355 34.1472 46.9612C33.7428 48.1293 33.1589 49.4298 32.6517 50.7624C32.5237 51.0982 32.7671 50.7455 32.5705 51.1835C32.413 51.5344 32.18 51.8817 32.2318 51.6861C32.2416 51.6453 32.5802 50.9285 32.7079 50.576C33.0979 49.5012 32.9143 49.7379 32.9356 49.6755C32.9578 49.6103 33.273 48.9575 33.4111 48.5893C33.7553 47.6704 33.8683 47.2256 34.4167 45.9927C34.194 46.7333 34.461 46.3869 34.1155 47.1835ZM47.478 43.8178C47.4839 43.7464 48.1835 43.3187 48.4245 43.1423C48.4134 43.2168 47.713 43.6436 47.478 43.8178ZM25.7031 24.1744C25.6307 24.4268 26.7484 22.9304 26.3979 23.2841C26.3214 23.3605 25.8441 23.9815 25.7031 24.1744ZM30.7327 17.4222C30.8612 17.2076 30.2116 17.9721 30.2666 18.0156C30.2866 18.026 30.7176 17.4478 30.7327 17.4222ZM28.6685 61.7966C28.6669 61.8076 28.6323 61.9318 28.6195 61.9744C28.6049 62.0385 28.6178 61.8887 28.6143 61.8615C28.5939 61.6753 28.5803 61.8281 28.5642 61.9265C28.5467 62.024 28.5493 61.9697 28.5786 61.8694C28.6401 61.6537 28.735 61.4267 28.6685 61.7966ZM36.8977 9.17765C36.3949 9.90405 38.075 7.83779 37.507 8.42872C37.4782 8.45792 36.9196 9.14473 36.8977 9.17765ZM39.231 6.27573C39.0926 6.44512 38.469 7.15648 38.4825 7.1846C38.5051 7.22564 39.215 6.41188 39.231 6.27573ZM36.8235 51.1966C36.6828 51.1718 37.7225 50.5301 38.061 50.2743C38.202 50.2992 37.1632 50.9408 36.8235 51.1966ZM30.508 55.5212C34.6496 52.5571 33.8469 53.386 30.2853 55.7333C30.2433 55.6829 30.2458 55.7065 30.508 55.5212ZM35.8793 51.7871C35.7628 51.9491 35.2794 52.2666 34.9517 52.491C34.9849 52.4123 35.6522 51.9619 35.8793 51.7871ZM24.2813 25.8948C24.3998 25.5908 25.332 24.4796 25.2075 24.709C25.1804 24.7582 24.2453 26.0213 24.2813 25.8948ZM28.7116 62.0001C28.7395 61.9926 28.7493 62.0457 28.7679 61.9738C28.7748 61.9263 28.7976 61.8589 28.7782 61.556C28.7666 61.411 28.7367 61.1728 28.6384 60.8765C28.5423 60.5717 28.3441 60.2193 28.2097 60.043C28.0147 59.7311 27.3165 59.1197 26.7099 58.9422C26.1062 58.743 25.7565 58.7751 25.5616 58.783C25.1803 58.8204 25.1788 58.8535 25.1472 58.8611C25.0918 58.9042 25.0818 58.9148 25.23 58.8852C25.3275 58.8762 25.4593 58.8108 26.0163 58.8546C26.2967 58.8834 26.7293 58.9725 27.1862 59.2291C27.6447 59.4797 28.0029 59.8667 28.1556 60.0825C28.4211 60.3989 28.6889 61.15 28.7025 61.4306C28.7421 61.7455 28.7246 61.861 28.7232 61.9225C28.7136 62.0402 28.7153 61.9983 28.7116 62.0001ZM42.7338 46.899C42.9126 46.6774 43.5704 46.2603 43.9785 45.9732C43.831 46.1585 43.0808 46.6547 42.7338 46.899ZM39.7595 48.9344C39.7832 48.9139 40.3548 48.5168 40.3821 48.5018C40.8906 48.2337 39.2748 49.3567 39.7595 48.9344ZM2.86221 55.6819C2.87285 55.6625 3.18674 55.2271 3.19694 55.2178C3.52997 54.8755 2.59993 56.1646 2.86221 55.6819Z" fill="black"/>
</svg>
