<svg width="30" height="54" viewBox="0 0 30 54" fill="none" xmlns="http://www.w3.org/2000/svg">
<path d="M0 1.29214C0 0.579044 0.578069 0.000957554 1.29117 0.000934105L28.4066 4.24606e-05C29.1197 1.90105e-05 29.6979 0.578121 29.6979 1.29125V52.644C29.6979 53.3571 29.1198 53.9352 28.4066 53.9352H1.29121C0.578095 53.9352 0 53.3571 0 52.644V1.29214Z" fill="#FF9D9E"/>
<path d="M0.000244141 8.08459C0.000244141 7.37148 0.578328 6.79339 1.29144 6.79338L28.4069 6.79299C29.12 6.79298 29.6981 7.37108 29.6981 8.0842V52.6431C29.6981 53.3563 29.12 53.9344 28.4069 53.9344H1.29145C0.578339 53.9344 0.000244141 53.3563 0.000244141 52.6431V8.08459Z" fill="black"/>
</svg>
