<svg width="298" height="134" viewBox="0 0 298 134" fill="none" xmlns="http://www.w3.org/2000/svg">
<path d="M264.197 23.5802C278.945 32.8334 286.618 45.1491 294.938 63.6101C295.045 63.8502 295.148 64.0907 295.248 64.3317C299.924 77.2782 295.139 84.0367 292.914 91.246C290.677 96.7344 286.45 101.06 280.609 108.163C280.462 108.339 280.3 108.518 280.134 108.689C268.32 117.593 254.744 120.211 244.253 124.184C236.377 127.062 229.25 126.865 224.857 127.223C220.222 127.488 217.416 127.445 214.432 127.388C210.643 127.307 206.586 127.18 198.14 127.345C183.137 127.611 174.027 127.464 160.904 126.955C156.056 126.754 147.505 126.47 137.914 125.87C121.513 125.02 102.193 122.007 93.2035 119.711C91.2778 119.27 89.3286 118.776 87.3763 118.243C77.0187 115.45 66.6024 111.384 58.6877 108.429C56.9464 107.789 55.318 107.216 53.8373 106.724C50.8714 105.737 48.511 105.03 46.714 104.438C45.9527 104.188 45.6144 104.03 45.6281 103.983C45.6282 103.983 45.6282 103.983 45.6282 103.983C45.6472 103.924 46.2113 104.035 47.1998 104.317C50.2476 105.17 54.265 106.289 58.9007 107.814C61.5697 108.686 64.456 109.658 67.5195 110.644C76.8473 113.633 81.2047 115.046 87.7379 116.953C92.1665 118.208 97.5877 119.725 106.396 121.217C118.292 123.161 127.708 123.748 138.006 124.274C146.607 124.679 155.84 124.96 167.725 125.265C187.423 125.702 195.691 125.04 214.381 124.712C220.423 124.492 227.727 124.821 236.423 123.703C238.962 123.312 241.273 122.644 243.477 121.918C260.316 116.098 270.31 113.424 278.441 106.327C281.845 101.828 286.85 96.8762 289.724 90.2151C290.677 87.1583 291.864 84.0311 292.628 80.562C293.793 75.5095 293.579 70.1427 291.308 65.2586C283.761 48.0319 273.199 28.5393 256.826 23.6726C244.999 20.2442 234.36 18.0689 226.692 16.6828C220.18 15.5118 213.004 14.3785 205.25 13.3043C187.139 10.8086 166.072 8.53257 144.192 6.5126C134.67 5.64113 124.471 4.85321 113.9 4.26946C96.7802 3.48789 78.5242 2.13081 61.3149 4.60107C54.1949 5.76976 47.1566 6.8888 40.6002 8.82182C34.7303 10.5494 28.6352 13.3401 24.1362 18.3286C14.6717 29.0283 3.00963 41.1547 2.33084 55.367C1.27948 69.2071 4.96494 82.1876 12.8504 87.9756C14.2663 89.1779 15.624 90.2732 16.8975 91.2526C30.7435 101.384 37.6825 104.151 48.67 109.232C52.1362 110.758 56.0527 112.43 60.8325 114.426C70.4251 118.437 83.0488 123.69 94.6911 128.691C97.0734 129.717 99.4123 130.734 101.668 131.735C108.346 134.775 106.747 134.267 99.9066 131.519C98.014 130.763 96.1985 130.034 94.4312 129.321C86.9057 126.292 80.7193 123.716 76.4713 122.191C65.9996 118.412 61.5365 116.831 48.7864 110.898C48.5458 110.785 48.3096 110.674 48.0775 110.565C35.8368 104.758 29.7845 102.207 22.913 97.8456C19.1952 95.3673 17.5064 94.2022 11.6949 89.365C6.71583 85.5308 -1.02852 75.4627 0.113494 55.999C0.115725 55.773 0.11824 55.5476 0.12097 55.3229C1.90724 35.8954 14.7916 25.5513 22.0016 16.4062C33.3858 4.64569 46.0127 4.45721 54.2888 2.43417C56.2085 2.08283 58.3879 1.71336 60.7789 1.32456C74.5502 -0.954681 95.0283 0.180726 114.073 1.23221C119.105 1.52162 124.076 1.84879 128.777 2.16963C147.78 3.42755 181.219 6.6658 205.704 10.0975C214.301 11.2887 221.765 12.4985 227.166 13.4272C244.715 16.5681 247.387 17.7108 257.649 20.7417C259.625 21.3475 261.805 22.227 264.197 23.5802Z" fill="#9DD8FF"/>
</svg>
