<svg width="60" height="81" viewBox="0 0 60 81" fill="none" xmlns="http://www.w3.org/2000/svg">
<path d="M18.9492 76.444C19.5971 76.8071 20.5129 76.9521 21.4568 77.1379C23.6389 77.5946 24.4185 76.7268 25.6099 74.8632C26.1152 74.0512 26.6507 73.2006 27.2511 72.2876C29.9134 67.9906 30.834 67.5171 32.7311 61.8785C33.0469 60.8804 33.3559 59.8858 33.6781 58.8854C33.8404 58.3842 34.0021 57.8908 34.1875 57.3813C34.2833 57.1203 34.3778 56.8719 34.5034 56.5882C34.6505 56.3035 34.688 56.0544 35.1893 55.5213C35.6826 55.1287 35.8379 54.7609 37.0276 54.4595C37.3729 54.3999 37.8971 54.4634 38.2849 54.7516C38.4761 54.8875 38.6255 55.0592 38.7264 55.2144C38.8109 55.344 38.8718 55.4715 38.9187 55.5938C39.0166 55.8581 39.0396 56.0168 39.0648 56.1899C39.0877 56.3624 39.0954 56.5282 39.0969 56.6539C39.0883 57.7417 38.8933 58.5245 38.7303 59.3004C38.39 60.7938 38.0393 61.997 37.8597 62.883C37.2757 65.5795 36.4674 65.6103 35.2623 69.282C34.1113 72.5577 33.298 74.5952 31.5073 77.1041C31.4335 77.2108 31.1919 77.3785 31.0688 77.4195C30.741 77.497 30.3976 77.5744 30.0484 77.6487C26.7418 78.4998 16.5714 80.1866 12.8085 80.6516C11.8182 80.8094 10.778 80.8894 9.73676 80.8778C9.73248 80.8779 9.71962 80.8775 9.71533 80.8775C6.84707 80.751 4.06378 80.2259 2.18461 80.0018C1.38954 79.9054 0.766209 79.8056 0.289225 79.7144C0.0873419 79.6758 -0.00337257 79.6189 0.000164813 79.5696C0.000167142 79.5696 0.00016947 79.5696 0.000171799 79.5695C0.00473151 79.5082 0.155132 79.4584 0.417555 79.4697C1.69139 79.5232 3.59946 79.5665 5.85512 79.4814C7.591 79.414 8.6789 79.4405 9.75623 79.4912L9.73585 79.4909C11.2344 79.5022 12.7753 79.5471 16.0346 79.0241C21.3795 78.0808 24.5922 77.1053 30.5017 75.592L29.9551 75.9851C30.0492 75.8698 30.1866 75.6689 30.2957 75.5013C33.382 69.834 33.0579 67.8729 36.1847 59.2879C36.5028 58.2684 36.7314 57.2557 36.723 56.6373C36.729 56.4839 36.6641 56.3784 36.7582 56.5339C36.8127 56.6261 37.0269 56.7833 37.1998 56.8018C37.3836 56.8265 37.4299 56.79 37.4365 56.7904C37.4266 56.7901 37.3257 56.8408 37.199 56.9399C37.0998 57.0162 36.9801 57.1213 36.8475 57.2514C35.5344 60.6728 35.7669 64.0129 32.7126 70.5816C31.6669 72.7717 30.3393 75.0183 28.7792 77.1302C27.9599 78.2289 26.907 79.3785 25.3053 80.0468C23.6993 80.7513 21.8172 80.4451 20.708 80.0955C19.5287 79.7512 17.6004 79.4019 16.2544 78.1773C13.6659 75.9463 11.5495 73.774 10.0936 72.1694C6.53676 68.3245 1.77448 61.5426 2.92567 53.3239C3.00694 52.7215 3.10148 52.1175 3.20958 51.5125C4.2696 45.3726 6.59866 38.2626 10.5351 32.2551C11.77 30.3482 13.0573 28.4732 14.4342 26.7297C18.2937 21.5762 24.8092 16.0014 30.5648 13.2545C32.8426 12.0962 34.8487 11.0982 36.3534 10.3675C41.5737 7.84737 42.8329 7.23969 47.7393 4.59499C50.5718 3.09885 54.5556 1.17255 58.1966 0.167611C59.1094 -0.0695031 59.505 -0.015281 59.4088 0.0864723C59.3303 0.185723 58.7958 0.3919 57.9494 0.766175C55.449 1.88731 53.3891 2.78776 52.2193 3.63663C49.9091 5.35085 48.9274 6.07134 45.6061 7.41088C42.286 8.7616 41.1334 10.1944 39.2579 11.0979C37.653 11.881 37.2929 11.6815 31.516 14.9806C30.5521 15.5342 29.4553 16.2137 28.2269 17.0858C19.8721 23.2252 17.1363 28.4597 14.8868 31.668C14.4583 32.333 13.9255 33.1382 13.3225 34.0514C10.9198 37.5708 8.08763 43.2061 7.03619 48.1949C6.69716 49.7027 6.33022 51.6049 6.08932 53.7047C5.0008 60.0336 9.72015 67.3321 12.5229 69.9537C15.7752 73.1518 16.0284 73.679 18.1632 75.8399C18.3772 76.0582 18.6206 76.2618 18.9492 76.444Z" fill="#9DCCFF"/>
</svg>
