<svg width="357" height="32" viewBox="0 0 357 32" fill="none" xmlns="http://www.w3.org/2000/svg">
<path d="M164.507 4.70385C145.646 4.02475 130.224 4.53728 109.092 4.28468C106.045 4.24966 102.959 4.20254 99.7593 4.13885C75.2286 4.02501 69.5828 2.03687 45.2125 4.76587C45.053 4.82346 44.9008 4.89354 44.881 4.90837C44.8793 4.9091 44.8907 4.90477 44.9338 4.86825C44.9674 4.83569 45.067 4.76197 45.1734 4.54046C45.2959 4.34658 45.3013 3.80691 45.1833 3.61062C45.0767 3.37542 44.9699 3.29529 44.9357 3.26138C44.844 3.18635 44.8698 3.21591 44.9094 3.23174C44.9517 3.2517 45.0059 3.27446 45.0867 3.30416C45.218 3.35275 45.4185 3.41442 45.5841 3.45987C46.3265 3.66295 47.1675 3.82808 48.0373 3.98627C60.1679 5.93788 72.4949 7.23588 83.685 8.61219C99.555 10.4981 113.151 12.0599 120.957 12.7535C134.331 13.9335 135.61 14.8585 154.555 16.6574C173.495 18.4396 184.944 19.6846 201.473 21.5299C210.734 22.5595 230.739 24.5869 249.814 26.1698C264.87 27.4295 279.268 28.35 287.447 28.6718C305.476 29.4224 325.946 30.5699 338.751 30.1314C339.148 30.1189 339.52 30.1058 339.878 30.0918C341.876 30.012 343.628 29.9157 345.193 29.7572C345.971 29.6766 346.704 29.5818 347.361 29.4397C347.698 29.3653 348.016 29.2805 348.291 29.155C348.564 29.0329 348.79 28.8434 348.677 28.6202C348.472 28.2324 348.116 28.0103 347.948 27.8477C347.764 27.688 347.681 27.6009 347.695 27.5804C347.695 27.5804 347.695 27.5803 347.695 27.5803C347.713 27.5562 347.881 27.6319 348.174 27.82C348.321 27.917 348.502 28.0374 348.691 28.2285C348.784 28.3275 348.885 28.4389 348.939 28.6198C349.002 28.8038 348.909 29.0449 348.766 29.1684C346.096 30.475 342.659 30.3268 338.773 30.6381C333.844 30.9064 328.134 31.0465 321.878 31.0964C300.991 31.0642 298.735 30.5001 270.653 28.8951C263.039 28.4229 256.218 27.9702 249.705 27.5123C232.24 26.2706 216.729 25.0386 192.734 22.5045C159.798 18.9604 152.139 19.3844 105.706 13.6678C97.035 12.5873 89.6978 11.7031 83.4143 10.9714C75.0561 9.99698 68.3422 9.27132 61.9223 8.56422C58.6961 8.20632 55.6371 7.86859 52.3911 7.45833C50.7931 7.25467 49.1689 7.03892 47.5042 6.7654C46.6551 6.62237 45.8296 6.47978 44.9082 6.24958C44.7893 6.21918 44.6841 6.19127 44.5668 6.15792C44.4352 6.12013 44.3106 6.08185 44.1914 6.04206C43.9175 5.94197 43.6682 5.87861 43.2179 5.58205C43.0752 5.47637 42.9707 5.4093 42.7653 5.1584C42.6625 5.02687 42.5593 4.85956 42.4849 4.65252C42.41 4.45987 42.3555 4.12127 42.3948 3.84913C42.4835 3.25882 42.7297 2.99793 42.8999 2.80692C43.0453 2.65466 43.1954 2.54578 43.298 2.4776C43.7238 2.20908 43.9431 2.14075 44.2095 2.03228C53.9476 -0.283643 64.2606 0.209008 79.232 0.000632277C88.8416 -0.00549783 98.8495 0.120944 109.158 0.313396C148.678 1.08467 190.384 2.62638 212.683 3.15286C238.777 3.77811 273.188 4.60832 309.836 5.67432C312.683 5.75591 315.454 5.83596 318.227 5.91683C325.249 6.1221 332.537 6.30698 340.039 6.50126C343.785 6.60186 347.592 6.69273 351.457 6.84899C352.418 6.89088 353.389 6.93312 354.404 7.01611C354.514 7.02543 354.657 7.03831 354.799 7.05329C354.947 7.06907 355.038 7.07918 355.209 7.1034C355.298 7.11623 355.382 7.12994 355.466 7.14606C355.552 7.16449 355.615 7.17036 355.835 7.2396C355.935 7.27434 356.05 7.31336 356.227 7.41988C356.28 7.45702 356.283 7.44002 356.481 7.61224C356.638 7.75829 356.867 8.0235 356.957 8.45204C357.167 9.39587 356.363 10.0343 356.423 9.97332C356.202 10.1538 356.068 10.2042 355.955 10.2547C355.845 10.3006 355.745 10.3308 355.714 10.3403C354.969 10.5377 354.573 10.5634 354.043 10.6421C352.043 10.8998 350.137 11.0836 348.164 11.2913C319.416 14.4146 288.692 15.5976 260.189 15.7166C255.316 15.736 250.264 15.7335 244.983 15.7068C202.899 15.4858 150.928 13.7967 125.441 12.8897C96.7684 11.8444 89.7886 11.5598 62.1472 10.837C59.9549 10.7794 57.5384 10.7115 55.171 10.6419C40.2537 10.2092 21.8228 9.5084 5.99166 8.84995C-3.29296 8.52419 -1.18158 8.31458 8.16335 8.42225C21.8359 8.62524 33.0682 9.09262 40.1345 9.0346C46.0843 8.98794 50.615 8.95969 55.2226 9.00941C61.4327 9.07546 67.7267 9.28507 77.9764 9.78852C95.7653 10.6605 104.147 10.185 114.505 10.5662C124.86 10.9103 124.684 11.4827 177.386 12.3111C206.245 12.7138 228.003 12.817 244.979 12.7248C259.045 12.6462 269.891 12.4365 278.895 12.1881C293.943 11.7751 321.485 11.0435 347.854 8.24755C349.995 8.02761 352.147 7.83399 354.157 7.55392C354.27 7.53703 354.392 7.5179 354.513 7.4967C354.626 7.47679 354.721 7.45829 354.802 7.43848C354.828 7.43305 354.87 7.41733 354.805 7.44074C354.764 7.46012 354.688 7.47654 354.496 7.62303C354.436 7.67915 354.436 7.6443 354.233 7.89678C354.07 8.10307 353.883 8.56366 353.971 9.01883C354.053 9.47265 354.297 9.73703 354.442 9.86632C354.522 9.93666 354.579 9.97239 354.589 9.98005C354.611 9.99437 354.631 10.0068 354.649 10.0178C354.934 10.1709 354.922 10.1289 354.91 10.1343C354.897 10.1315 354.863 10.1248 354.814 10.1171C354.435 10.0592 353.858 10.0176 353.379 9.98643C352.336 9.92084 351.329 9.87913 350.269 9.8383C346.119 9.6861 341.991 9.59402 338.063 9.50757C330.25 9.34039 320.495 9.12399 309.754 8.85802C275.991 8.01393 232.986 6.79873 212.746 6.44347C186.087 5.97039 186.045 5.49333 164.507 4.70385Z" fill="#ADFF9D"/>
</svg>
