<svg width="87" height="118" viewBox="0 0 87 118" fill="none" xmlns="http://www.w3.org/2000/svg">
<path d="M24.7644 104.553C23.6416 104.863 22.5901 105.208 21.5756 105.577C18.007 106.662 14.6983 108.791 8.88906 106.944C8.69116 106.855 8.53045 106.781 8.38418 106.712C8.27642 106.662 8.18951 106.622 8.12286 106.591C8.09868 106.579 8.03765 106.552 8.00618 106.537C7.9903 106.53 7.97977 106.525 7.97833 106.524C7.97769 106.523 7.97935 106.523 7.98495 106.525C7.99354 106.528 8.00906 106.535 8.07091 106.554C8.10475 106.564 8.14527 106.577 8.25224 106.6C8.30831 106.61 8.37862 106.625 8.51861 106.635C8.66739 106.63 8.85517 106.693 9.41512 106.479C9.68545 106.366 10.1134 106.097 10.3803 105.587C10.6537 105.081 10.6345 104.512 10.5479 104.195C10.3548 103.549 10.1587 103.44 10.0615 103.313C9.85647 103.108 9.8002 103.087 9.74625 103.046C9.65315 102.985 9.6932 103.012 9.67043 102.998C9.52913 102.924 9.87999 103.111 9.97087 103.159C10.129 103.243 10.2814 103.323 10.4264 103.4C10.582 103.482 10.729 103.559 10.8644 103.632C11.4499 103.944 11.9444 104.217 12.4308 104.489C13.3841 105.025 14.2007 105.507 15.0477 105.994C16.7291 106.963 18.5413 107.946 21.8507 109.467C24.7713 110.865 27.4075 112.006 30.203 113.944C30.4291 114.149 30.6222 114.342 30.7902 114.534C30.9088 114.669 31.0195 114.809 31.1177 114.958C31.1699 115.039 31.2033 115.092 31.2661 115.213C31.3331 115.344 31.3938 115.49 31.4358 115.663C31.4746 115.853 31.5088 115.98 31.4633 116.321C31.4178 116.622 31.2584 116.93 31.0609 117.134C30.7135 117.485 30.4069 117.569 30.1577 117.637C29.7974 117.724 29.4335 117.723 29.2083 117.716C28.1826 117.669 27.3728 117.479 26.6415 117.328C25.158 117.001 23.9325 116.675 23.0305 116.497C19.8084 115.821 19.7161 114.987 15.2918 113.68C10.8782 112.34 8.28131 111.28 4.62409 109.567C3.87998 109.206 2.86508 108.783 1.5801 108.093C1.13952 107.825 0.629422 107.513 0.257525 106.888C-0.133655 106.244 -0.0216061 105.411 0.213848 104.852C0.221172 104.831 0.250034 104.774 0.261298 104.755C3.45228 100.462 8.30285 96.427 10.3082 94.2208C11.9769 92.4674 13.9641 90.797 15.8198 89.3304L15.81 89.3392C17.3724 88.0504 18.7716 86.8541 19.6793 85.78C20.2936 85.0618 20.751 84.4653 21.1156 84.0153C21.2698 83.8236 21.3728 83.7561 21.4147 83.7825C21.4147 83.7825 21.4147 83.7826 21.4147 83.7826C21.4659 83.8166 21.4219 83.9971 21.2549 84.2646C20.4736 85.5769 19.0999 87.4655 17.253 89.4691C17.0198 89.7284 16.8058 89.9608 16.5922 90.1862C16.5902 90.1879 16.5845 90.1932 16.5825 90.1949C13.6622 93.1725 12.6939 93.4594 8.22693 97.9187C5.51349 100.711 3.32425 103.015 1.64925 105.609L1.74215 105.418C1.6263 105.77 1.65814 105.931 1.707 105.999C1.75204 106.098 2.02696 106.344 2.42129 106.55C3.66143 107.161 5.40204 107.858 7.21621 108.636C14.5831 111.612 16.6748 111.48 27.1739 114.903C28.0469 115.143 28.9197 115.332 29.471 115.329C29.5839 115.35 29.6682 115.236 29.3633 115.47C29.1658 115.612 29.0722 116.088 29.1175 116.169C29.1425 116.305 29.1716 116.322 29.161 116.303C29.1605 116.284 29.0419 116.129 28.9717 116.054C28.886 115.96 28.773 115.848 28.6364 115.724C23.109 112.438 20.1504 112.19 11.7698 108.341C10.9518 107.971 10.1251 107.592 9.28569 107.2C8.89704 107.019 8.43827 106.804 8.00065 106.592C7.93365 106.559 7.91777 106.552 7.81859 106.502C7.76523 106.474 7.73368 106.46 7.62984 106.399C7.61569 106.391 7.59945 106.381 7.57898 106.368C7.57334 106.363 7.50265 106.325 7.36265 106.211C7.28534 106.138 7.18152 106.083 6.95548 105.75C6.85222 105.574 6.66764 105.301 6.64042 104.721C6.58457 104.144 7.02374 103.318 7.47451 103.046C7.91662 102.743 8.20954 102.717 8.39718 102.686C8.58718 102.664 8.69784 102.671 8.78436 102.677C8.95214 102.69 9.02419 102.709 9.08439 102.721C9.19692 102.748 9.23803 102.762 9.27648 102.775C9.34639 102.798 9.38376 102.813 9.37892 102.811C9.40072 102.819 9.4195 102.826 9.43789 102.834C9.50167 102.859 9.60942 102.904 9.65177 102.922C9.69917 102.943 9.7516 102.965 9.80991 102.99C10.0873 103.11 10.2163 103.168 10.4898 103.289C13.038 104.289 17.2612 103.641 20.675 102.667C26.396 101.08 31.4469 99.2417 34.5596 97.7844C38.5739 95.9292 43.3588 93.3409 48.2685 90.0545C50.798 88.3629 53.4334 86.6095 56.0762 84.7942C60.9053 81.4113 66.5153 77.2346 69.9902 71.8063C72.1401 68.3656 74.0323 64.7495 75.662 61.2034C78.709 54.7627 81.2571 45.8648 82.2919 38.6233C82.8039 35.2619 83.2218 32.3197 83.527 30.1555C84.4679 23.3034 84.6785 21.6292 84.9678 14.9752C85.1149 11.1602 85.4223 5.90671 85.5972 1.45774C85.6635 -0.792091 85.9173 -0.293751 86.0907 1.96444C86.317 5.27683 86.1224 7.98792 86.3367 9.70825C86.746 13.1405 86.8786 14.6059 86.254 18.8814C85.612 23.1501 86.1301 25.2252 85.803 27.7227C85.4949 29.9193 85.1951 30.1136 84.2833 38.8706C84.1564 40.0479 84.0017 41.3558 83.7898 42.8541C81.8741 55.6331 78.7018 62.2243 76.6731 66.6656C75.8327 68.4265 74.4699 70.894 72.7372 73.5401C69.9628 77.8074 65.5232 81.4513 61.7829 84.4318C58.918 86.725 54.511 89.7846 50.0741 92.7553C44.8013 96.3274 39.1263 99.2145 35.9492 100.764C30.0349 103.584 29.8067 103.088 24.7644 104.553Z" fill="#9DCCFF"/>
</svg>
