<svg width="29" height="34" viewBox="0 0 29 34" fill="none" xmlns="http://www.w3.org/2000/svg">
<path d="M15.4607 9.27162C15.9983 6.97642 15.4128 4.95751 15.6047 2.33034C15.6155 2.19337 15.6192 2.11798 15.626 2.01245C15.6281 1.98769 15.6276 1.89502 15.6232 2.03942C15.6231 2.06076 15.6233 2.08833 15.6254 2.12801C15.6261 2.14015 15.626 2.14137 15.6279 2.16698C15.6321 2.21742 15.6379 2.28242 15.6584 2.38762C15.6822 2.49451 15.7069 2.63806 15.8364 2.89981C15.9635 3.13593 16.2559 3.64847 17.0337 3.89952C17.8283 4.14533 18.5308 3.80209 18.7846 3.60276C18.951 3.47717 18.9684 3.44937 19.0084 3.41278C19.0449 3.37685 19.0759 3.34365 19.103 3.31293C19.2104 3.19018 19.2635 3.10641 19.3044 3.04106C19.3822 2.91232 19.4066 2.85117 19.4272 2.80567C19.49 2.65028 19.4622 2.71501 19.4682 2.70251C19.4379 2.80801 19.3593 3.10226 19.2888 3.33894C18.3459 6.59056 17.668 6.98103 16.8069 10.8536C16.4798 12.0796 16.3694 13.0192 15.4873 14.5665C15.1813 14.976 14.856 15.3804 14.302 15.7634C14.0217 15.948 13.6556 16.1466 13.1424 16.1954C12.6296 16.2532 12.0532 16.0429 11.7299 15.7823C11.0936 15.252 10.9554 14.8618 10.7445 14.4978C10.557 14.1364 10.4158 13.8119 10.2857 13.5143C10.029 12.921 9.8217 12.4354 9.62082 12.098C9.60599 12.0729 9.59121 12.0485 9.5765 12.0249C9.4624 11.834 9.37927 11.7066 9.26677 11.401C9.24892 11.3471 9.23659 11.3154 9.21058 11.2057C9.1991 11.1493 9.1874 11.1136 9.17528 10.9685C9.1713 10.8976 9.16704 10.8293 9.18245 10.694C9.2076 10.5188 9.26178 10.2125 9.57049 9.891C9.92351 9.49764 10.5756 9.45015 10.7483 9.49955C10.928 9.52739 11.0416 9.57401 11.1283 9.61287C11.2992 9.69612 11.3112 9.71433 11.3735 9.75571C11.4747 9.82996 11.4961 9.8529 11.5423 9.89444C11.6714 10.0176 11.7256 10.0893 11.784 10.1642C11.9998 10.4521 12.1158 10.6995 12.2513 10.9713C12.5158 11.5102 12.8179 12.1219 13.6617 13.0348C13.7048 13.0814 13.7479 13.1284 13.791 13.1758C15.3884 14.9207 16.2375 16.1516 17.3562 17.9533C18.5083 19.8032 22.4643 25.1606 24.1977 26.8742C25.9351 28.5871 27.2118 31.0952 28.1293 32.4824C28.4161 32.9157 28.6218 33.2689 28.769 33.5504C28.8312 33.6696 28.8292 33.7486 28.7902 33.779C28.7901 33.779 28.7901 33.779 28.7901 33.779C28.7415 33.8167 28.6355 33.779 28.5251 33.6495C27.9904 33.0227 27.1547 32.1104 26.0841 31.1013C24.0862 29.2197 24.2664 28.7017 21.8361 25.9547C19.4022 23.2078 17.7043 21.7468 15.2397 18.2025C14.0589 16.5061 13.0897 15.6082 12.0458 14.5768C11.5971 14.1329 11.1376 13.6672 10.6374 13.1073C10.3899 12.8312 10.1268 12.523 9.86863 12.2198C9.80672 12.1474 9.73934 12.0694 9.69256 12.0168C9.66962 11.9903 9.64248 11.9642 9.67392 11.9905C9.68636 12.0005 9.69334 12.0071 9.73633 12.0384C9.80549 12.0759 9.76586 12.0982 10.1271 12.2307C10.236 12.2581 10.265 12.284 10.5461 12.2933C10.8082 12.3009 11.2216 12.1888 11.5027 11.9275C12.0081 11.4446 11.9633 10.9963 11.9789 10.9239C11.9817 10.6677 11.9541 10.6285 11.9472 10.5818C11.9111 10.4522 11.9248 10.5204 11.9349 10.5467C11.9466 10.5826 11.9648 10.6329 11.9845 10.6864C12.0241 10.7936 12.0703 10.9163 12.1171 11.0464C12.3204 11.6136 12.4873 12.1961 12.6808 12.7948C12.7698 13.0697 12.8632 13.3178 12.9561 13.5176C13.0413 13.7136 13.1641 13.8744 13.137 13.8644C13.1189 13.8508 12.922 13.8138 12.8806 13.8443C12.835 13.8658 12.9082 13.8488 12.9872 13.7854C13.1551 13.6587 13.3489 13.4177 13.4991 13.1747C14.1974 11.2203 13.961 9.16366 14.8283 5.03214C14.9629 4.37489 15.1103 3.69876 15.2735 3.00468C15.3555 2.6576 15.4387 2.31201 15.5405 1.92985C15.5611 1.85367 15.5984 1.71687 15.6275 1.62093C15.6505 1.54451 15.6729 1.47058 15.7108 1.36724C15.7297 1.31695 15.7543 1.24773 15.8118 1.12967C15.8425 1.06854 15.8801 0.993385 15.9616 0.872952C16.0034 0.812382 16.0564 0.739601 16.1414 0.646668C16.1924 0.593044 16.2072 0.572598 16.3255 0.470154C16.4917 0.3344 16.7545 0.135693 17.2268 0.0374147C17.6908 -0.0722197 18.3527 0.0664789 18.7289 0.343758C19.118 0.614395 19.2792 0.890766 19.379 1.07565C19.5624 1.45214 19.5625 1.60588 19.5863 1.72931C19.5943 1.78644 19.5991 1.84347 19.6008 1.86767C19.6015 1.87745 19.6021 1.88681 19.6026 1.89581C19.6036 1.91379 19.6044 1.93031 19.6049 1.94575C19.6069 2.00725 19.6063 2.05263 19.6053 2.09272C19.5785 2.55118 19.5522 2.61046 19.5192 2.85816C18.7634 7.79595 17.8627 13.0494 16.9642 16.0312C16.7899 16.622 16.5847 17.2546 16.2362 17.9497C15.87 18.6067 15.4318 19.5301 14.0813 20.0742C10.3497 21.0115 7.14088 20.6049 3.50091 20.4846C3.12307 20.4658 2.7347 20.451 2.36996 20.4496C2.19705 20.4483 1.98634 20.4557 1.9412 20.4609C1.95133 20.4531 1.91009 20.4854 2.16719 20.3931C2.24488 20.3447 2.26471 20.4077 2.64044 20.0765C2.8019 19.9188 3.0138 19.6122 3.06396 19.2152C3.09098 19.0247 3.07177 18.8119 3.03519 18.6675C3.00714 18.551 2.96784 18.4492 2.92585 18.363C2.74908 18.0199 2.58417 17.9111 2.48967 17.8341C2.37778 17.7543 2.37271 17.7579 2.34351 17.7404C2.17326 17.6579 2.28047 17.7136 2.34246 17.728C6.08701 18.8083 11.0491 20.3963 14.1802 20.8408C14.5929 20.821 14.8301 20.6967 14.9011 20.644C14.9078 20.6392 14.9143 20.6342 14.9207 20.6286C14.9343 20.641 15.0242 20.4797 15.082 20.2999C15.1128 20.2087 15.1415 20.1066 15.1653 20.0059C15.1772 19.9556 15.188 19.9046 15.1965 19.8615C15.2008 19.8397 15.2043 19.8203 15.2067 19.8119C15.2079 19.809 15.2086 19.8063 15.209 19.8258C15.2095 19.8359 15.2086 19.8483 15.2119 19.908C15.2131 19.9268 15.2148 19.9503 15.2187 19.9838C15.2257 20.0174 15.2156 20.0476 15.2796 20.2604C15.2974 20.3137 15.3212 20.3792 15.3663 20.4673C15.389 20.5114 15.4174 20.5613 15.456 20.618C15.4844 20.6573 15.4673 20.6402 15.55 20.7409C15.6171 20.8191 15.7067 20.908 15.8323 20.9936C16.0731 21.1704 16.5187 21.2922 16.8767 21.2194C17.2376 21.154 17.4546 20.9908 17.5833 20.8781C17.6488 20.8195 17.6961 20.7672 17.7339 20.7215C17.7598 20.6897 17.7616 20.6867 17.774 20.6703C17.7946 20.6428 17.8118 20.6179 17.8267 20.5951C17.9388 20.4161 17.9534 20.3487 17.9754 20.2931C18.0232 20.1239 17.9803 20.2562 17.9734 20.2903C17.9603 20.3412 17.9448 20.4098 17.931 20.4718C17.9016 20.6064 17.8732 20.7442 17.8453 20.8816C17.7888 21.1614 17.7319 21.4572 17.676 21.746C17.5632 22.3324 17.4494 22.9309 17.3307 23.5357C17.2116 24.1412 17.0894 24.7506 16.9514 25.3684C16.8811 25.6807 16.81 25.9877 16.7163 26.3241C16.663 26.4967 16.6412 26.6319 16.4889 26.9684C16.4581 27.0274 16.4606 27.0342 16.3741 27.1666C16.3347 27.2233 16.2846 27.2899 16.2005 27.3695C16.1582 27.4092 16.1068 27.452 16.0411 27.4951C15.9617 27.549 15.7892 27.6393 15.5949 27.6678C15.398 27.7011 15.1661 27.6713 14.9895 27.5951C14.9004 27.558 14.8239 27.5126 14.7603 27.4664C14.7179 27.4354 14.6881 27.41 14.6578 27.3822C14.5403 27.2722 14.479 27.1764 14.4344 27.099C14.3426 26.9269 14.3416 26.8889 14.3215 26.8309C14.2572 26.5926 14.2633 26.5401 14.2476 26.4087C13.9976 23.0441 13.8136 19.9096 13.7263 17.958C13.5622 14.2164 13.5231 13.3047 12.9952 9.74538C12.6917 7.6983 12.4684 4.8606 12.5062 2.43711C12.5243 1.21694 12.7728 1.46251 13.0144 2.66266C13.3663 4.41731 13.422 5.88388 13.792 6.76726C14.5308 8.5343 14.821 9.28738 14.7507 11.624C14.6802 13.9603 15.5133 14.968 15.5756 16.3178C15.6438 17.6656 15.1934 17.6986 16.3106 24.4648C16.4069 25.0385 16.5003 25.5926 16.59 26.1198C16.596 26.1518 16.6016 26.1709 16.6038 26.1711C16.605 26.1722 16.6049 26.1641 16.5989 26.1386C16.5845 26.0976 16.6082 26.1222 16.5212 25.942C16.4767 25.8614 16.4105 25.7418 16.2404 25.5927C16.2021 25.5519 15.9266 25.3524 15.65 25.3113C15.3618 25.2541 15.0578 25.3204 14.8705 25.4143C14.7674 25.4646 14.7156 25.5023 14.6798 25.5274C14.6407 25.5555 14.6075 25.5828 14.5786 25.6085C14.521 25.6599 14.4806 25.7049 14.4491 25.7431C14.3884 25.8168 14.3528 25.8792 14.3424 25.8965C14.2915 25.9873 14.2958 25.9876 14.2949 25.9805C14.3053 25.928 14.3412 25.7523 14.3642 25.6054C14.415 25.2937 14.4586 24.9616 14.4987 24.6387C14.5783 23.9917 14.6449 23.3677 14.7077 22.7765C14.7703 22.185 14.8284 21.6229 14.886 21.0913C14.9153 20.8222 14.9444 20.5605 14.9749 20.3059C14.9917 20.1692 15.0075 20.0427 15.026 19.9104C15.0352 19.8446 15.0468 19.7674 15.0586 19.6968C15.0796 19.5949 15.0702 19.5688 15.1529 19.3043C15.1816 19.2331 15.1966 19.1521 15.3426 18.929C15.3621 18.9005 15.3849 18.8692 15.4126 18.8347C15.4876 18.7444 15.6102 18.5967 15.8679 18.4489C16.114 18.3004 16.5906 18.1772 17.0252 18.2983C17.4607 18.4126 17.7212 18.6677 17.8559 18.8355C18.0934 19.153 18.1022 19.2806 18.1417 19.3908C18.1975 19.6095 18.1858 19.6144 18.1938 19.6628C18.198 19.7027 18.1999 19.7324 18.2012 19.758C18.2047 19.8323 18.2036 19.8728 18.2034 19.8997C18.2022 19.9624 18.2003 19.9973 18.1985 20.0321C18.1945 20.103 18.19 20.1569 18.1849 20.2127C18.1748 20.3206 18.1627 20.4193 18.1487 20.517C18.1207 20.7122 18.0857 20.8992 18.0403 21.09C17.9442 21.4725 17.8357 21.8562 17.5461 22.3305C16.6628 23.6802 15.3645 23.9852 14.4884 24.0986C14.2215 24.1272 14.0049 24.1242 13.8239 24.1186C10.5946 23.8649 5.80028 21.7688 1.65156 20.7123C1.59068 20.6962 1.52879 20.6797 1.46593 20.6629C1.29507 20.6086 1.24987 20.6194 0.893977 20.4495C0.840939 20.4203 0.842759 20.4262 0.719462 20.346C0.606218 20.2645 0.447837 20.1641 0.251879 19.8708C0.155184 19.7053 0.0644016 19.5741 0.0105122 19.1882C-0.042559 18.7883 0.113066 18.3362 0.302666 18.0915C0.492029 17.8362 0.670409 17.7221 0.800124 17.6445C0.894008 17.5913 0.923623 17.5793 0.976242 17.5557C1.16209 17.4768 1.2804 17.4536 1.37014 17.4342C1.43155 17.4215 1.48607 17.4125 1.53843 17.405C1.91343 17.3562 2.13527 17.3557 2.3851 17.3467C2.87858 17.3342 3.36663 17.3376 3.87772 17.3431C4.89273 17.3549 5.97323 17.3805 7.07115 17.3918C9.19475 17.409 11.7898 17.4083 13.0116 17.017C12.8937 17.0981 13.2346 16.7878 13.3997 16.3639C13.5885 15.9441 13.7239 15.48 13.8149 15.0866C14.4102 11.9775 14.7843 11.9545 15.4607 9.27162Z" fill="#FF9DF5"/>
</svg>
