<svg width="31" height="59" viewBox="0 0 31 59" fill="none" xmlns="http://www.w3.org/2000/svg">
<path d="M0 1.62093C0 0.787401 0.769546 0.166735 1.58417 0.343237L28.9695 6.27672C29.5709 6.40703 30 6.93907 30 7.55442L30 57.1928C30 57.9148 29.4147 58.5001 28.6927 58.5001H1.30734C0.585316 58.5001 0 57.9148 0 57.1928L0 1.62093Z" fill="#FF9DF5"/>
<path d="M0.000244141 12.3663C0.000244141 11.6443 0.585548 11.059 1.30756 11.059L28.7617 11.0586C29.4837 11.0586 30.069 11.6439 30.069 12.366L30.069 57.4814C30.069 58.2035 29.4837 58.7888 28.7617 58.7888H1.30758C0.585559 58.7888 0.000244141 58.2035 0.000244141 57.4814L0.000244141 12.3663Z" fill="black"/>
</svg>
