<svg width="19" height="16" viewBox="0 0 19 16" fill="none" xmlns="http://www.w3.org/2000/svg">
<path d="M1 7.36426L1 6.36426L0 6.36426V7.36426H1ZM18.2071 8.07139C18.5976 7.68086 18.5976 7.0477 18.2071 6.65717L11.8432 0.293204C11.4526 -0.097321 10.8195 -0.097322 10.4289 0.293202C10.0384 0.683726 10.0384 1.31689 10.4289 1.70742L16.0858 7.36428L10.4289 13.0211C10.0384 13.4116 10.0384 14.0448 10.4289 14.4353C10.8194 14.8259 11.4526 14.8259 11.8431 14.4353L18.2071 8.07139ZM1 15.3643H2V7.36426H1H0V15.3643H1ZM1 7.36426L0.999999 8.36426L17.5 8.36428L17.5 7.36428L17.5 6.36428L1 6.36426L1 7.36426Z" fill="black"/>
</svg>
