<svg width="120" height="38" viewBox="0 0 120 38" fill="none" xmlns="http://www.w3.org/2000/svg">
<path d="M101.055 33.8391C101.303 34.0907 101.59 34.2674 101.894 34.4208C102.043 34.4955 102.2 34.5661 102.37 34.6505C102.448 34.6869 102.542 34.7366 102.627 34.7828C102.726 34.8453 102.804 34.8713 102.978 35.0505C103.105 35.1809 103.193 35.2317 103.355 35.5269C103.39 35.5982 103.427 35.6591 103.469 35.8435C103.488 35.9279 103.501 36.0264 103.499 36.1418C103.495 36.253 103.485 36.394 103.404 36.5923C103.329 36.7783 103.194 36.9564 103.045 37.0775C102.878 37.2102 102.791 37.2451 102.679 37.2918C102.475 37.3722 102.275 37.384 102.207 37.3882C101.811 37.3954 101.668 37.3412 101.495 37.3002C101.329 37.2542 101.189 37.2007 101.046 37.1348C99.6797 36.44 99.7304 36.0022 98.2797 35.315C96.8452 34.6171 95.6296 33.5749 94.9447 33.3308C94.2863 33.0852 94.4638 32.7367 93.6558 32.2071C93.608 32.171 93.5565 32.1312 93.5001 32.0831C93.3361 31.9435 93.1276 31.7042 93.0842 31.354C93.0452 31.0061 93.1702 30.7541 93.2647 30.5911C93.2768 30.5687 93.3232 30.5107 93.3395 30.4911C93.8102 29.9963 94.2354 29.783 94.7937 29.5086C95.598 29.1047 97.9315 27.8114 98.6721 27.158C98.8677 26.9831 99.0877 26.8363 99.3207 26.7078C99.9435 26.3507 100.619 26.1082 101.005 25.8119C101.168 25.6904 101.304 25.5976 101.416 25.5318C101.462 25.5043 101.502 25.5073 101.523 25.5282C101.523 25.5282 101.523 25.5282 101.524 25.5282C101.55 25.5543 101.551 25.6072 101.507 25.6597C101.294 25.9132 100.98 26.3125 100.565 26.7706C100.246 27.1236 100.006 27.2873 99.7585 27.43C99.3991 27.6253 99.0234 27.7709 98.3286 28.2815C97.1525 29.1583 96.5299 29.825 95.0796 30.6637C94.6954 30.8926 94.423 31.1422 94.285 31.3558L94.3611 31.2541C94.3336 31.3449 94.4177 31.285 94.4103 31.1666C94.4013 31.0679 94.4337 31.0998 94.5322 31.1409C94.9257 31.3223 95.5916 31.684 96.4328 32.413C98.3029 33.9901 98.9176 33.5169 101.035 34.4894C101.374 34.6374 101.728 34.7987 102.031 34.9173C102.097 34.9433 102.181 34.973 102.222 34.9864C102.26 35.0066 102.333 34.9933 102.114 35.0031C102.035 35.0119 101.906 35.0284 101.727 35.1232C101.539 35.2026 101.228 35.5435 101.178 35.8382C101.094 36.3072 101.226 36.4223 101.226 36.4552C101.272 36.5365 101.249 36.4748 101.211 36.4219C101.3 36.5154 101.191 36.3901 101.143 36.344C101.073 36.2753 101.005 36.2103 100.93 36.1402C100.78 36.0001 100.622 35.8581 100.469 35.7207C100.157 35.4418 99.8488 35.1711 99.5551 34.9178C98.9667 34.4108 98.4417 33.9772 98.0344 33.6933C97.664 33.4352 97.2552 33.1566 96.8121 32.8515C96.5944 32.7018 96.3616 32.5408 96.1283 32.3771C96.0171 32.2991 95.8927 32.2116 95.7642 32.118C95.7434 32.1026 95.7447 32.1041 95.7056 32.0741C95.6864 32.0587 95.6797 32.0561 95.6219 32.0039C95.6225 32.004 95.6045 31.9895 95.5621 31.9435C95.5401 31.9183 95.5118 31.8897 95.4591 31.8089C95.433 31.7666 95.3984 31.7121 95.3593 31.6039C95.326 31.4973 95.2623 31.3162 95.3385 31.0132C95.4056 30.704 95.7311 30.4084 95.9496 30.3454C96.1732 30.2672 96.2998 30.2825 96.3861 30.2874C96.553 30.3063 96.6002 30.3324 96.6454 30.347C96.725 30.378 96.7449 30.3911 96.7667 30.4021C96.8435 30.445 96.8182 30.4319 96.8282 30.4375C96.836 30.4423 96.8426 30.4464 96.849 30.4504C96.9045 30.4857 96.9279 30.5016 96.9625 30.5245C97.0428 30.5781 97.0802 30.6033 97.1588 30.6567C97.4299 30.8427 98.1596 31.0119 98.8447 31.0552C99.2425 31.0853 99.6745 31.0678 100.126 31.014C101.855 30.817 103.701 30.3804 105.416 30.0577C106.654 29.8326 108.166 29.445 109.482 28.9983C110.518 28.6493 111.444 28.3304 112.062 28.12C113.471 27.6309 113.826 27.5076 115.021 26.7325C115.703 26.2797 116.649 25.7174 117.454 25.1852C117.855 24.9115 117.89 25.0763 117.575 25.4743C117.106 26.0476 116.576 26.3427 116.359 26.6925C115.915 27.386 115.681 27.676 114.753 27.9579C113.827 28.2275 113.619 28.8057 113.097 28.9952C112.576 29.1747 112.484 28.9609 110.023 30.2253C110.017 30.2284 110.011 30.2314 110.005 30.2345C107.487 31.4959 105.966 31.8894 104.941 32.1923C103.98 32.475 101.969 32.6471 100.331 32.8518C100.196 32.8698 100.067 32.8865 99.936 32.903C99.0236 32.9705 97.6615 33.2063 96.0383 32.2885C95.9583 32.2342 95.9197 32.2084 95.8439 32.1578C95.8302 32.1481 95.7441 32.0942 95.8124 32.136C95.8242 32.1425 95.8381 32.1509 95.8773 32.1695C95.8981 32.1791 95.9237 32.1914 95.9792 32.2105C96.044 32.224 96.0951 32.2756 96.4026 32.2567C96.5487 32.2416 96.8614 32.1697 97.0922 31.858C97.3209 31.5437 97.294 31.2106 97.2597 31.0636C97.1764 30.7571 97.1085 30.7264 97.0741 30.6683C97.0046 30.5818 96.978 30.5635 96.972 30.5565C96.9556 30.5412 96.9469 30.5337 96.9402 30.528C96.9274 30.5171 96.9238 30.5144 96.9222 30.513C96.9192 30.5106 96.9295 30.5184 96.9321 30.5203C96.941 30.5269 96.9543 30.5366 96.9708 30.5486C97.0867 30.6329 97.2159 30.7249 97.3367 30.8106C97.5834 30.9855 97.821 31.152 98.0508 31.3109C98.5028 31.623 98.9062 31.8918 99.2102 32.0727C100.416 32.7927 100.248 33.028 101.055 33.8391Z" fill="#9DCCFF"/>
<rect x="13" y="34" width="79" height="4" fill="#FF9DF5"/>
<path d="M54.4588 17.6713C48.1574 17.5144 43.0388 17.748 35.9135 17.7108C35.0156 17.7063 34.1317 17.6984 33.1855 17.6855C24.9872 17.6424 23.3251 17.1878 14.8154 17.6969C14.7673 17.7064 14.7221 17.7164 14.6934 17.7246C14.68 17.7279 14.665 17.7356 14.693 17.7228C14.7002 17.7084 14.7494 17.7348 14.8621 17.5451C14.95 17.4188 14.8592 17.1339 14.8228 17.1196C14.7767 17.0585 14.74 17.0359 14.7178 17.0213C14.6238 16.9743 14.7092 17.0133 14.7338 17.0143C14.7781 17.0238 14.8193 17.031 14.8728 17.0396C15.0755 17.0715 15.2874 17.0948 15.513 17.118C19.628 17.4748 23.7683 17.704 27.5224 17.9582C32.6631 18.2923 37.0586 18.572 39.597 18.669C43.9979 18.8358 44.439 19.117 50.6808 19.405C56.9216 19.6902 60.6978 19.9235 66.1484 20.2848C69.2252 20.4881 75.897 20.8666 82.2217 21.1492C87.1266 21.3702 91.7922 21.5231 94.4583 21.5587C100.467 21.646 107.311 21.93 111.504 21.8727C111.569 21.8719 111.632 21.871 111.694 21.8701C112.986 21.8361 114.05 21.8737 114.768 21.6831C114.815 21.6836 114.73 21.6207 114.682 21.5979C114.63 21.5696 114.583 21.5483 114.548 21.5305C114.476 21.4951 114.442 21.4743 114.445 21.4666C114.445 21.4666 114.445 21.4666 114.445 21.4666C114.449 21.4575 114.508 21.4675 114.617 21.5028C114.672 21.5228 114.739 21.5392 114.818 21.5981C114.833 21.6121 114.87 21.6429 114.856 21.696C114.839 21.7415 114.809 21.7532 114.785 21.7673C114.733 21.7928 114.689 21.8046 114.631 21.8184C113.759 21.9712 112.714 21.9856 111.507 22.0348C109.848 22.0915 107.912 22.1295 105.775 22.1572C98.931 22.2126 98.1742 22.0435 88.9465 21.7951C86.4974 21.7229 84.3001 21.6564 82.2027 21.589C76.3963 21.3997 71.2713 21.2116 63.2954 20.7336C52.4385 20.0716 49.9284 20.3234 34.6112 19.223C31.8408 19.0217 29.4991 18.863 27.4751 18.7354C24.7262 18.562 22.5178 18.4439 20.4197 18.3358C19.3663 18.2811 18.3656 18.2311 17.3171 18.1706C16.8002 18.1405 16.2768 18.1087 15.7384 18.0676C15.4715 18.0468 15.2011 18.0246 14.9183 17.9919C14.764 17.9721 14.642 17.9611 14.4455 17.9141C14.386 17.8924 14.3631 17.9124 14.1812 17.7974C14.1501 17.7745 14.1137 17.7442 14.0746 17.6957C14.0551 17.6711 14.0358 17.6432 14.0168 17.6066C13.9889 17.5528 13.966 17.4835 13.96 17.4086C13.9425 17.259 14.0202 17.1016 14.0588 17.055C14.0971 17.0022 14.1336 16.9693 14.1645 16.9446C14.2976 16.8504 14.3016 16.8647 14.3537 16.8409C14.4864 16.7941 14.5505 16.784 14.6341 16.7651C17.8455 16.3404 21.3283 16.3949 26.4485 16.3534C29.4964 16.3487 32.656 16.37 35.9249 16.4053C49.0036 16.5528 62.8847 16.8901 70.274 16.9759C78.7973 17.0763 90.0141 17.2007 101.978 17.4012C102.982 17.4178 103.966 17.4344 104.943 17.4514C107.229 17.491 109.579 17.5243 112.01 17.5578C113.22 17.5752 114.456 17.5906 115.704 17.617C116.018 17.6242 116.325 17.6312 116.649 17.6453C116.727 17.6489 116.81 17.6529 116.902 17.6602C116.962 17.6665 116.964 17.6613 117.089 17.6849C117.103 17.6883 117.12 17.6923 117.142 17.6994C117.168 17.7107 117.114 17.6808 117.243 17.7431C117.291 17.7768 117.406 17.8217 117.483 18.044C117.56 18.2857 117.402 18.5151 117.332 18.5644C117.153 18.6945 117.222 18.6332 117.187 18.6557C117.171 18.6624 117.158 18.6671 117.146 18.6709C117.123 18.6785 117.106 18.6829 117.091 18.6865C117.024 18.7015 117.013 18.7013 116.986 18.7056C116.794 18.7304 116.64 18.7394 116.481 18.7513C115.839 18.7952 115.215 18.8278 114.576 18.8639C105.046 19.4204 94.8879 19.6418 85.4661 19.6325C83.9089 19.6308 82.3156 19.6254 80.6371 19.6159C66.7926 19.5364 49.6187 19.1929 41.2113 19.001C31.7902 18.7817 29.501 18.7238 20.4184 18.6206C19.7105 18.6126 18.927 18.6022 18.1625 18.5911C13.2556 18.5209 7.18289 18.3837 1.96888 18.2274C-1.08186 18.1466 -0.388011 18.0765 2.68033 18.0791C7.17069 18.0909 10.8618 18.188 13.1821 18.1359C15.1503 18.0918 16.6462 18.0604 18.1714 18.0546C20.1998 18.0467 22.2633 18.0847 25.6108 18.1998C31.4563 18.4006 34.2057 18.2067 37.611 18.2859C41.0128 18.3587 40.9572 18.5238 58.2684 18.618C67.84 18.6612 75.035 18.663 80.6365 18.6358C85.1819 18.6133 88.6864 18.5724 91.619 18.5249C96.6028 18.4442 105.756 18.3492 114.522 17.8622C115.212 17.8251 115.893 17.7926 116.56 17.7449C116.638 17.739 116.731 17.7313 116.794 17.7245C116.832 17.7209 116.881 17.7122 116.857 17.7173C116.85 17.7192 116.839 17.7219 116.816 17.7302C116.805 17.7344 116.791 17.7401 116.772 17.7499C116.755 17.763 116.675 17.7821 116.576 17.932C116.529 18.0068 116.489 18.1418 116.513 18.2667C116.534 18.3921 116.596 18.4775 116.642 18.525C116.838 18.6899 116.821 18.6317 116.834 18.6474C116.843 18.6506 116.85 18.6526 116.856 18.6542C116.868 18.6573 116.874 18.6585 116.877 18.6592C116.889 18.6612 116.868 18.6579 116.857 18.6571C116.723 18.6445 116.552 18.6382 116.382 18.6318C116.038 18.6199 115.732 18.6132 115.379 18.6059C114.044 18.58 112.743 18.5659 111.467 18.5533C108.855 18.5286 105.571 18.4927 101.964 18.4469C90.905 18.3053 76.9162 18.0915 70.308 18.0552C61.5509 18.0063 61.5348 17.8499 54.4588 17.6713Z" fill="#ADFF9D"/>
<path d="M23.3686 18.2989C21.965 18.2989 20.7781 18.1083 19.8077 17.7271C18.8374 17.3372 18.0836 16.7957 17.5465 16.1026C17.0093 15.4095 16.6888 14.6081 16.5848 13.6984L16.5718 13.5815H21.0423L21.0683 13.6854C21.181 14.1619 21.4236 14.5345 21.7961 14.8031C22.1773 15.063 22.7015 15.1929 23.3686 15.1929C23.7844 15.1929 24.1353 15.1453 24.4212 15.05C24.7158 14.9547 24.9411 14.8204 25.097 14.6471C25.253 14.4652 25.3309 14.2529 25.3309 14.0103V13.9973C25.3309 13.6854 25.201 13.4342 24.9411 13.2436C24.6898 13.053 24.248 12.8927 23.6155 12.7627L21.1203 12.2689C20.202 12.0869 19.4265 11.8097 18.7941 11.4372C18.1703 11.0559 17.6981 10.5881 17.3775 10.0336C17.057 9.47913 16.8967 8.84234 16.8967 8.12325V8.11025C16.8967 7.15723 17.1523 6.34283 17.6635 5.66705C18.1746 4.98261 18.9024 4.45412 19.8467 4.08157C20.7998 3.70903 21.9174 3.52276 23.1996 3.52276C24.5685 3.52276 25.7208 3.73502 26.6565 4.15955C27.5922 4.57541 28.2983 5.13423 28.7748 5.836C29.26 6.5291 29.5069 7.29585 29.5156 8.13624L29.5286 8.24021H25.3179L25.3049 8.13624C25.253 7.72904 25.0494 7.37816 24.6941 7.08359C24.3389 6.78035 23.8408 6.62874 23.1996 6.62874C22.8271 6.62874 22.5022 6.68072 22.225 6.78469C21.9477 6.87999 21.7311 7.01861 21.5752 7.20055C21.4279 7.38249 21.3542 7.59908 21.3542 7.85034V7.86333C21.3542 8.0626 21.4062 8.24021 21.5102 8.39616C21.6142 8.54344 21.7961 8.67773 22.056 8.79902C22.3159 8.91165 22.6711 9.01562 23.1217 9.11092L25.6168 9.60476C27.1243 9.89933 28.216 10.3585 28.8918 10.9823C29.5762 11.5974 29.9184 12.4335 29.9184 13.4905V13.5035C29.9184 14.4825 29.6412 15.3315 29.0867 16.0506C28.5409 16.7697 27.7741 17.3242 26.7865 17.7141C25.8074 18.104 24.6682 18.2989 23.3686 18.2989ZM38.3786 18.2989C36.8885 18.2989 35.6062 18.0043 34.5319 17.4152C33.4576 16.8174 32.6302 15.9683 32.0497 14.868C31.4692 13.7591 31.179 12.4465 31.179 10.9303V10.9173C31.179 9.3925 31.4649 8.07993 32.0367 6.97962C32.6172 5.87065 33.4316 5.01727 34.4799 4.41946C35.5369 3.82166 36.7802 3.52276 38.2097 3.52276C39.6479 3.52276 40.8912 3.81733 41.9395 4.40647C42.9878 4.98694 43.7979 5.81001 44.3697 6.87566C44.9415 7.94131 45.2274 9.1889 45.2274 10.6184V11.97H33.4403V9.25387H43.0701L40.9258 11.801V10.0206C40.9258 9.32752 40.8175 8.74271 40.6009 8.2662C40.3843 7.78969 40.0811 7.42581 39.6912 7.17456C39.3013 6.92331 38.8465 6.79768 38.3267 6.79768C37.7982 6.79768 37.339 6.92331 36.9491 7.17456C36.5592 7.42581 36.2517 7.79402 36.0264 8.27919C35.8098 8.76437 35.7015 9.34484 35.7015 10.0206V11.827C35.7015 12.4941 35.8098 13.066 36.0264 13.5425C36.2517 14.019 36.5679 14.3872 36.9751 14.6471C37.391 14.8984 37.8891 15.024 38.4696 15.024C38.9635 15.024 39.3793 14.946 39.7172 14.7901C40.0638 14.6341 40.341 14.4478 40.5489 14.2312C40.7569 14.006 40.8955 13.7937 40.9648 13.5944L40.9778 13.5425H45.1364L45.0974 13.6984C44.9935 14.1836 44.7942 14.6948 44.4996 15.2319C44.2051 15.7604 43.7935 16.2586 43.265 16.7264C42.7452 17.1943 42.0824 17.5755 41.2767 17.87C40.471 18.1559 39.5049 18.2989 38.3786 18.2989ZM47.0728 18V3.82166H51.6863V6.31684H51.7772C51.9765 5.42447 52.3491 4.74002 52.8949 4.26351C53.4407 3.77834 54.1338 3.53575 54.9742 3.53575C55.1995 3.53575 55.416 3.55308 55.624 3.58774C55.8319 3.61373 56.0225 3.65705 56.1958 3.71769V7.6684C55.9965 7.58176 55.7669 7.51678 55.507 7.47346C55.2558 7.43014 54.9872 7.40848 54.7013 7.40848C54.0515 7.40848 53.5013 7.52544 53.0508 7.75937C52.6003 7.99329 52.2581 8.33984 52.0242 8.79902C51.7989 9.24954 51.6863 9.81269 51.6863 10.4885V18H47.0728ZM57.6773 18V3.82166H62.2908V6.35583H62.3818C62.659 5.48944 63.1528 4.80067 63.8633 4.28951C64.5824 3.77834 65.4228 3.52276 66.3844 3.52276C67.0602 3.52276 67.6624 3.63972 68.1908 3.87364C68.728 4.10757 69.1742 4.44979 69.5294 4.9003C69.8846 5.34216 70.1272 5.88798 70.2572 6.53777H70.3611C70.5431 5.92264 70.842 5.39414 71.2578 4.95229C71.6824 4.50177 72.1892 4.15088 72.7783 3.89963C73.3761 3.64838 74.0259 3.52276 74.7277 3.52276C75.6547 3.52276 76.4648 3.72636 77.1579 4.13356C77.851 4.54076 78.3925 5.10824 78.7824 5.836C79.1809 6.55509 79.3802 7.39548 79.3802 8.35717V18H74.7667V9.53978C74.7667 9.03728 74.6887 8.62142 74.5328 8.29219C74.3855 7.96297 74.1646 7.71171 73.87 7.53844C73.5754 7.36516 73.2072 7.27852 72.7653 7.27852C72.3495 7.27852 71.9856 7.37383 71.6737 7.56443C71.3705 7.75503 71.1365 8.02361 70.9719 8.37016C70.816 8.70805 70.738 9.11092 70.738 9.57877V18H66.3195V9.4878C66.3195 9.01129 66.2415 8.60842 66.0855 8.27919C65.9296 7.94997 65.7043 7.70305 65.4098 7.53844C65.1239 7.36516 64.7686 7.27852 64.3441 7.27852C63.9282 7.27852 63.5644 7.37816 63.2525 7.57743C62.9492 7.76803 62.711 8.04094 62.5377 8.39616C62.3731 8.74271 62.2908 9.14991 62.2908 9.61775V18H57.6773ZM88.4382 18.2989C86.9394 18.2989 85.6484 18.0087 84.5655 17.4282C83.4825 16.8477 82.6464 16.0073 82.0573 14.907C81.4768 13.798 81.1866 12.4682 81.1866 10.9173V10.8913C81.1866 9.3665 81.4855 8.05394 82.0833 6.95363C82.6811 5.84466 83.5215 4.99561 84.6045 4.40647C85.6874 3.81733 86.9653 3.52276 88.4382 3.52276C89.911 3.52276 91.189 3.81733 92.2719 4.40647C93.3549 4.98694 94.1953 5.82733 94.7931 6.92764C95.3909 8.02794 95.6898 9.34918 95.6898 10.8913V10.9173C95.6898 12.4768 95.3952 13.8067 94.8061 14.907C94.2256 16.0073 93.3939 16.8477 92.3109 17.4282C91.2279 18.0087 89.937 18.2989 88.4382 18.2989ZM88.4512 14.8031C88.9797 14.8031 89.4345 14.6514 89.8157 14.3482C90.197 14.045 90.4872 13.6074 90.6865 13.0356C90.8944 12.4552 90.9984 11.7491 90.9984 10.9173V10.8913C90.9984 10.0769 90.8901 9.38383 90.6735 8.81202C90.4655 8.23154 90.171 7.78969 89.7898 7.48646C89.4085 7.17456 88.958 7.01861 88.4382 7.01861C87.9184 7.01861 87.4635 7.17456 87.0736 7.48646C86.6924 7.78969 86.3979 8.23154 86.1899 8.81202C85.982 9.38383 85.878 10.0769 85.878 10.8913V10.9173C85.878 11.7491 85.9777 12.4552 86.1769 13.0356C86.3849 13.6074 86.6794 14.045 87.0606 14.3482C87.4505 14.6514 87.914 14.8031 88.4512 14.8031ZM97.5482 18V3.82166H102.162V6.30384H102.253C102.608 5.42013 103.145 4.73569 103.864 4.25052C104.583 3.76534 105.476 3.52276 106.541 3.52276C108.101 3.52276 109.301 3.99494 110.141 4.93929C110.99 5.87498 111.415 7.18755 111.415 8.877V18H106.801V9.86467C106.801 9.05027 106.611 8.41782 106.229 7.9673C105.857 7.50811 105.289 7.27852 104.527 7.27852C104.042 7.27852 103.622 7.39548 103.266 7.62941C102.911 7.85467 102.638 8.16656 102.448 8.5651C102.257 8.96364 102.162 9.42715 102.162 9.95564V18H97.5482ZM17.1566 36V21.8217H21.7701V24.3038H21.8611C22.2163 23.4201 22.7534 22.7357 23.4725 22.2505C24.1916 21.7653 25.084 21.5228 26.1497 21.5228C27.7092 21.5228 28.9091 21.9949 29.7495 22.9393C30.5985 23.875 31.0231 25.1876 31.0231 26.877V36H26.4096V27.8647C26.4096 27.0503 26.219 26.4178 25.8378 25.9673C25.4652 25.5081 24.8977 25.2785 24.1353 25.2785C23.6502 25.2785 23.23 25.3955 22.8747 25.6294C22.5195 25.8547 22.2466 26.1666 22.056 26.5651C21.8654 26.9636 21.7701 27.4272 21.7701 27.9556V36H17.1566ZM40.0681 36.2989C38.5692 36.2989 37.2783 36.0087 36.1954 35.4282C35.1124 34.8477 34.2763 34.0073 33.6872 32.907C33.1067 31.798 32.8165 30.4682 32.8165 28.9173V28.8913C32.8165 27.3665 33.1154 26.0539 33.7132 24.9536C34.311 23.8447 35.1514 22.9956 36.2344 22.4065C37.3173 21.8173 38.5952 21.5228 40.0681 21.5228C41.5409 21.5228 42.8189 21.8173 43.9018 22.4065C44.9848 22.9869 45.8252 23.8273 46.423 24.9276C47.0208 26.0279 47.3197 27.3492 47.3197 28.8913V28.9173C47.3197 30.4768 47.0251 31.8067 46.436 32.907C45.8555 34.0073 45.0238 34.8477 43.9408 35.4282C42.8578 36.0087 41.5669 36.2989 40.0681 36.2989ZM40.0811 32.8031C40.6096 32.8031 41.0644 32.6514 41.4456 32.3482C41.8268 32.045 42.1171 31.6074 42.3164 31.0356C42.5243 30.4552 42.6282 29.7491 42.6282 28.9173V28.8913C42.6282 28.0769 42.52 27.3838 42.3034 26.812C42.0954 26.2315 41.8009 25.7897 41.4196 25.4865C41.0384 25.1746 40.5879 25.0186 40.0681 25.0186C39.5483 25.0186 39.0934 25.1746 38.7035 25.4865C38.3223 25.7897 38.0278 26.2315 37.8198 26.812C37.6119 27.3838 37.5079 28.0769 37.5079 28.8913V28.9173C37.5079 29.7491 37.6076 30.4552 37.8068 31.0356C38.0148 31.6074 38.3093 32.045 38.6905 32.3482C39.0804 32.6514 39.5439 32.8031 40.0811 32.8031ZM55.3381 36.2859C53.614 36.2859 52.3447 35.948 51.5303 35.2722C50.7246 34.5965 50.3217 33.4658 50.3217 31.8804V25.2135H48.3854V21.8217H50.3217V18.5597H54.9482V21.8217H57.5084V25.2135H54.9482V31.2176C54.9482 31.8327 55.0868 32.2659 55.3641 32.5171C55.6413 32.7684 56.0615 32.894 56.6246 32.894C56.8153 32.894 56.9755 32.8897 57.1055 32.881C57.2441 32.8637 57.3784 32.8464 57.5084 32.829V36.117C57.2571 36.1603 56.9539 36.1993 56.5987 36.2339C56.2434 36.2686 55.8232 36.2859 55.3381 36.2859ZM66.1635 36.2989C64.6733 36.2989 63.3911 36.0043 62.3168 35.4152C61.2425 34.8174 60.4151 33.9683 59.8346 32.868C59.2541 31.7591 58.9639 30.4465 58.9639 28.9303V28.9173C58.9639 27.3925 59.2498 26.0799 59.8216 24.9796C60.4021 23.8707 61.2165 23.0173 62.2648 22.4195C63.3218 21.8217 64.565 21.5228 65.9946 21.5228C67.4328 21.5228 68.676 21.8173 69.7243 22.4065C70.7727 22.9869 71.5827 23.81 72.1545 24.8757C72.7264 25.9413 73.0123 27.1889 73.0123 28.6184V29.97H61.2251V27.2539H70.855L68.7107 29.801V28.0206C68.7107 27.3275 68.6024 26.7427 68.3858 26.2662C68.1692 25.7897 67.866 25.4258 67.4761 25.1746C67.0862 24.9233 66.6314 24.7977 66.1115 24.7977C65.583 24.7977 65.1239 24.9233 64.734 25.1746C64.3441 25.4258 64.0365 25.794 63.8113 26.2792C63.5947 26.7644 63.4864 27.3448 63.4864 28.0206V29.827C63.4864 30.4941 63.5947 31.066 63.8113 31.5425C64.0365 32.019 64.3528 32.3872 64.76 32.6471C65.1758 32.8984 65.674 33.024 66.2545 33.024C66.7483 33.024 67.1642 32.946 67.5021 32.7901C67.8486 32.6341 68.1259 32.4478 68.3338 32.2312C68.5417 32.006 68.6804 31.7937 68.7497 31.5944L68.7627 31.5425H72.9213L72.8823 31.6984C72.7783 32.1836 72.5791 32.6948 72.2845 33.2319C71.9899 33.7604 71.5784 34.2586 71.0499 34.7264C70.5301 35.1943 69.8673 35.5755 69.0616 35.87C68.2558 36.1559 67.2898 36.2989 66.1635 36.2989ZM81.0696 36.2989C79.6661 36.2989 78.4791 36.1083 77.5088 35.7271C76.5384 35.3372 75.7847 34.7957 75.2475 34.1026C74.7104 33.4095 74.3898 32.6081 74.2858 31.6984L74.2729 31.5815H78.7434L78.7694 31.6854C78.882 32.1619 79.1246 32.5345 79.4971 32.8031C79.8783 33.063 80.4025 33.1929 81.0696 33.1929C81.4855 33.1929 81.8364 33.1453 82.1223 33.05C82.4168 32.9547 82.6421 32.8204 82.798 32.6471C82.954 32.4652 83.032 32.2529 83.032 32.0103V31.9973C83.032 31.6854 82.902 31.4342 82.6421 31.2436C82.3908 31.053 81.949 30.8927 81.3165 30.7627L78.8214 30.2689C77.903 30.0869 77.1276 29.8097 76.4951 29.4372C75.8713 29.0559 75.3991 28.5881 75.0786 28.0336C74.758 27.4791 74.5977 26.8423 74.5977 26.1232V26.1103C74.5977 25.1572 74.8533 24.3428 75.3645 23.6671C75.8757 22.9826 76.6034 22.4541 77.5478 22.0816C78.5008 21.709 79.6184 21.5228 80.9007 21.5228C82.2696 21.5228 83.4218 21.735 84.3575 22.1595C85.2932 22.5754 85.9993 23.1342 86.4758 23.836C86.961 24.5291 87.2079 25.2959 87.2166 26.1362L87.2296 26.2402H83.019L83.006 26.1362C82.954 25.729 82.7504 25.3782 82.3952 25.0836C82.04 24.7804 81.5418 24.6287 80.9007 24.6287C80.5281 24.6287 80.2032 24.6807 79.926 24.7847C79.6488 24.88 79.4322 25.0186 79.2762 25.2005C79.1289 25.3825 79.0553 25.5991 79.0553 25.8503V25.8633C79.0553 26.0626 79.1073 26.2402 79.2112 26.3962C79.3152 26.5434 79.4971 26.6777 79.757 26.799C80.017 26.9117 80.3722 27.0156 80.8227 27.1109L83.3179 27.6048C84.8254 27.8993 85.917 28.3585 86.5928 28.9823C87.2772 29.5974 87.6195 30.4335 87.6195 31.4905V31.5035C87.6195 32.4825 87.3422 33.3315 86.7877 34.0506C86.2419 34.7697 85.4752 35.3242 84.4875 35.7141C83.5085 36.104 82.3692 36.2989 81.0696 36.2989Z" fill="#191919"/>
</svg>
