<svg width="272" height="272" viewBox="0 0 272 272" fill="none" xmlns="http://www.w3.org/2000/svg">
<rect x="1.52588e-05" width="272" height="272" fill="white"/>
<path d="M117.699 183.761C105.024 181.902 94.5393 181.209 80.3589 179.543C78.1818 179.288 75.9716 179.02 73.6733 178.727C57.1631 176.915 53.2341 174.96 36.9965 175.408C36.8839 175.441 36.7722 175.493 36.8033 175.479C36.8136 175.455 36.9503 175.455 37.1038 175.057C37.1734 174.849 37.1367 174.596 37.083 174.475C37.0224 174.331 36.9838 174.298 36.9571 174.264C36.8665 174.175 36.9631 174.265 37.0586 174.31C37.1508 174.36 37.2778 174.42 37.4067 174.475C37.9415 174.703 38.558 174.909 39.186 175.108C47.1437 177.458 55.3467 179.364 62.7663 181.231C73.4816 183.878 82.662 186.102 87.9513 187.216C96.9401 189.102 97.7184 189.924 110.442 192.697C123.165 195.458 130.837 197.258 141.909 199.894C148.094 201.364 161.448 204.377 174.244 206.981C184.421 209.06 194.199 210.824 199.762 211.663C211.885 213.524 225.618 215.866 234.378 216.425C234.712 216.448 235.002 216.466 235.319 216.483C236.674 216.557 237.872 216.602 238.95 216.577C239.482 216.564 239.989 216.535 240.441 216.454C240.87 216.378 241.394 216.21 241.219 215.849C240.916 215.284 240.626 215.057 240.675 215.022C240.675 215.022 240.675 215.022 240.675 215.022C240.692 215.006 240.798 215.075 240.975 215.236C241.063 215.318 241.17 215.42 241.279 215.568C241.373 215.706 241.546 215.945 241.395 216.23C239.543 217.328 237.076 216.83 234.356 216.833C231.016 216.7 227.172 216.413 222.981 216.019C208.764 214.518 207.275 213.911 188.297 210.644C183.108 209.72 178.464 208.868 174.032 208.034C162.31 205.817 151.881 203.738 135.849 200.037C113.77 194.888 108.497 194.672 77.4493 186.843C71.5617 185.347 66.5758 184.106 62.3213 183.069C56.7185 181.702 52.2124 180.65 47.8897 179.628C45.7168 179.113 43.6571 178.626 41.4631 178.063C40.3836 177.784 39.2854 177.494 38.1633 177.152C37.5868 176.973 37.0258 176.797 36.3973 176.534C36.2539 176.473 36.0674 176.388 35.8992 176.297C35.6952 176.171 35.5321 176.13 35.1721 175.726C35.0399 175.594 34.6498 174.93 34.9336 174.265C35.185 173.712 35.4563 173.606 35.6105 173.493C35.939 173.302 36.1053 173.259 36.3023 173.189C43.1793 172.003 50.0389 173.138 60.0437 174.001C66.6942 174.684 73.6303 175.51 80.7464 176.408C107.485 179.81 135.563 183.962 150.632 185.952C168.389 188.304 191.829 191.415 216.758 194.871C218.621 195.128 220.421 195.377 222.243 195.63C227.017 196.292 232.013 196.962 237.135 197.652C239.697 198 242.294 198.344 244.937 198.745C245.589 198.847 246.259 198.951 246.957 199.091C247.099 199.12 247.334 199.171 247.514 199.221C247.578 199.238 247.639 199.256 247.702 199.277C247.775 199.303 247.787 199.301 247.955 199.377C248.027 199.411 248.108 199.452 248.22 199.535C248.248 199.557 248.278 199.581 248.311 199.61C248.344 199.643 248.366 199.652 248.475 199.788C248.664 199.986 248.851 200.618 248.627 201.054C248.536 201.261 248.397 201.409 248.32 201.478C248.273 201.521 248.229 201.555 248.189 201.583C248.108 201.639 248.042 201.673 247.984 201.7C247.87 201.753 247.788 201.777 247.714 201.797C247.084 201.933 246.86 201.91 246.47 201.94C245.067 202.006 243.753 202.018 242.385 202.044C222.643 202.504 201.692 201.284 182.337 199.372C178.975 199.039 175.469 198.674 171.82 198.273C143.212 195.122 108.082 190.111 90.8446 187.59C71.4169 184.728 66.6893 184.007 47.9375 181.473C46.4378 181.27 44.7883 181.043 43.1697 180.818C33.0591 179.417 20.5914 177.557 9.88512 175.914C3.594 174.998 5.04794 174.982 11.4014 175.73C20.692 176.861 28.2965 178.028 33.1124 178.484C37.1527 178.868 40.2313 179.167 43.3519 179.531C47.5852 180.025 51.8557 180.638 58.809 181.768C70.8415 183.72 76.5907 183.939 83.6064 184.976C90.6248 185.983 90.4548 186.424 126.257 190.817C145.774 193.17 160.526 194.787 172.062 195.913C181.717 196.853 189.174 197.456 195.347 197.895C205.589 198.626 224.275 199.973 242.347 199.608C243.833 199.583 245.347 199.581 246.714 199.498C246.868 199.487 247.054 199.467 247.099 199.456C247.095 199.464 247.114 199.429 246.884 199.547C246.813 199.594 246.791 199.585 246.613 199.766C246.508 199.881 246.377 200.081 246.331 200.344C246.281 200.607 246.342 200.887 246.43 201.061C246.65 201.441 246.692 201.393 246.743 201.453C246.793 201.492 246.83 201.515 246.859 201.532C246.974 201.594 246.95 201.575 246.947 201.576C246.937 201.573 246.913 201.565 246.878 201.555C246.642 201.49 246.233 201.412 245.924 201.357C245.224 201.232 244.516 201.124 243.804 201.017C240.962 200.599 238.131 200.229 235.428 199.878C230.171 199.198 223.629 198.345 216.42 197.383C193.479 194.315 164.174 190.282 150.383 188.56C132.275 186.294 132.292 185.914 117.699 183.761Z" fill="#ADFF9D"/>
<rect x="30" width="2" height="272" fill="black" fill-opacity="0.09"/>
<rect x="162" width="2" height="272" fill="black" fill-opacity="0.09"/>
<rect x="96" width="2" height="272" fill="black" fill-opacity="0.09"/>
<rect x="228" width="2" height="272" fill="black" fill-opacity="0.09"/>
<rect x="52" width="2" height="272" fill="black" fill-opacity="0.09"/>
<rect x="184" width="2" height="272" fill="black" fill-opacity="0.09"/>
<rect x="118" width="2" height="272" fill="black" fill-opacity="0.09"/>
<rect x="74" width="2" height="272" fill="black" fill-opacity="0.09"/>
<rect x="206" width="2" height="272" fill="black" fill-opacity="0.09"/>
<rect x="140" width="2" height="272" fill="black" fill-opacity="0.09"/>
<rect x="272" y="36" width="2" height="272" transform="rotate(90 272 36)" fill="black" fill-opacity="0.09"/>
<rect x="272" y="168" width="2" height="272" transform="rotate(90 272 168)" fill="black" fill-opacity="0.09"/>
<rect x="272" y="102" width="2" height="272" transform="rotate(90 272 102)" fill="black" fill-opacity="0.09"/>
<rect x="272" y="234" width="2" height="272" transform="rotate(90 272 234)" fill="black" fill-opacity="0.09"/>
<rect x="272" y="58" width="2" height="272" transform="rotate(90 272 58)" fill="black" fill-opacity="0.09"/>
<rect x="272" y="190" width="2" height="272" transform="rotate(90 272 190)" fill="black" fill-opacity="0.09"/>
<rect x="272" y="124" width="2" height="272" transform="rotate(90 272 124)" fill="black" fill-opacity="0.09"/>
<rect x="272" y="80" width="2" height="272" transform="rotate(90 272 80)" fill="black" fill-opacity="0.09"/>
<rect x="272" y="212" width="2" height="272" transform="rotate(90 272 212)" fill="black" fill-opacity="0.09"/>
<rect x="272" y="146" width="2" height="272" transform="rotate(90 272 146)" fill="black" fill-opacity="0.09"/>
<path d="M79.7827 161.406C79.9566 161.123 80.773 160.064 81.0952 159.594C80.9122 160.251 79.1543 162.428 79.7827 161.406ZM100.519 103.589C100.286 104.009 100.052 104.429 99.8171 104.852C100.644 103.771 101.68 102.267 102.468 101.272C102.596 101.11 102.416 101.64 102.708 101.249C103.001 100.859 102.763 100.802 103.158 100.215C103.607 99.5504 105.867 96.7059 106.624 95.6604C109.155 92.1592 111.636 88.5833 114.256 85.1199C114.511 84.7827 114.765 84.4495 115.019 84.1204C114.723 84.5494 114.491 84.894 114.314 85.1628C113.558 86.3194 113.889 85.992 114.469 85.2768C115.012 84.6032 115.751 83.6257 116.068 83.1471C116.229 82.9042 115.872 82.668 118.899 78.7846C120.806 76.3486 119.579 78.9789 122.475 74.6299C119.712 77.6033 122.118 74.4451 124.018 71.9222C124.322 71.5149 127.07 68.0185 128.245 66.4751C128.646 65.947 129.096 65.0081 129.637 64.3046C130.002 63.8318 130.388 63.5317 130.943 62.8153C133.534 59.4769 136.127 56.228 138.946 52.9448C137.751 55.2434 140.407 51.5835 140.564 51.4569C141.339 50.7803 138.374 54.3368 139.63 53.0036C141.275 51.0318 142.958 49.0767 144.734 47.1273C143.212 48.6703 146.334 44.7021 147.085 44.2177C147.086 44.2171 147.087 44.2164 147.088 44.2158C147.086 44.2157 147.084 44.2154 147.082 44.2151C147.067 44.212 147.059 44.2036 147.056 44.1901C147.064 44.0436 147.466 43.5627 148.575 42.514C148.897 42.2199 149.191 41.9353 149.906 41.3853C150.074 41.2585 150.303 41.0901 150.605 40.8939C150.76 40.7935 150.9 40.7057 151.126 40.5766C151.364 40.4411 151.639 40.2963 151.977 40.146C152.153 40.0686 152.31 40.003 152.558 39.912C152.829 39.8139 153.134 39.7168 153.489 39.6307C154.222 39.4751 154.99 39.2783 156.613 39.4645C158.114 39.6382 159.961 40.4451 161.194 41.6409C161.814 42.2188 162.311 42.8832 162.638 43.4324C162.91 43.8875 163.112 44.3202 163.266 44.7171C163.876 46.4531 163.79 46.9329 163.847 47.6169C163.862 48.2091 163.836 48.4963 163.805 48.8556C163.771 49.2064 163.742 49.3848 163.704 49.6246C163.665 49.8564 163.627 50.0518 163.592 50.2141C163.518 50.5569 163.439 50.8719 163.368 51.1301C163.331 51.2659 163.292 51.4023 163.252 51.5388C163.217 51.6555 163.182 51.7729 163.145 51.8915C161.98 55.4637 160.707 58.2531 160.487 59.154C160.391 59.5125 161.474 57.2938 159.393 62.6466C159.174 63.2041 159.111 62.9399 159.013 63.2442C158.953 63.4298 158.996 64.6914 158.308 65.7761C158.059 66.1596 158.785 63.3473 156.66 69.3493C157.035 68.7371 156.986 69.0953 156.687 70.0089C155.929 72.3397 153.543 78.2026 152.913 79.6006C153.117 79.2493 153.336 78.861 153.545 78.496C152.637 80.3781 152.669 80.7576 152.49 81.1981C151.785 82.9389 150.712 85.2703 150.099 86.9113C149.385 88.8178 149.663 88.9388 148.702 91.1113C148.965 90.6137 149.23 90.1113 149.496 89.6035C148.89 91.1359 148.285 92.6638 147.683 94.183C148.672 90.4968 147.372 94.9383 147.269 95.2278C147.108 95.6879 147.207 94.9749 146.932 95.7438C146.906 95.8208 147.089 95.7756 146.66 96.9394C145.756 99.3851 145.717 98.9463 145.328 99.9617C145.292 100.057 145.55 99.7745 144.898 101.557C142.829 107.213 144.806 101.5 144.875 101.268C144.96 100.976 143.674 102.694 145.708 97.9915C145.025 99.5812 144.725 99.6407 144.649 99.8201C144.585 99.9729 143.543 102.776 143.495 102.926C143.051 104.321 143.678 103.184 143.604 103.461C143.544 103.688 142.039 106.952 142.23 107.928C141.155 109.356 142.172 106.848 143.138 104.134C143.195 103.707 141.967 106.621 141.907 106.775C140.439 110.583 141.628 108.618 141.546 109.542C141.504 110.026 140.649 111.478 141.538 110.177C140.24 113.646 140.854 111.475 140.739 111.687C140.566 112.008 140.197 113.25 140.126 113.397C140.021 113.611 140.203 112.795 139.824 113.654C139.762 113.797 139.418 115.285 140.215 113.504C139.249 115.922 139.497 115.787 138.835 116.478C138.841 118.401 137.982 117.543 137.691 118.187C136.919 119.902 137.626 119.591 137.616 119.693C137.529 120.391 135.484 125.168 135.093 126.4C134.908 125.784 136.572 122.557 136.792 121.774C137.524 119.17 135.241 125.244 135.483 123.241C135.315 124.053 135.147 124.868 134.978 125.683C134.139 126.971 134.779 124.928 133.43 128.746C133.449 129.463 134.42 126.061 134.367 126.799C134.338 127.228 133.516 129.434 133.563 129.499C133.621 129.572 134.296 127.557 134.292 127.913C134.277 128.695 131.258 135.815 133.24 130.268C132.655 131.799 131.85 132.405 131.497 133.783C131.266 134.682 133.814 130.116 130.895 137.314C130.602 137.374 131.939 134.398 131.955 134.305C131.972 134.183 131.228 134.534 131.165 134.619C130.948 134.924 128.381 142.435 127.514 143.897C128.056 143.401 125.425 149.496 125.254 150.223C125.211 150.413 125.656 149.813 125.602 150.013C125.268 151.237 123.679 154.382 123.098 155.879C122.447 157.553 122.685 157.417 122.65 157.508C122.358 158.247 122.474 157.612 122.302 158.064C122.172 158.404 121.592 159.908 121.092 161.215C120.609 162.48 120.208 163.541 120.166 163.685C120.147 163.758 120.629 163.045 120.268 164.104C120.204 164.295 120.036 164.067 118.981 167.155C117.718 170.866 120.208 164.723 119.867 166.331C118.669 168.519 119.004 168.618 118.75 169.22C118.661 169.427 117.762 170.987 117.13 172.751C117.548 171.483 117.984 170.172 118.417 168.879C117.891 170.135 117.064 172.546 116.619 173.589C116.409 174.078 116.338 173.566 115.937 174.68C115.857 174.909 116.071 176.037 116.874 173.081C117.153 172.934 116.532 174.222 116.351 174.893C116.323 174.998 116.527 175.467 116.022 176.218C115.908 176.392 115.673 173.938 114.462 179.593C114.425 179.774 114.756 179.216 114.722 179.394C114.696 179.517 114.179 180.859 114.151 181.002C114.12 181.157 114.47 180.564 114.435 180.751C114.253 181.73 113.329 182.745 114.006 180.857C113.716 181.496 113.449 182.084 113.184 182.689C113.799 182.148 112.971 183.729 112.805 184.424C112.624 185.096 112.621 185.521 112.686 184.985C112.707 184.714 112.731 184.065 112.486 183.165C112.248 182.261 111.744 181.436 111.538 181.145C111.263 180.735 110.893 180.337 110.698 180.14C110.494 179.936 110.452 179.886 110.548 179.942C110.742 180.045 111.397 180.638 111.702 181.025C112.008 181.364 112.425 182.095 112.533 182.303C112.65 182.549 112.657 182.296 112.131 181.35C112.027 181.17 111.932 181.026 111.855 180.914C111.405 180.212 110.352 179.26 109.488 178.835C108.617 178.381 107.978 178.249 107.577 178.181C107.149 178.114 106.894 178.119 106.681 178.131C106.464 178.145 106.305 178.174 106.147 178.207C105.553 178.304 104.629 178.727 105.08 178.461C105.1 178.447 105.032 178.451 104.98 178.44C104.928 178.429 104.91 178.398 104.902 178.371C104.91 178.272 104.654 178.504 107.025 177.289C106.365 177.677 105.72 178.031 105.257 178.255C105.613 178.574 107.428 177.084 107.599 176.961C109.439 175.795 108.224 176.726 110.956 174.753C111.208 174.569 111.805 174.304 112.339 173.895C114.489 172.246 109.266 175.744 109.063 175.64C108.923 175.674 114.601 172.005 114.824 171.873C115.743 171.465 112.299 173.646 113.054 173.394C113.151 173.359 114.027 172.783 115.268 171.938C117.847 170.188 121.937 167.28 123.081 166.548C125.031 165.303 126.202 165.153 125.855 164.64C126.734 164.766 126.97 164.093 127.217 163.924C130.177 161.909 130.184 161.911 132.662 160.087C133.21 159.684 133.786 159.502 133.963 159.338C134.067 159.242 133.739 159.232 134.263 158.786C134.992 158.169 139.781 155.02 140.192 154.862C140.603 154.705 138.246 156.301 138.766 156.152C140.456 154.976 142.043 153.794 143.747 152.609C144.455 152.116 144.166 152.475 144.471 152.262C144.599 152.173 146.966 150.36 146.839 150.393C146.533 150.476 139.077 155.856 140.924 154.276C141.279 153.972 142.794 153.252 142.376 153.117C148.88 148.601 155.374 144.072 162.019 139.596C162.278 139.422 162.532 139.251 162.783 139.084C162.545 139.266 162.3 139.452 162.049 139.64C158.413 142.366 154.223 145.062 150.443 147.76C149.887 148.156 147.997 149.451 148.326 149.437C151.785 147.044 156.019 143.945 159.433 141.719C159.541 141.648 159.244 142.049 159.654 141.795C160.169 141.475 161.351 140.535 162.213 139.879C162.679 139.526 163.045 139.257 163.197 139.181C163.284 139.14 161.985 140.285 162.492 140.1C163.789 139.628 163.64 138.809 164.587 138.179C165.322 137.675 170.511 134.688 171.762 133.678C173.006 132.6 167.856 135.971 168.147 135.567C169.82 134.356 171.566 133.245 173.477 132.161C174.452 131.612 175.424 131.086 176.634 130.523C177.252 130.241 177.889 129.957 178.826 129.644C179.741 129.381 181.055 128.864 183.502 129.107C183.781 129.13 181.693 128.804 183.879 128.992C184.832 129.139 186.289 129.527 187.755 130.7C190.159 132.781 190.384 134.48 190.654 135.345C190.868 136.295 190.879 136.797 190.895 137.274C190.904 138.111 190.829 138.569 190.764 138.967C190.629 139.707 190.484 140.124 190.362 140.655C190.111 141.885 189.228 144.838 189.017 145.172C188.991 145.22 188.969 144.568 188.991 144.475C189.305 143.183 189.715 142.746 189.753 142.631C189.899 142.145 189.916 141.627 190.033 141.141C190.216 140.265 190.459 139.996 190.588 138.095C190.61 137.334 190.538 137.258 190.495 137.262C190.435 137.232 190.444 137.338 190.307 136.208C190.292 136.111 190.269 135.919 190.212 135.622C190.184 135.474 190.147 135.299 190.094 135.094C190.035 134.867 189.948 134.58 189.827 134.262C189.601 133.674 189.157 132.678 188.176 131.645C187.143 130.52 185.392 129.577 183.822 129.344C180.188 128.851 178.883 129.786 178.727 130.023C178.723 130.041 178.968 129.957 179.592 129.796C180.215 129.687 181.295 129.221 183.788 129.562C185.628 129.742 188.096 131.405 188.943 132.891C189.908 134.41 190.051 135.409 190.19 136.185C190.385 137.658 190.268 138.39 190.192 139.122C190.01 140.48 189.737 141.485 189.45 142.502C188.871 144.497 188.189 146.369 187.516 148.16C186.181 151.689 184.918 154.717 184.695 155.395C185.313 154.032 185.929 152.651 186.533 151.256C185.288 154.084 184.225 157.577 183.623 157.609C183.056 158.954 182.483 160.294 181.905 161.636C178.073 170.486 173.241 178.811 169.913 186.331C169.765 186.688 169.638 187.008 169.532 187.297C169.299 187.886 169.234 187.848 169.162 187.775C169.146 187.748 169.138 187.695 169.135 187.576C169.127 187.432 169.159 187.259 169.086 186.614C169.032 186.252 168.975 185.775 168.599 184.944C168.258 184.154 167.334 182.961 166.193 182.348C163.806 181.177 162.975 181.728 162.761 181.673C162.9 181.627 163.104 181.519 163.886 181.534C164.249 181.549 164.84 181.605 165.612 181.905C166.379 182.192 167.357 182.843 168.007 183.652C169.344 185.368 169.297 186.581 169.37 187.039C169.404 187.562 169.385 187.722 169.402 187.811C169.393 187.708 169.47 187.692 169.408 186.722C169.335 186.23 169.302 185.271 168.282 183.808C167.262 182.297 165.205 181.452 164.318 181.39C163.382 181.268 162.996 181.374 162.801 181.402C162.6 181.443 162.574 181.464 162.599 181.46C162.662 181.453 162.938 181.363 163.253 181.236C164.573 180.706 166.39 179.772 167.332 179.266C167.596 179.124 167.805 179.006 167.931 178.929C168.065 178.846 168.095 178.476 169.676 177.592C171.083 176.803 171.424 176.885 172.21 176.508C172.865 176.192 173.553 175.743 173.751 175.649C173.904 175.577 174.03 175.674 174.392 175.504C175.542 174.959 174.441 175.1 175.769 174.903C175.509 175.067 175.251 175.229 174.993 175.392C176.363 174.715 178.296 173.889 176.373 175.071C176.045 175.273 176.268 174.99 176.014 175.13C166.144 180.571 174.159 176.503 177.527 174.387C178.518 174.078 183.463 171.193 183.651 171.136C183.912 171.059 183.134 171.679 184.328 171.182C184.574 171.077 191.246 167.268 188.955 168.845C188.482 169.169 185.232 170.895 184.462 171.332C186.496 170.707 190.481 167.793 190.976 167.543C192.961 166.534 187.411 169.931 191.83 167.569C195.241 165.755 191.911 167.234 193.16 166.411C193.855 165.947 197.877 164.158 197.581 163.846C197.87 163.682 198.06 163.585 198.185 163.531C198.65 163.33 198.255 163.695 198.392 163.637C198.556 163.562 201.167 162.063 202.104 161.705C202.215 161.662 201.977 162.024 202.095 161.985C202.312 161.899 204.998 160.568 205.123 160.507C205.188 160.463 204.446 160.592 204.698 160.426C204.964 160.222 207.808 159.079 207.994 158.982C208.149 158.797 204.666 160.311 205.178 159.875C206.715 159.222 209.5 158.038 210.827 157.568C210.498 157.683 208.669 158.244 208.095 158.452C208.17 158.011 212.293 156.901 210.943 157.516C211.829 157.171 211.184 157.249 211.685 157.011C211.812 156.941 213.191 156.697 213.461 156.621C213.491 156.595 212.035 156.706 212.311 156.6C212.798 156.281 217.158 156.094 217.404 156.232C218.338 156.339 215.014 156.358 214.698 156.573C214.686 156.552 217.54 156.8 217.535 156.861C217.719 157.073 214.594 156.905 214.95 157.149C215.741 157.15 216.513 157.198 217.244 157.276C214.307 157.137 208.804 158.509 207.924 159.239C211.44 157.629 216.549 157.476 216.385 158.122C216.384 158.344 214.576 158.548 214.65 158.622C214.945 158.78 217.395 158.546 217.464 158.591C217.535 158.609 217.567 158.624 217.567 158.636C217.567 158.636 217.567 158.636 217.567 158.636C217.595 158.705 214.083 158.847 213.905 159.006C213.628 159.133 215.22 159.416 215.211 159.526C215.154 159.51 212.745 159.905 213.584 159.967C214.426 159.981 216.495 159.939 216.558 159.979C216.956 160.021 213.353 160.294 213.267 160.458C213.218 160.473 215.151 160.442 215.204 160.517C215.254 160.557 213.817 160.787 213.3 161.061C212.913 161.247 214.115 161.158 213.908 161.212C213.737 161.176 210.617 161.906 210.512 162.023C210.305 162.122 211.045 162.046 210.954 162.114C210.82 162.204 209.864 162.465 210.005 162.478C210.086 162.409 213.978 161.966 213.969 162.205C213.937 162.382 209.964 162.706 213.743 162.86C213.768 162.856 214.636 162.681 214.663 162.69C215.208 162.818 212.475 163.294 215.848 163.006C209.663 164.018 215.115 163.362 214.235 163.871C213.907 164.018 211.674 164.622 211.675 164.679C211.942 164.794 212.617 164.457 212.88 164.497C213.019 164.493 211.098 165.254 211.586 165.253C211.834 165.211 213.888 164.695 213.976 164.731C214.807 164.734 213.832 165.013 214.025 165.074C214.152 165.099 215.361 164.979 215.396 165.001C215.437 164.999 213.839 165.413 213.532 165.591C213.294 165.702 214.255 165.625 214.083 165.687C213.082 165.992 210.704 166.299 213.033 166.254C213.173 166.251 213.962 166.071 213.987 166.08C214.501 166.156 213.061 166.444 212.833 166.673C212.457 167.013 214.475 166.372 212.812 166.965C214.142 166.783 214.746 166.661 216.238 166.598C214.198 166.655 212.936 167.314 212.663 167.553C212.399 167.844 213.27 167.57 215.305 167.362C213.985 167.487 214.198 167.862 213.81 167.938C213.602 167.949 211.436 168.273 212.619 168.719C212.776 168.759 213.897 168.331 213.585 168.622C210.726 169.429 213.593 168.724 213.569 168.785C213.617 169.005 211.976 169.455 209.785 170.422C207.623 171.353 205.136 172.565 204.436 172.957C204.09 173.152 203.778 173.344 203.463 173.548C202.296 174.305 201.421 175.036 201.128 175.193C199.939 175.833 200.838 175.139 200.54 175.222C200.236 175.305 197.005 177.466 196.828 177.543C196.13 177.836 196.695 177.277 196.621 177.305C195.739 177.63 191.25 180.301 189.941 180.968C190.05 181.071 192.629 179.658 191.133 180.746C189.391 182.014 188.98 181.525 188.918 181.528C183.69 184.421 178.495 187.337 173.113 190.202C171.331 191.127 169.709 192.04 167.304 193.005C166.651 193.243 166.017 193.515 164.691 193.732C163.985 193.795 163.13 194.035 161.224 193.436C160.267 193.115 159.086 192.365 158.315 191.359C157.52 190.349 157.2 189.327 157.057 188.65C156.785 187.214 156.931 186.499 156.996 185.915C157.085 185.32 157.188 184.908 157.292 184.52C157.5 183.764 157.708 183.19 157.916 182.633C157.827 182.64 157.597 183.077 157.302 183.932C157.159 184.369 156.981 184.904 156.833 185.814C156.768 186.279 156.68 186.831 156.755 187.814C156.845 188.716 157.111 190.545 158.864 192.21C160.641 193.824 162.475 193.953 163.324 193.984C164.266 193.997 164.817 193.881 165.287 193.785C166.19 193.581 166.684 193.385 167.132 193.218C167.979 192.886 168.412 192.672 168.467 192.663C168.643 192.632 168.468 192.754 167.983 192.989C167.445 193.216 166.893 193.59 164.975 193.997C164.455 194.079 163.803 194.214 162.568 194.077C161.441 194.021 158.79 193.017 157.599 190.9C156.462 188.904 156.593 187.682 156.575 186.872C156.607 186.047 156.711 185.539 156.805 185.083C157.209 183.354 157.632 182.424 158.02 181.452C158.801 179.59 159.489 178.248 159.72 177.844C159.2 178.769 158.682 179.714 158.168 180.73C158.581 178.753 160.763 175.433 161.742 173.115C162.059 172.359 161.224 173.695 161.23 173.661C161.506 172.773 162.268 171.517 161.954 172.586C162.784 170.511 162.827 170.899 163.603 169.394C163.643 169.316 163.178 169.895 163.723 168.671C163.981 168.096 165.462 165.132 165.53 164.679C165.56 164.491 164.28 165.722 164.649 166.138C162.81 169.251 164.344 167.275 163.703 168.525C163.602 168.719 163.575 168.133 162.086 171.388C161.932 170.537 164.122 167.06 164.371 166.414C164.902 165.07 162.001 170.245 161.856 171.429C161.725 170.786 161.615 171.782 160.995 172.983C160.314 174.303 160.498 173.665 160.136 174.392C159.151 176.385 159.818 175.67 158.774 177.243C160.096 176.122 158.118 179.124 157.053 181.055C156.899 181.332 156.776 181.551 156.67 181.751C156.767 181.491 156.855 181.263 156.952 181.014C157.846 178.764 158.746 176.85 159.646 174.931C159.549 175.033 159.452 175.135 159.356 175.236C159.634 174.683 159.912 174.134 160.188 173.595C160.18 173.7 160.173 173.805 160.166 173.91C161.333 170.986 161.933 170.464 162.05 170.237C163.541 167.358 165.198 164.066 166.559 161.212C166.754 160.787 166.415 160.956 168.01 157.95C168.507 156.997 168.285 158.001 168.745 156.881C168.767 156.527 168.8 156.265 168.841 156.065C169.013 155.287 169.284 155.339 169.429 154.999C169.963 153.738 170.156 152.922 170.203 152.804C170.834 151.247 171.788 148.991 172.441 147.293C172.451 147.26 171.944 148.075 172.426 147C172.588 146.631 174.677 143.385 175.383 140.457C175.098 141.174 174.789 141.913 174.464 142.667C174.659 142.23 175.288 140.39 175.606 139.048C175.769 138.375 175.845 137.865 175.837 137.664C175.83 137.465 175.783 137.446 175.71 137.584C175.566 137.923 175.333 140.311 174.812 140.413C174.967 140.024 175.233 139.257 175.457 138.433C175.566 138.038 175.662 137.591 175.679 137.449C175.693 137.407 175.653 137.372 175.679 137.968C175.691 138.131 175.705 138.318 175.769 138.652C175.801 138.814 175.842 138.99 175.904 139.202C175.975 139.443 176.071 139.717 176.207 140.022C176.462 140.594 176.986 141.535 177.968 142.391C178.96 143.277 180.335 143.87 181.476 144.037C182.308 144.173 182.999 144.079 183.262 144.028C183.549 143.97 183.591 143.945 183.569 143.957C183.505 143.98 183.185 144.121 182.851 144.293C182.154 144.648 181.344 145.116 180.616 145.552C179.164 146.424 177.996 147.175 177.747 147.295C177.626 147.354 178.243 146.788 178.078 146.871C177.959 146.922 175.528 148.54 175.176 148.712C174.964 148.812 175.996 148.025 175.88 148.039C175.772 148.057 172.696 150.032 172.605 150.321C173.332 149.737 175.462 148.399 174.449 149.258C174.325 149.363 173.503 149.771 173.354 149.901C171.874 151.163 176.647 147.899 177.375 147.457C175.601 148.767 173.076 150.395 170.581 152.079C169.059 153.106 167.559 154.142 166.258 155.121C164.751 155.986 168.227 153.465 166.547 154.482C163.074 156.587 165.775 155.277 165.691 155.359C164.959 156.056 161.655 157.371 162.022 157.88C160.754 158.657 161.11 158.309 159.446 159.583C159.692 159.463 159.947 159.336 160.196 159.214C158.513 160.844 153.975 162.937 154.238 162.666C154.937 161.941 157.193 160.701 157.366 160.57C157.623 160.377 157.982 159.341 161.2 157.769C162.132 156.589 156.465 160.758 158.909 158.676C157.174 159.956 149.718 164.881 148.777 165.778C148.666 165.887 149.495 165.82 147.57 166.921C146.656 167.444 148.714 165.977 148.267 166.176C146.901 166.788 130.613 178.56 127.413 180.74C127.209 180.882 127.209 180.721 127.009 180.86C126.404 181.283 124.341 182.923 123.159 183.659C123.128 183.679 123.096 183.698 123.066 183.717C123.099 183.698 123.131 183.681 123.162 183.663C124.07 183.167 123.883 183.365 123.269 183.822C122.35 184.506 120.5 185.73 119.796 186.166C117.971 187.299 117.946 187.03 117.134 187.483C115.847 188.194 114.366 189.158 112.629 190.132C111.746 190.617 110.845 191.112 109.521 191.595C108.818 191.825 108.109 192.114 106.557 192.197C105.795 192.217 104.683 192.17 103.361 191.602C102.032 191.052 100.918 189.933 100.447 189.235C99.9226 188.55 99.3698 187.285 99.2312 186.441C99.0666 185.583 99.083 185.004 99.1054 184.561C99.1659 183.68 99.2994 183.21 99.4227 182.787C98.8516 182.416 101.114 177.461 101.86 175.472C102.434 173.822 102.968 171.348 101.987 173.476C103.012 170.663 104.008 167.695 104.951 165.078C105.11 164.639 105.025 165.297 105.293 164.54C105.319 164.465 105.209 164.335 105.429 163.705C107.263 158.458 106.611 161.092 107.059 160.162C107.31 159.644 107.488 159.247 107.61 158.95C106.49 161.985 105.232 165.517 104.896 166.437C105.492 165.759 107.349 159.708 108.09 158.011C108.116 157.953 108.206 158.223 108.23 158.163C108.231 158.162 108.231 158.161 108.232 158.159C108.321 157.938 108.56 157.293 108.823 156.553C109.283 155.248 109.821 153.62 109.476 154.132C109.381 154.274 109.01 155.211 108.543 156.446C108.304 157.078 108.042 157.78 107.777 158.498C107.965 157.887 107.607 158.261 107.639 158.152C107.769 157.715 108.011 157.076 108.302 156.355C108.856 154.981 109.593 153.313 109.894 152.572C109.999 152.314 109.871 152.286 109.887 152.244C110.315 151.206 110.493 151.777 110.538 150.59C111.68 148.891 109.266 154.113 109.695 153.829C110.021 153.607 114.454 141.69 114.102 141.602C114.154 141.575 114.262 141.428 114.444 141.109C114.838 140.422 116.078 137.092 116.232 136.505C116.257 136.404 115.914 136.316 115.957 136.195C116.066 135.889 117.881 131.944 118.263 130.373C117.903 131.171 117.548 131.956 117.184 132.762C119.075 127.848 118.688 128.559 117.956 130.167C117.923 130.249 117.88 130.324 117.849 130.401C117.29 131.635 116.588 133.247 116.554 133.259C116.423 133.302 119.578 124.955 119.266 126.672C119.221 126.913 117.598 130.719 118.554 128.888C118.719 128.571 119.612 126.071 119.688 125.947C120.182 125.141 118.308 130.629 118.789 130.059C119.084 128.65 119.841 127.025 120.369 125.491C120.607 124.798 120.508 124.566 120.537 124.48C120.982 123.2 120.881 123.976 121.039 123.552C121.125 123.32 121.716 120.694 122.042 121.359C124.835 113.012 122.546 118.945 120.632 123.99C121.063 122.322 122.354 119.243 122.85 117.83C123.028 117.322 122.744 117.554 123.038 116.693C123.642 114.921 127.052 106.668 127.935 104.514C127.481 105.869 127.816 105.55 128.2 104.518C128.583 103.486 128.004 104.254 128.055 104.043C128.11 103.82 130.09 99.0352 130.367 98.2204C129.052 101.894 129.554 101.14 130.763 98.0636C130.644 98.5285 130.525 98.9944 130.406 99.4614C131.029 97.6265 132.771 93.9425 133.094 92.8556C133.143 92.6864 132.762 93.2163 132.79 93.1213C133.076 92.182 134.437 89.1193 134.438 88.9584C134.442 88.8179 133.801 90.0962 133.927 89.5786C133.955 89.4665 134.65 88.2825 135.09 86.9862C135.252 86.5098 134.997 86.7361 135.034 86.6148C135.343 85.6021 135.36 86.2929 136.016 84.4681C136.494 83.1355 136.629 82.067 137.407 80.2766C134.804 86.14 136.866 81.1542 137.729 78.6256C137.868 78.2169 137.472 78.4596 138.516 76.1198C137.048 81.3876 139.328 74.7617 139.843 73.4265C139.872 73.3536 140.058 73.3922 140.311 72.7381C140.332 72.6833 140.184 72.7151 140.405 72.1089C142.518 66.3079 141.248 70.0426 141.784 68.9866C142.015 68.5281 142.92 65.6386 143.19 64.9114C143.191 64.91 143.191 64.9085 143.192 64.9071C143.258 64.7352 143.353 64.8506 143.604 64.1728C144.038 62.9968 144.321 61.8433 144.593 61.0857C144.621 61.0093 144.835 61.0332 145.317 59.5461C145.449 59.1378 145.567 58.61 145.282 59.2044C144.643 60.5263 143.905 62.8598 143.156 64.8935C142.86 65.6965 142.546 66.4916 142.243 67.1307C141.689 68.2914 142.322 66.4886 142.932 64.8091C143.377 63.5888 143.784 62.4984 143.844 62.3376C143.891 62.2108 143.505 63.5311 144.013 62.2363C144.432 61.1703 144.849 59.0351 145.508 57.4742C145.565 57.3369 146.321 56.1614 146.313 56.2342C146.315 56.2698 145.637 58.2997 145.83 58.03C145.845 58.0175 146.32 56.7253 146.435 56.5982C146.58 56.437 147.517 56.1512 147.634 55.8874C147.928 55.2197 147.6 55.6019 147.768 55.1729C148.153 54.2099 149.509 51.0156 149.27 50.8428C149.082 51.3555 148.882 51.891 148.677 52.4307C149.671 49.4398 149.115 50.683 149.211 50.2451C149.296 49.8014 149.5 49.9649 149.804 49.0441C149.823 48.9835 149.898 48.7318 149.995 48.3534C150.037 48.1887 150.086 47.9793 150.114 47.8358C150.146 47.6833 150.156 47.5339 150.132 47.7002C150.129 47.8236 150.065 47.9598 150.178 48.7422C150.2 48.883 150.281 49.2753 150.423 49.65C150.592 50.0653 150.715 50.4211 151.28 51.1467C152.289 52.5553 154.646 53.3267 155.815 53.1586C156.793 53.0993 157.39 52.8255 157.606 52.7369C157.878 52.6183 158.062 52.5084 158.138 52.4639C158.323 52.3515 158.366 52.3177 158.386 52.3089C158.422 52.3007 158.235 52.4994 158.279 52.4946C158.399 52.3528 158.466 52.2889 158.366 52.3567C158.21 52.4235 158.112 52.6664 156.805 53.0533C156.446 53.1399 156.109 53.2066 155.531 53.2153C154.934 53.2213 154.24 53.1152 153.594 52.8741C152.267 52.3912 151.375 51.4522 150.948 50.8172C150.237 49.7098 150.254 49.3834 150.151 49.1432C150.029 48.7311 150.039 48.9547 150.097 49.2707C150.152 49.5872 150.327 50.0578 150.189 49.708C150.071 49.3932 149.996 49.0924 149.958 48.8946C149.925 48.7234 149.905 48.5737 149.893 48.4431C149.868 48.1822 149.875 47.9924 149.883 47.9024C149.901 47.6856 149.934 47.6175 149.954 47.6039C149.998 47.5801 150.008 47.7544 149.964 47.9244C149.01 51.1982 149.731 47.7525 149.438 48.5275C149.346 48.7724 149.301 49.4015 149.253 49.5264C149.093 49.9552 148.924 49.8726 148.846 50.1621C148.659 50.8437 149.166 50.1392 149.16 50.2004C149.132 50.8332 148.129 53.1098 148.359 51.5688C147.965 52.3985 148.25 52.6279 147.873 53.2821C147.112 54.6045 147.928 52.5236 148.079 51.94C148.343 50.9254 148.559 50.2506 148.789 49.5514C148.909 49.1853 149.034 48.805 149.151 48.4065C149.216 48.1822 149.267 47.9979 149.317 47.7877C149.358 47.6289 149.393 47.3692 149.357 47.5946C149.351 47.6461 149.342 47.7356 149.336 47.8683C149.332 47.9823 149.323 48.2234 149.366 48.6047C149.41 48.9022 149.476 49.6989 150.108 50.8301C150.72 52.2494 153.409 54.0408 155.214 53.9561C155.435 53.9674 155.656 53.9653 155.837 53.956C155.991 53.9483 156.137 53.9352 156.274 53.9186C156.548 53.8852 156.787 53.838 156.996 53.7865C157.417 53.6826 157.716 53.5628 157.884 53.4932C158.258 53.3363 158.491 53.1962 158.597 53.1363C158.849 52.9865 158.893 52.9548 158.921 52.9482C158.957 52.9715 158.661 53.312 158.53 53.4524C158.462 53.5226 158.024 53.8284 157.521 54.2768C156.809 54.9058 156.096 55.687 156.455 56.0918C155.593 56.8735 153.932 57.7988 153.153 58.7219C152.464 59.539 152.925 59.5082 152.869 59.5896C152.789 59.7096 151.911 60.6796 151.652 61.0532C151.35 61.4886 151.624 61.357 151.119 62.0274C149.882 63.6818 149.672 63.4287 149.516 63.5797C147.748 65.3208 148.792 64.8018 148.474 65.2449C148.164 65.6486 143.518 71.1434 142.675 72.4366C143.007 71.9062 143.329 71.3906 143.67 70.8522C142.803 71.6174 142.365 72.7217 142.052 72.5217C142.377 73.0723 140.643 74.6471 140.248 75.1839C140.088 75.4016 140.182 75.4466 139.976 75.7197C139.166 76.7937 137.291 79.1073 136.885 79.7267C135.154 82.3605 140.305 76.2234 140.719 75.7432C139.939 76.725 135.708 82.4889 137.938 80.0395C138.285 79.6576 138.602 78.804 138.771 78.567C139.901 76.9824 139.16 78.3398 139.271 78.2324C139.463 78.0421 140.031 76.9251 140.266 76.6668C140.339 76.5868 140.078 77.2777 141.201 75.8336C140.799 76.6865 137.55 80.6432 137.175 81.2251C137.041 81.4322 138.317 80.4853 135.303 83.7457C135.367 83.7301 135.431 83.7145 135.494 83.699C134.004 85.7005 132.579 87.63 131.097 89.649C131.184 89.3709 131.867 88.1319 130.843 89.5743C130.274 90.3782 130.881 89.9213 130.832 89.997C130.655 90.2727 129.194 92.2393 127.329 94.7636C124.27 98.8998 120.157 104.506 119.021 106.095C118.417 106.937 116.819 109.432 116.692 109.613C115.927 110.695 113.051 114.481 112.513 115.269C112.177 115.761 112.653 115.406 112.335 115.833C112.042 116.225 112.198 115.714 112.107 115.827C111.357 116.756 106.171 124.347 104.766 126.03C105.586 124.969 109.189 119.368 109.01 119.41C108.98 119.423 107.931 120.656 107.787 120.965C107.342 121.328 106.609 123.127 105.937 123.91C105.86 123.999 105.922 123.475 104.81 124.944C104.423 125.455 103.628 126.905 102.472 128.135C101.151 130.155 93.4982 140.294 93.218 141.163C93.2148 141.193 94.3301 139.792 93.7202 140.841C92.9097 142.235 93.3364 140.768 92.2147 142.266C92.0442 142.493 89.0671 146.76 88.9915 146.92C88.3067 148.37 91.0404 144.729 91.0299 144.801C91.0057 144.977 88.8526 148.087 88.7477 148.201C88.6462 148.308 90.1294 145.578 88.0963 148.679C88.3787 148.36 88.6613 148.04 88.9441 147.72C88.0044 149.191 87.6979 149.174 87.4407 149.508C86.6381 150.55 86.1346 151.937 84.5222 153.366C84.0936 153.746 84.5136 152.907 84.4574 152.953C83.9269 153.399 83.8107 154.365 82.9469 154.983C82.8826 155.028 84.0635 153.007 81.7023 156.33C81.8936 156.118 82.0812 155.912 82.271 155.702C81.9995 156.212 79.6386 159.614 79.3029 160.057C78.3165 161.358 78.9442 160.061 78.0212 161.411C78.8943 160.746 76.0554 164.823 75.9897 164.429C75.8792 165.196 73.2129 168.487 72.0609 170.099C71.3253 171.129 69.9904 173.282 69.7372 173.609C69.4381 173.994 69.3256 173.735 68.777 174.417C68.628 174.601 67.2486 176.857 65.7422 178.555C65.4424 178.895 64.5667 179.425 64.9632 178.687C65.6353 177.433 67.4411 175.451 67.2298 175.331C66.9824 175.233 65.06 178.217 64.4548 179.015C61.7602 182.556 63.0209 180.297 62.8832 180.347C62.5549 180.461 61.1313 182.486 61.0654 182.548C60.7566 182.845 61.6202 181.345 61.5368 181.249C61.4197 181.136 59.834 182.878 60.0969 182.412C60.4643 181.758 61.9268 180.108 61.9935 179.994C62.8837 178.464 61.1864 180.222 60.6366 180.684C60.4719 180.819 60.8702 180.096 60.7583 180.226C59.0565 182.201 60.8647 180.98 59.8374 182.344C58.9216 183.561 59.8521 181.821 59.8069 181.861C59.7571 181.906 58.6797 183.408 58.4425 183.594C58.3335 183.673 60.6854 179.522 60.4068 179.548C59.5504 180.841 58.7383 182.071 57.8815 183.365C57.5826 183.307 59.0294 181.614 59.1261 181.427C59.3391 181.026 58.5 181.971 58.4603 181.875C58.4303 181.82 59.1174 180.503 58.2832 181.541C57.9974 181.896 57.573 182.834 56.4538 184.074C59.6386 179.126 57.1568 182.369 56.973 182.458C56.7942 182.541 58.2327 180.104 56.2938 182.919C55.7687 182.726 56.194 182.765 56.6776 181.915C57.266 180.881 55.5533 182.996 58.1477 179.558C57.803 179.608 55.8037 182.469 55.6842 182.603C55.5778 182.722 55.9207 182.021 55.7277 182.221C53.4665 184.575 54.9274 182.894 54.1264 183.487C54.0472 183.551 52.1817 185.991 53.4944 184.054C55.8935 180.514 57.2177 179.261 57.0072 178.232C54.9276 180.598 53.0935 184.052 52.5584 184.824C51.7353 186.011 52.4698 184.7 52.3318 184.819C52.2902 184.854 51.5614 185.908 51.5405 185.916C50.5579 186.294 54.7756 181.318 55.8994 179.552C55.5204 179.937 55.113 180.362 54.7236 180.761C55.1575 180.141 55.5913 179.521 56.0141 178.917C53.8163 181.722 55.8888 178.978 56.0132 177.982C56.0413 177.758 54.8376 179.778 56.1411 177.421C54.9391 179.004 55.2468 178.401 54.3088 179.96C54.1905 179.798 56.3386 176.387 57.1619 175.054C53.7444 179.52 56.1879 177.268 53.0701 181.043C52.7473 181.907 54.0361 180.004 53.9621 180.176C53.6817 180.814 52.5962 181.967 51.8842 183.822C51.7726 184.119 52.7237 183.2 51.6046 184.764C51.4829 184.933 50.5773 185.85 50.578 185.823C50.5349 185.597 51.3146 184.601 51.2801 184.53C51.2631 184.441 50.4824 185.614 50.4687 185.602C50.2736 185.52 51.0736 184.609 50.9202 184.714C50.5742 184.959 47.3733 188.72 51.1956 183.534C48.2913 188.052 50.9969 184.211 52.1166 182.47C52.407 182.019 52.3939 181.824 52.7854 181.195C53.2936 180.379 54.0071 179.472 54.2859 179.039C54.5744 178.587 52.5672 180.921 55.1957 177.352C53.674 179.002 51.5749 182.511 50.1477 184.178C47.2012 187.636 51.5393 181.339 51.9685 180.663C52.0799 180.486 51.5405 180.96 51.6124 180.841C51.7186 180.663 54.2922 177.154 54.42 176.734C54.5517 176.309 53.5129 178.029 53.3228 178.049C53.1747 178.09 56.0773 173.685 54.3737 175.981C53.2136 177.544 51.4581 180.704 50.7706 180.952C52.3799 178.613 54.0264 176.223 55.6417 173.878C54.6233 175.042 53.5582 176.273 52.5421 177.436C54.3416 174.801 56.1228 172.593 57.6811 169.995C53.0328 175.684 58.7324 167.803 58.7373 167.689C58.7329 167.631 56.7171 169.763 56.3891 170.096C57.7494 167.895 62.1625 161.527 59.1274 164.929C59.6957 164.326 60.6161 162.533 60.5852 162.539C60.2512 162.619 57.8541 166.26 58.0962 165.564C58.3851 164.746 59.3102 163.995 60.0214 162.946C63.677 157.553 61.6802 158.33 65.6118 153.108C65.5025 153.19 65.3934 153.271 65.2842 153.352C69.4423 147.605 73.6165 141.846 77.7878 136.107C79.107 133.633 83.2217 127.488 85.3697 124.555C85.8 123.966 88.0465 121.152 88.2307 120.953C88.5747 120.581 86.9872 122.84 87.8105 121.895C87.9823 121.695 91.5917 116.797 91.1733 117.035C90.7587 117.573 89.5966 119.367 89.3534 119.625C87.6478 121.413 98.8088 106.342 99.2488 105.517C98.9511 105.817 98.6523 106.119 98.3589 106.414C99.0748 105.477 99.8038 104.522 100.519 103.589ZM82.0888 157.17C81.8412 157.868 80.6894 159.228 80.1329 160.11C79.351 161.349 78.5674 163.8 78.5422 162.487C79.7239 160.714 80.9029 158.946 82.0888 157.17ZM100.387 132.016C99.466 133.115 99.7576 131.959 100.586 131.113C100.678 131.019 101.631 130.529 100.387 132.016ZM91.524 144.069C91.5541 144.017 92.2799 143.019 92.3105 142.988C93.0955 142.188 90.9066 145.197 91.524 144.069ZM133.698 85.5304C132.776 86.7889 133.777 86.1159 134.219 85.256C134.247 85.2016 133.759 85.4479 133.698 85.5304ZM133.022 86.4128C131.993 87.1932 131.133 89.5484 132.228 87.9604C132.329 87.8124 133.068 86.3803 133.022 86.4128ZM97.2867 136.052C97.2693 135.842 98.1799 134.681 98.5717 134.19C98.663 134.275 97.6331 135.541 97.2867 136.052ZM119.046 105.767C118.997 105.652 115.993 109.799 115.913 110.151C116.325 109.479 119.091 105.868 119.046 105.767ZM126.655 95.1155C126.567 95.2033 125.545 96.6393 125.649 96.6567C126.266 96.0271 127.063 94.7026 126.655 95.1155ZM142.258 74.4521C142.298 74.3629 141.016 75.0246 143.238 72.8269C143.568 72.499 142.673 73.8961 142.796 73.7736C143.036 73.5357 143.224 73.3271 143.359 73.1608C142.507 74.3268 141.594 75.5419 141.487 75.6207C140.934 76.0527 142.239 74.4909 142.258 74.4521ZM150.324 63.7C150.425 63.4241 151.686 62.0123 151.983 61.732C152.038 61.6791 152.017 62.0985 152.557 61.4405C152.982 60.9247 152.126 61.5096 153.013 60.5515C153.901 59.5992 152.9 61.0305 152.979 60.9625C153.104 60.8401 154.331 59.2666 154.416 59.4066C154.467 59.5145 152.974 61.0974 152.65 61.5157C152.222 62.0618 152.9 61.5605 152.131 62.3976C151.636 62.9397 151.645 62.4156 151.531 62.5234C151.442 62.6022 149.945 64.6869 150.328 63.6976C150.326 63.6984 150.325 63.6992 150.324 63.7ZM143.589 72.8444C143.531 72.9363 143.457 73.0402 143.359 73.1608C143.437 73.0543 143.513 72.9484 143.589 72.8444ZM84.3582 153.723C84.8729 153.176 83.7004 155.053 83.1099 155.652C83.0124 155.602 84.2757 153.812 84.3582 153.723ZM144.2 71.63C145.592 70.0071 144.702 71.3094 143.589 72.8444C143.913 72.3299 143.72 72.1937 144.2 71.63ZM107.787 120.965C107.861 120.905 107.926 120.881 107.982 120.912C107.785 121.067 107.742 121.063 107.787 120.965ZM110.836 116.926C111.692 115.409 109.64 118.268 109.763 118.335C109.812 118.356 110.803 116.986 110.836 116.926ZM134.919 83.94C134.807 84.0576 135.826 81.7352 134.018 84.8615C135.232 83.3649 134.054 85.0338 134.121 85.0305C134.292 85.0458 136.083 82.4381 136.577 81.8959C136.701 81.2958 135.278 83.5659 134.922 83.9368C134.921 83.9379 134.92 83.9389 134.919 83.94ZM146.337 53.3252C146.337 52.87 146.831 51.6196 147.116 50.8056C147.133 51.2401 146.658 52.4579 146.337 53.3252ZM172.798 145.92C174.83 140.182 175.618 139.704 173.494 144.777C173.451 144.881 172.722 146.291 172.798 145.92ZM151.74 165.156C151.09 165.281 152.689 164.092 153.821 163.429C154.077 163.278 155.128 162.873 154.142 163.639C153.981 163.346 152.335 164.358 151.74 165.156ZM144.809 70.5782C145.058 69.9696 146.361 68.5466 147 67.801C146.744 68.355 145.416 69.9033 144.809 70.5782ZM179.12 146.088C178.573 146.402 178.339 146.833 178.442 146.791C178.902 146.607 179.795 145.83 179.12 146.088ZM140.966 75.4345C140.813 75.4512 142.314 73.3515 142.624 73.3953C142.289 73.7909 141.045 75.4426 140.966 75.4345ZM146.979 51.7493C147.161 51.4 146.586 53.3439 146.333 53.8757C146.243 53.7887 146.862 51.9852 146.979 51.7493ZM170.404 151.94C169.916 152.25 168.677 153.097 168.6 153.268C168.498 153.484 170.277 152.206 170.404 151.94ZM199.39 177.301C199.476 177.302 197.598 178.68 196.656 179.108C194.871 179.913 199.301 177.31 199.39 177.301ZM183.406 143.572C183.527 143.59 183.381 143.668 183.347 143.689C183.303 143.715 183.374 143.7 183.423 143.688C183.551 143.653 183.411 143.704 183.465 143.813C183.524 143.789 183.585 143.782 183.376 143.836C183.205 143.877 182.482 144.034 181.503 143.873C179.947 143.686 178.075 142.506 177.291 141.446C176.439 140.363 176.255 139.689 176.094 139.197C175.861 138.339 175.906 138.122 175.902 137.997C175.911 137.887 175.929 137.889 175.973 138.097C175.998 138.201 176.023 138.383 176.13 138.785C176.281 139.167 176.279 139.866 177.539 141.426C178.16 142.214 179.851 143.435 181.539 143.645C182.281 143.767 183.054 143.665 183.254 143.613C183.495 143.557 183.455 143.558 183.406 143.572ZM182.5 143.903C182.41 144.03 181.558 144.766 182.379 144.307C182.75 144.101 183.161 143.603 182.5 143.903ZM186.833 184.338C185.241 184.978 192.126 181.294 192.337 181.222C192.45 181.182 192.527 181.161 192.573 181.153C192.791 180.956 194.071 180.236 194.303 180.302C193.908 180.503 192.864 181.096 192.732 181.148C192.676 181.17 192.633 181.185 192.602 181.193C192.22 181.57 187.141 184.213 186.833 184.338ZM175.302 190.417C176.897 189.205 177.454 189.501 177.313 189.598C175.523 190.815 176.572 189.802 176.505 189.818C176.363 189.861 175.094 190.749 175.307 190.414C175.305 190.415 175.304 190.416 175.302 190.417ZM184.467 185.548C184.533 185.504 185.977 184.723 186.039 184.699C187.301 184.204 183.218 186.411 184.467 185.548ZM156.593 56.0409C157.401 55.2664 156.784 56.1953 156.231 56.6851C156.186 56.7236 155.883 56.7272 156.593 56.0409ZM181.876 144.291C181.763 144.222 176.113 147.579 176.601 147.651C177.113 147.201 183.321 143.689 181.876 144.291ZM139.728 173.197C140.735 172.488 139.797 173.491 139.205 173.783C138.985 173.891 139.474 173.376 139.728 173.197ZM138.665 78.0042C138.013 79.1052 137.759 78.5958 138.577 77.8176C138.609 77.7874 138.691 77.9608 138.665 78.0042ZM147.822 167.658C144.469 170.243 144.78 168.944 149.434 166.006C149.316 166.137 149.199 166.268 149.081 166.4C154.328 162.838 149.471 166.199 148.232 167.139C147.761 167.496 148.25 167.329 147.826 167.656C147.825 167.657 147.824 167.657 147.822 167.658ZM134.432 176.908C130.715 178.751 137.358 174.59 139.123 173.237C137.501 174.699 135.172 176.292 138.461 174.296C133.905 177.57 135.665 176.023 135.473 176.134C135.241 176.269 134.588 176.831 134.432 176.908ZM143.227 170.695C143.411 170.542 144.93 169.622 145.441 169.234C144.835 169.926 142.022 171.701 143.227 170.695ZM156.759 181.857C156.802 181.978 156.819 182.132 156.729 182.504C156.645 182.883 156.456 183.354 156.101 184.61C156.221 183.731 156.567 182.54 156.759 181.857ZM80.591 157.759C80.0232 158.538 78.867 160.059 79.3496 159.683C79.3996 159.638 80.6683 157.821 80.591 157.759ZM165.59 154.83C165.412 154.926 161.08 157.95 162.682 157.051C163.164 156.777 167.081 154.011 165.59 154.83ZM176.173 137.782C176.2 137.678 176.231 137.343 176.199 137.557C176.192 137.68 176.158 137.965 176.277 138.609C176.353 139.165 176.804 140.17 176.828 140.201C176.931 140.474 176.354 139.457 176.211 138.743C176.035 137.977 176.076 137.663 176.084 137.536C176.124 137.326 176.121 137.736 176.173 137.782ZM77.6398 161.622C77.5547 161.712 75.8758 164.133 76.1287 163.917C76.6135 163.498 77.9392 161.304 77.6398 161.622ZM158.934 53.0755C158.971 53.0373 159.027 53.0476 159.044 53.0919C159.063 53.1353 159.03 53.2193 158.997 53.244C158.965 53.2647 158.933 53.3036 158.588 53.5069C158.481 53.5681 158.343 53.6439 158.143 53.736C158.043 53.7819 157.928 53.8318 157.79 53.8847C157.635 53.9447 157.407 54.024 157.146 54.0926C156.589 54.2129 155.989 54.4217 154.481 54.2218C153.083 54.0489 151.281 53.0502 150.367 51.8313C149.863 51.1875 149.672 50.7836 149.489 50.3839C149.316 49.9883 149.208 49.6393 149.135 49.3407C149.006 48.786 148.995 48.5518 148.975 48.2819C148.961 48.0132 148.967 47.908 148.97 47.7935C148.975 47.6864 148.982 47.6049 148.987 47.5556C149.007 47.3805 149.003 47.4426 148.979 47.5337C148.869 47.9761 148.64 48.6048 148.709 47.9231C148.708 47.898 148.762 47.6863 148.797 47.5257C148.817 47.4421 148.83 47.3549 148.815 47.4659C148.811 47.5153 148.788 47.6573 148.789 48.0067C148.791 48.2125 148.8 48.5516 148.891 49.0429C148.937 49.2893 149.047 49.7681 149.254 50.2745C149.36 50.5341 149.494 50.8185 149.671 51.1215C149.847 51.43 150.18 51.9157 150.562 52.3203C152.076 54.1803 155.399 54.7047 156.419 54.4097C157.016 54.3253 157.455 54.1879 157.794 54.0619C158.063 53.9602 158.257 53.8686 158.421 53.7847C158.762 53.6064 158.875 53.5229 158.989 53.4463C159.098 53.3698 159.141 53.3346 159.172 53.3093C159.275 53.2202 159.126 53.3391 158.979 53.4792C158.664 53.7727 158.232 54.2081 157.849 54.5931C157.277 55.1686 156.856 55.5955 156.695 55.7556C156.455 55.7869 157.106 55.1432 157.768 54.5153C158.192 54.111 158.568 53.7688 158.702 53.6222C158.75 53.5683 158.704 53.3145 158.934 53.0768C158.934 53.0764 158.934 53.076 158.934 53.0755ZM169.291 193.45C169.476 193.263 172.224 191.804 173.59 191.104C174.107 190.846 174.486 190.677 174.49 190.735C174.209 190.89 173.917 191.049 173.64 191.2C172.268 191.944 170.925 192.677 169.291 193.45ZM164.937 194.866C164.514 194.918 164.122 194.932 163.984 194.927C163.835 194.922 163.897 194.91 164.109 194.888C164.583 194.843 165.376 194.71 166.035 194.522C167.335 194.157 168.325 193.707 168.792 193.535C168.811 193.583 168.247 193.875 167.432 194.191C166.681 194.503 165.308 194.838 164.937 194.866ZM179.384 144.921C178.986 145.206 180.395 144.627 180.128 144.841C179.974 144.963 178.967 145.473 178.712 145.719C178.64 145.79 179.708 145.386 179.986 145.211C180.368 144.968 179.897 145.049 180.328 144.792C181.028 144.377 181.697 144.034 182.278 143.767C182.573 143.631 182.84 143.519 183.051 143.437C183.258 143.356 183.431 143.308 183.338 143.336C183.322 143.341 183.371 143.294 183.344 143.271C183.334 143.258 183.327 143.245 183.33 143.232C183.321 143.222 183.376 143.205 183.196 143.248C183.12 143.228 183.007 143.476 181.585 143.358C180.127 143.247 177.957 141.831 177.273 140.608C176.488 139.37 176.43 138.691 176.34 138.256C176.238 137.467 176.302 137.465 176.289 137.513C176.559 139.241 175.04 141.99 173.77 145.825C173.883 145.701 175.119 142.812 175.168 142.66C175.55 141.678 176 140.445 176.363 139.24C176.54 138.653 176.697 138.039 176.758 137.694C176.792 137.543 176.779 137.403 176.784 137.77C176.81 137.997 176.752 138.295 177.125 139.322C177.311 139.794 177.7 140.599 178.518 141.378C179.363 142.206 180.629 142.785 181.653 142.929C182.228 143.023 182.747 142.973 182.956 142.936C183.184 142.897 183.229 142.873 183.218 142.877C183.184 142.885 182.931 142.983 182.672 143.105C182.141 143.352 181.494 143.703 180.94 144.017C180.188 144.448 180.612 144.341 180.288 144.535C180.025 144.696 180.234 144.313 179.384 144.921ZM80.7889 157.272C80.3433 157.523 79.5294 158.908 78.9235 159.742C79.2981 159.554 80.1648 158.067 80.7889 157.272ZM165.702 164.204C165.919 163.746 166.659 162.373 166.655 162.228C166.652 162.042 165.619 164.041 165.702 164.204ZM141.847 67.7982C141.836 67.8425 141.382 69.0047 141.357 69.0508C140.797 70.0311 142.158 66.5517 141.847 67.7982ZM131.187 95.4724C130.874 96.359 130.593 97.2771 130.316 97.5036C130.555 96.96 131.113 95.3223 131.187 95.4724ZM116.448 133.69C116.735 133.588 115.575 136.184 115.364 136.675C115.337 136.456 116.243 133.757 116.448 133.69ZM157.528 181.889C157.145 182.842 157.065 183.366 157.015 183.739C156.959 184.169 156.921 184.329 156.61 185.473C156.557 185.665 156.302 186.157 156.176 185.947C156.045 185.754 156.083 184.665 156.653 183.396C156.753 183.172 156.695 183.527 156.751 183.548C156.805 183.592 156.98 183.173 157.528 181.889ZM150.168 165.494C150.439 165.113 151.586 164.355 152.352 163.827C152.248 164.04 150.702 165.101 150.168 165.494ZM74.4277 165.85C73.7734 166.398 71.7451 169.54 72.3967 168.868C72.4839 168.776 74.1126 166.28 74.4277 165.85ZM146.975 66.7604C147.792 65.4843 145.785 67.871 145.285 68.7678C145.562 68.4013 146.914 66.8509 146.975 66.7604ZM120.105 124.552C120.085 124.623 119.482 126.141 119.447 126.209C118.798 127.397 120.507 123.093 120.105 124.552ZM134.957 86.4673C134.874 87.0728 133.378 90.6447 132.933 91.4084C133.044 90.5507 135.056 85.7219 134.957 86.4673ZM160.638 174.892C160.084 176.027 159.516 177.092 158.948 178.16C158.947 177.862 160.499 174.96 160.638 174.892ZM117.956 130.167C117.923 130.249 117.88 130.324 117.849 130.401C117.885 130.321 117.921 130.244 117.956 130.167ZM172.254 150.317C172.685 149.387 172.401 149.508 172.372 149.561C172.019 150.245 171.771 151.354 172.254 150.317ZM79.8426 158.05C79.4766 158.228 78.5949 159.732 77.9746 160.526C78.2688 160.378 79.3958 158.715 79.8426 158.05ZM130.606 179.094C129.412 179.669 133.638 176.421 134.628 175.888C134.778 175.945 130.787 179.007 130.606 179.094ZM143.796 70.2586C143.616 70.2375 142.396 72.0841 142.744 71.7592C142.949 71.5723 143.915 70.2602 143.796 70.2586ZM136.866 174.422C137.245 174.099 138.282 173.552 138 173.863C137.638 174.263 136.771 174.506 136.866 174.422ZM173.171 148.764C172.99 148.854 170.694 150.6 171.766 150.062C172.493 149.699 172.496 149.432 172.652 149.325C172.82 149.207 176.806 146.883 173.171 148.764ZM99.6806 179.484C99.5273 180.097 99.3351 180.747 99.1328 181.537C98.9467 182.391 98.6663 183.059 98.6595 185.006C98.4976 182.689 99.4341 179.958 99.6806 179.484ZM149.056 63.6994C148.84 63.8342 144.282 69.3942 147.005 66.3391C147.16 66.1556 149.703 63.2077 149.056 63.6994ZM157.528 181.889C157.594 181.727 157.67 181.547 157.761 181.345C157.799 181.261 157.84 181.172 157.884 181.08C157.842 181.173 157.803 181.262 157.766 181.347C157.677 181.549 157.598 181.728 157.528 181.889ZM166.343 163.758C166.273 164.157 167.16 162.404 167.352 161.86C167.308 161.642 166.356 163.701 166.343 163.758ZM98.8296 185.335C98.8685 185.735 98.9216 186.274 99.1503 187.052C99.3566 187.794 99.8523 188.772 100.291 189.348C100.729 189.968 101.649 190.95 102.846 191.554C104.033 192.17 105.198 192.342 105.973 192.372C107.56 192.405 108.266 192.154 108.863 192.002C108.759 192.053 108.288 192.286 106.952 192.431C106.259 192.48 105.212 192.549 103.707 192.035C102.189 191.555 100.714 190.177 100.214 189.404C99.6268 188.64 99.1002 187.342 98.9761 186.64C98.8258 185.918 98.8277 185.515 98.8296 185.335ZM115.058 138.8C114.524 140.016 113.972 141.533 114.079 141.609C114.05 141.627 114.007 141.68 113.949 141.772C113.89 141.868 113.439 143.207 113.181 143.76C111.617 147.111 118.14 130.437 114.75 140.25C114.852 139.77 114.954 139.286 115.058 138.8ZM137.115 81.6818C137.532 81.0266 138.093 79.0246 137.844 79.5039C137.674 79.8315 136.701 82.3275 137.115 81.6818ZM126.832 108.624C126.939 108.423 127.575 106.476 127.519 106.396C127.015 107.464 126.345 109.53 126.832 108.624ZM139.345 76.3711C139.537 75.9355 139.518 75.2885 139.488 75.3362C139.234 75.7453 138.93 77.0677 139.345 76.3711ZM159.734 178.524C160.111 177.877 160.954 175.737 161.029 175.221C161.097 175.154 161.245 174.949 161.492 174.563C161.492 174.564 161.491 174.565 161.491 174.567C161.868 173.967 169.912 158.059 164.282 168.62C164.104 168.951 164.468 168.558 163.753 169.917C163.705 170.008 163.575 169.999 163.428 170.276C163.094 170.909 161.278 174.347 161.014 175.108C160.991 175.104 160.95 175.141 160.884 175.229C160.295 176.011 159.441 179.005 159.734 178.524ZM125.389 112.423C125.579 112.055 126.01 110.821 125.959 110.657C125.678 111.242 124.947 113.279 125.389 112.423ZM148.58 63.5903C147.994 64.1561 146.79 65.886 147.26 65.4497C147.546 65.1774 149.256 62.9312 148.58 63.5903ZM130.045 100.203C128.195 104.648 129.641 101.278 129.521 102.022C129.696 101.414 129.869 100.811 130.045 100.203ZM179.292 187.28C178.597 187.62 179.242 186.917 180.073 186.651C180.333 186.568 179.677 187.092 179.292 187.28ZM209.405 170.936C208.76 170.919 211.426 169.922 210.491 170.534C210.454 170.553 209.444 170.926 209.405 170.936ZM188.363 182.033C187.998 182.448 187.712 182.631 186.403 183.304C188.281 182.203 186.436 183.038 188.363 182.033ZM114.102 141.602C114.092 141.608 114.084 141.612 114.079 141.609C114.088 141.602 114.096 141.601 114.102 141.602ZM140.914 72.1313C141.274 71.6283 141.87 70.0312 141.542 70.4487C141.514 70.4799 140.887 71.8746 140.914 72.1313ZM161.029 175.221C160.967 175.282 160.969 175.237 161.014 175.108C161.036 175.112 161.038 175.152 161.029 175.221ZM137.794 80.6399C137.709 80.534 136.736 82.9412 136.717 83.0294C136.379 84.4755 137.42 81.6358 137.794 80.6399ZM138.016 76.6281C137.947 76.737 138.696 76.2602 138.92 75.7761C139.093 75.4014 138.277 76.2111 138.016 76.6281ZM192.685 179.556C193.396 179.165 194.397 178.614 194.652 178.638C194.163 178.881 192.722 179.657 192.685 179.556ZM208.276 171.248C207.546 171.78 205.673 172.723 204.44 173.339C204.322 173.142 207.553 171.636 208.276 171.248ZM158.674 180.66C158.714 180.57 159.683 178.603 159.422 178.821C159.039 179.106 158.343 181.209 158.674 180.66ZM140.547 73.6177C141.025 72.8372 139.491 74.2934 139.102 75.1961C138.906 75.6531 140.454 73.7633 140.547 73.6177ZM142.978 67.2866C143.325 66.1291 142.133 68.8361 142.121 69.3038C142.336 68.7747 142.86 67.6821 142.978 67.2866ZM128.43 105.607C130.215 102.228 128.706 103.862 128.532 104.515C128.507 104.607 128.386 105.69 128.43 105.607ZM68.2427 173.03C67.9803 173.509 69.3335 171.989 69.3594 171.694C69.3806 171.503 68.4079 172.728 68.2427 173.03ZM107.61 158.95C107.667 158.796 107.725 158.639 107.777 158.498C107.743 158.606 107.689 158.756 107.61 158.95ZM147.368 57.2888C145.858 59.5505 146.402 59.4794 146.32 59.6934C146.153 60.1232 145.564 61.2111 145.274 62.0627C145.575 61.0571 145.893 60.0035 146.203 58.9618C145.968 59.5104 144.551 62.9527 143.697 65.0984C143.333 66.0154 143.065 66.72 143.078 66.7756C143.122 66.9732 143.589 65.7426 143.815 65.1427C143.893 64.9362 143.946 64.7938 143.955 64.7791C144.008 64.6917 144.519 64.4897 144.61 64.2931C144.75 64.0024 146.945 58.1665 147.368 57.2888ZM131.224 98.1695C130.96 98.7205 130.747 98.8248 130.68 99.1034C130.658 99.1984 130.796 99.2683 130.714 99.5912C130.884 99.1161 131.055 98.6422 131.224 98.1695ZM148.42 52.682C148.847 52.0442 147.677 55.1318 147.61 55.2395C147.293 55.7451 148.091 53.1704 148.42 52.682ZM138.379 79.4964C138.438 79.3733 139.421 76.9733 139.314 76.9587C139.003 77.5505 137.721 80.828 138.379 79.4964ZM130.577 99.9763C130.228 100.83 129.464 102.381 129.751 102.281C129.751 102.28 129.752 102.278 129.752 102.277C130.028 101.508 130.299 100.75 130.577 99.9763ZM142.067 70.8829C140.747 71.9645 141.6 71.6318 142.611 70.5418C142.767 70.0769 142.273 70.7173 142.067 70.8829ZM138.543 74.9549C138.196 75.2883 135.326 79.1554 135.925 78.6958C136.142 78.5249 137.69 76.2155 137.78 76.1238C137.911 75.9853 137.552 76.8057 138.406 75.6267C138.293 75.6536 138.661 74.8383 138.543 74.9549ZM141.022 71.83C139.777 72.967 139.956 73.5815 140.725 72.597C141.017 72.2245 141.206 71.662 141.022 71.83ZM145.29 66.5282C144.885 66.9508 143.834 68.1466 143.27 69.1344C144.217 67.9654 145.12 66.8633 146.074 65.7128C146.105 65.5194 145.658 66.1408 145.288 66.5313C145.289 66.5302 145.29 66.5292 145.29 66.5282ZM215.584 167.47C214.611 167.369 216.843 167.22 216.994 167.31C217.284 167.44 215.99 167.496 215.584 167.47ZM58.3601 178.861C58.0961 179.133 57.7965 179.224 57.409 179.947C57.9968 179.361 58.593 178.764 59.1916 178.163C59.2931 177.455 58.6518 178.56 58.3601 178.861ZM55.5727 180.744C55.6331 180.645 54.8575 180.875 56.0024 179.834C56.7805 179.124 53.7614 183.778 52.9993 184.473C53.5559 183.506 55.0386 181.611 55.5727 180.744ZM48.2125 187.409C48.1477 187.431 49.3086 185.685 49.4692 185.507C50.3202 184.559 48.6043 187.225 48.2125 187.409ZM52.1614 181.982C51.5088 182.738 52.7224 180.911 53.1371 180.421C53.2444 180.43 52.2743 181.847 52.1614 181.982ZM201.426 165.08C200.31 165.273 199.788 166.373 201.194 165.475C201.259 165.434 201.476 165.073 201.426 165.08ZM48.9842 185.44C49.6217 184.706 48.4501 186.474 48.005 187.007C47.8992 186.995 48.8886 185.551 48.9842 185.44ZM200.377 164.71C198.987 165.159 199.822 165.652 199.993 165.599C200.702 165.369 202.818 163.925 203.26 163.624C199.897 165.454 201.036 164.506 200.377 164.71ZM194.793 168.247C193.677 168.951 196.719 167.492 197.182 166.987C196.603 167.309 195.114 168.043 194.793 168.247ZM187.656 171.859C187.023 172.174 185.149 173.131 184.903 173.415C185.566 173.021 187.46 172.119 187.656 171.859ZM186.068 172.294C185.015 172.675 185.031 173.251 186.073 172.501C186.113 172.472 186.108 172.283 186.068 172.294ZM180.548 175.139C179.818 175.31 179.332 176.146 180.367 175.588C180.672 175.423 180.626 175.122 180.548 175.139ZM198.372 164.763C197.399 165.179 196.377 166.127 198.373 165.11C197.698 165.528 197.038 165.942 196.367 166.364C198.177 165.546 198.579 165.132 198.872 164.835C199.019 164.69 199.143 164.571 199.387 164.451C200.452 163.927 200.554 164.334 200.404 164.555C201.139 163.891 204.829 161.982 207.204 160.973C205.059 161.73 201.895 163.115 200.03 164.015C199.58 164.231 199.205 164.51 198.819 164.735C198.743 164.779 198.667 164.821 198.59 164.859C197.871 165.216 198.427 164.741 198.376 164.761C198.375 164.762 198.373 164.762 198.372 164.763ZM173.421 179.058C171.455 179.867 172.861 179.669 173.871 179.015C173.912 178.985 173.47 179.038 173.421 179.058ZM46.1194 186.874C47.9481 184.645 46.9565 186.527 50.0534 181.416C48.8566 183.624 50.1462 181.654 49.9634 182.12C49.8131 182.497 48.9208 183.624 49.5584 183.052C48.7345 183.859 45.9686 187.876 45.8361 188.005C45.8372 188.004 45.8383 188.002 45.8395 188.001C45.7512 188.091 45.5462 187.571 46.1194 186.874ZM187.018 170.724C186.104 170.538 186.322 171.513 184.857 171.751C183.58 173.288 189.359 169.262 190.401 169.395C183.697 173.002 195.105 167.505 190.003 169.259C194.008 167.443 191.208 168.468 191.746 168.04C192.322 167.581 194.566 166.516 194.353 166.377C194.352 166.377 194.351 166.378 194.349 166.379C193.018 167.118 191.692 167.86 190.37 168.603C191.906 168.315 189.116 169.678 188.007 169.839C187.678 170.134 187.348 170.429 187.018 170.724ZM194.767 166.998C194.625 167.06 191.758 168.7 191.995 168.683C192.408 168.524 196.496 166.223 194.767 166.998ZM208.186 160.265C206.925 160.732 205.105 161.453 204.573 161.91C205.692 161.375 207.561 160.686 208.186 160.265ZM169.098 182.2C169.578 180.824 167.658 184.829 168.361 183.742C168.388 183.694 169.07 182.269 169.098 182.2ZM184.065 172.461C182.637 173.041 183.554 173.204 184.472 172.521C184.525 172.482 184.131 172.434 184.065 172.461ZM47.3943 184.944C47.3284 184.788 49.7917 181.475 50.2197 180.867C50.082 181.294 47.4545 185.145 47.3943 184.944ZM210.334 158.977C207.343 159.289 204.513 161.343 204.184 161.475C203.844 161.621 204.271 161.169 204.192 161.2C203.987 161.261 200.543 162.997 200.406 163.099C200.295 163.17 201.054 163.137 200.399 163.587C201.587 162.693 208.192 159.758 208.743 159.67C209.055 159.548 206.597 159.987 210.329 158.979C210.331 158.978 210.333 158.978 210.334 158.977ZM203.322 161.811C204.252 161.506 201.816 162.711 201.23 162.964C199.888 163.521 203.189 161.843 203.322 161.811ZM197.559 164.626C197.281 164.737 194.887 165.991 194.758 166.232C195.967 165.794 198.193 164.367 197.559 164.626ZM171.478 178.959C170.88 179.307 169.173 180.095 169.137 180.26C169.732 179.922 171.449 179.123 171.478 178.959ZM54.5908 172.795C53.8336 173.679 55.3524 171.453 55.8389 170.856C55.942 170.86 54.6519 172.725 54.5908 172.795ZM183.238 171.502C182.854 171.669 175.586 175.808 174.591 176.419C175.639 175.959 182.895 171.949 183.206 171.722C183.295 171.656 183.286 171.482 183.238 171.502ZM199.26 162.72C199.863 162.191 200.443 162.153 200.528 162.113C201.411 161.688 203.264 160.735 202.937 161.101C201.288 161.805 198.041 163.785 199.26 162.72ZM170.548 178.48C168.113 179.878 172.955 177.484 172.237 177.644C172.189 177.657 170.803 178.334 170.548 178.48ZM184.03 170.999C184.499 170.559 191.93 166.614 193.134 165.971C192.201 166.802 191.24 167.08 189.82 167.876C189.436 168.092 189.598 168.138 189.556 168.161C188.894 168.531 189.326 168.138 188.914 168.362C188.651 168.502 183.36 171.617 184.03 170.999ZM199.597 162.396C199.934 162.067 204.892 159.583 205.188 159.535C206.789 159.002 199.902 162.213 199.597 162.396ZM183.235 171.15C183.862 170.424 187.622 168.599 185.202 170.125C184.971 170.27 183.891 170.703 183.235 171.15ZM170.664 178.059C170.527 178.125 167.942 179.439 167.939 179.556C168.324 179.406 172.094 177.406 170.664 178.059ZM171.827 177.021C171.767 177.056 172.466 176.906 171.248 177.541C171.144 177.594 170.848 177.498 169.372 178.39C169.074 178.57 168.67 178.957 168.708 178.948C170.449 178.428 174.898 175.206 171.827 177.021ZM199.599 162.187C199.294 162.237 199.793 161.656 200.426 161.496C200.699 161.428 200.322 161.81 199.599 162.187ZM162.979 181.86C163.199 181.729 163.181 181.697 163.019 181.733C162.94 181.75 162.836 181.776 162.757 181.792C162.688 181.808 162.623 181.808 162.809 181.763C162.913 181.742 163.085 181.705 163.453 181.695C163.841 181.698 164.476 181.679 165.548 182.106C166.608 182.487 167.953 183.716 168.432 184.757C168.944 185.775 168.988 186.43 169.026 186.802C169.065 187.56 168.999 187.624 168.993 187.714C168.979 187.774 168.976 187.759 168.971 187.758C168.943 187.73 168.919 187.853 168.939 187.431C168.917 187.197 169.052 186.8 168.616 185.479C168.39 184.833 167.844 183.859 166.977 183.136C166.105 182.392 165.155 182.066 164.572 181.946C163.356 181.727 163.052 181.889 162.875 181.901C162.708 181.937 162.716 181.946 162.742 181.94C162.807 181.928 162.966 181.87 162.979 181.86ZM55.0588 169.816C55.058 169.817 55.0572 169.818 55.0564 169.82C55.9224 168.663 55.5238 169.477 55.5663 169.424C57.5322 167.011 56.7883 167.498 57.0349 167.083C57.5619 166.193 57.7867 166.563 58.669 165.031C57.1904 167.542 58.632 165.328 58.7962 165.341C59.4482 165.417 56.3574 168.32 55.6177 169.575C55.5149 169.75 56.522 168.644 56.2672 169.095C55.4507 170.543 51.7144 174.286 55.0588 169.816ZM200.854 161.251C201.341 160.766 206.496 158.574 205.208 159.323C204.919 159.423 200.013 161.931 200.854 161.251ZM125.819 146.601C125.513 147.805 126.702 145.191 126.778 144.674C126.819 144.41 125.954 146.07 125.819 146.601ZM133.565 128.233C134.064 126.858 134.043 125.214 133.481 126.934C133.422 127.115 133.425 128.36 133.565 128.233ZM128.177 164.245C126.814 164.937 127.117 165.22 128.027 164.573C128.346 164.346 128.22 164.223 128.177 164.245ZM119.765 163.177C119.826 163.053 120.423 161.407 120.316 161.427C120.027 162.031 119.326 164.059 119.765 163.177ZM128.537 163.921C127.842 164.5 129.286 163.843 130.012 162.979C129.571 163.319 128.608 163.862 128.537 163.921ZM180.048 171.89C179.468 172.402 177.576 173.392 176.519 174.008C176.3 173.883 179.299 172.35 180.048 171.89ZM131.111 133.914C131.467 132.567 130.283 135.291 130.569 135.108C130.593 135.077 131.097 133.968 131.111 133.914ZM168.562 135.89C167.762 136.561 170.634 134.909 169.746 135.214C169.692 135.236 168.616 135.845 168.562 135.89ZM189.97 139.78C190.032 139.411 190.161 138.853 190.173 137.635C190.15 137.003 190.196 136.222 189.676 134.668C189.402 133.906 188.878 132.785 187.792 131.73C186.663 130.607 185.044 129.901 183.762 129.72C182.202 129.494 181.27 129.7 180.951 129.752C180.653 129.828 180.721 129.791 181.802 129.733C181.953 129.734 182.675 129.668 183.744 129.836C185.022 130.012 186.756 130.776 187.904 132.017C188.433 132.569 188.847 133.186 189.131 133.733C189.387 134.225 189.564 134.692 189.692 135.119C190.117 136.652 190.049 137.417 190.057 138.022C190.024 139.187 189.927 139.713 189.97 139.78ZM56.9571 166.923C56.5392 167.13 57.9525 165.224 58.1858 164.962C58.2755 164.863 57.4968 166.66 56.9571 166.923ZM120.104 169.838C119.486 170.299 117.79 171.397 117.559 171.695C118.339 171.136 120.443 169.886 120.104 169.838ZM128.852 139.779C129.503 138.758 130.223 136.824 129.746 137.186C128.949 139.313 130.107 137.035 128.852 139.779ZM132.52 160.792C131.998 161.139 131.773 161.668 131.841 161.638C132.481 161.351 133.097 160.528 132.52 160.792ZM114.288 178.322C114.421 178.328 115.03 176.451 114.866 176.663C114.804 176.75 114.18 178.311 114.288 178.322ZM169.95 187.054C170.141 186.731 170.038 187.138 169.917 187.56C169.858 187.767 169.808 187.959 169.804 187.955C169.794 187.962 169.855 187.67 169.818 187.114C169.76 186.803 169.751 187.252 169.699 187.564C169.65 187.879 169.605 187.969 169.631 187.878C169.674 187.698 169.933 187.075 169.95 187.054ZM146.843 150.729C146.807 150.519 144.287 152.439 145.398 151.846C145.678 151.696 146.85 150.803 146.843 150.729ZM172.141 133.163C171.243 133.852 172.792 132.987 174.472 132.08C176.082 131.18 178.35 130.165 176.751 130.732C176.33 130.834 172.235 133.045 172.141 133.163ZM188.689 145.741C188.842 145.36 189.395 145.776 188.613 147.241C188.512 147.429 188.683 146.435 188.588 146.586C188.543 146.687 187.249 149.937 187.202 150.074C187.156 150.242 187.422 150.125 187.38 150.298C187.339 150.484 186.404 152.387 185.994 153.398C185.223 155.304 185.297 155.561 185.233 155.723C185.052 156.166 184.624 156.885 184.246 157.794C183.733 159.026 183.149 160.436 182.533 161.904C180.755 166.126 178.592 170.469 177.075 172.918C178.766 169.856 180.114 166.761 181.546 163.432C181.493 163.988 181.97 162.762 182.308 161.808C182.622 160.917 182.823 160.301 182.37 161.835C182.353 161.892 182.335 161.952 182.316 162.015C182.333 161.967 182.355 161.908 182.382 161.84C183.246 159.736 188.288 147.123 188.688 145.745C188.688 145.744 188.689 145.742 188.689 145.741ZM135.804 122.933C135.687 123.848 137.296 119.543 137.198 119.088C136.947 119.641 135.821 122.82 135.804 122.933ZM128.685 142.891C128.57 143.297 128.816 143.853 127.818 145.842C127.817 145.844 127.816 145.846 127.816 145.848C127.523 146.433 127.691 145.702 127.613 145.801C127.585 145.831 126.647 147.677 127.227 146.07C128.1 143.652 127.613 145.96 128.109 144.681C128.169 144.526 128.891 142.002 128.787 142.13C128.775 142.143 128.542 142.887 128.476 142.999C128.224 143.431 128.185 143.158 128.154 143.221C128.054 143.435 126.791 147.36 126.391 147.845C126.257 148.012 128.553 141.625 128.674 141.405C128.754 141.257 129.076 141.456 129.173 141.308C129.223 141.229 130.069 138.642 130.228 138.325C130.274 138.233 130.312 138.163 130.341 138.113C130.085 138.457 130.982 136.153 131.074 136.275C131.108 136.33 130.469 137.905 130.438 137.96C130.425 137.983 130.412 138.003 130.401 138.022C130.658 137.746 128.589 143.102 129.23 142.02C128.742 143.606 129.027 141.692 128.685 142.891ZM126.029 150.446C126.054 150.273 126.078 150.098 126.103 149.923C125.152 152.673 123.777 155.734 122.583 158.87C122.282 159.661 122.855 158.831 122.392 159.861C122.022 160.687 121.473 161.505 121.595 161.044C121.618 160.948 122.415 159.261 122.716 158.432C123.634 155.902 123.202 156.459 123.252 156.312C123.304 156.158 124.046 154.622 124.371 153.755C125.181 151.592 125.447 150.546 126.738 147.644C126.214 149.387 126.842 148.571 126.029 150.446ZM157.48 142.525C157.494 142.357 159.141 141.35 159.708 140.935C159.682 141.11 158.034 142.115 157.48 142.525ZM106.228 96.2895C106.058 96.8834 108.689 93.3613 107.864 94.1938C107.684 94.3737 106.56 95.8355 106.228 96.2895ZM118.067 80.3966C118.369 79.8915 116.84 81.6908 116.969 81.7933C117.017 81.8178 118.031 80.4568 118.067 80.3966ZM113.208 184.842C113.204 184.868 113.123 185.16 113.093 185.26C113.076 185.313 113.074 185.301 113.077 185.223C113.08 185.149 113.083 185.006 113.081 184.994C113.06 184.816 113.034 184.728 113.017 184.8C112.999 184.868 112.981 185.042 112.962 185.147C112.921 185.377 112.927 185.249 112.996 185.013C113.062 184.778 113.166 184.485 113.22 184.399C113.278 184.305 113.276 184.427 113.208 184.842ZM132.577 60.9912C131.394 62.7009 135.348 57.8375 134.011 59.2284C133.944 59.2971 132.629 60.9137 132.577 60.9912ZM138.069 54.1609C137.744 54.5596 136.276 56.2339 136.308 56.3001C136.361 56.3967 138.032 54.4813 138.069 54.1609ZM132.403 159.892C132.072 159.834 134.519 158.323 135.315 157.721C135.647 157.78 133.202 159.29 132.403 159.892ZM117.538 170.071C127.286 163.095 125.397 165.045 117.014 170.57C116.915 170.452 116.921 170.507 117.538 170.071ZM130.18 161.282C129.906 161.663 128.768 162.411 127.997 162.939C128.075 162.754 129.646 161.694 130.18 161.282ZM102.882 100.339C103.161 99.6232 105.355 97.0076 105.062 97.5476C104.998 97.6636 102.797 100.636 102.882 100.339ZM113.309 185.321C113.375 185.303 113.398 185.428 113.442 185.259C113.458 185.147 113.512 184.988 113.466 184.275C113.439 183.934 113.369 183.373 113.137 182.676C112.911 181.959 112.445 181.129 112.128 180.714C111.669 179.98 110.026 178.541 108.598 178.123C107.177 177.654 106.354 177.73 105.895 177.749C105.437 177.785 105.241 177.837 105.109 177.869C104.986 177.902 104.942 177.921 104.92 177.932C104.824 177.989 104.837 178.01 104.853 178.022C104.876 178.033 104.919 178.026 105.115 177.989C105.344 177.968 105.654 177.814 106.966 177.917C107.626 177.985 108.644 178.195 109.719 178.799C110.798 179.388 111.641 180.299 112.001 180.807C112.626 181.552 113.256 183.32 113.288 183.98C113.381 184.721 113.34 184.993 113.337 185.138C113.314 185.415 113.318 185.316 113.309 185.321ZM146.314 149.777C146.735 149.255 148.283 148.274 149.244 147.598C148.896 148.034 147.131 149.202 146.314 149.777ZM139.313 154.568C139.369 154.519 140.714 153.585 140.779 153.549C141.976 152.918 138.172 155.562 139.313 154.568ZM52.4672 170.449C52.4922 170.404 53.231 169.379 53.255 169.357C54.0389 168.551 51.8498 171.586 52.4672 170.449Z" fill="black"/>
<path d="M60.3075 66.5642C61.8267 60.0774 60.172 54.3714 60.7143 46.9464C60.745 46.5593 60.7554 46.3462 60.7747 46.0479C60.7776 45.9893 60.7786 45.9467 60.7776 45.9273C60.778 45.9075 60.7699 45.8898 60.7666 46.1242C60.7664 46.1845 60.767 46.2624 60.7728 46.3745C60.7748 46.4088 60.7746 46.4123 60.7799 46.4846C60.7918 46.6272 60.8081 46.8109 60.8661 47.1082C60.9335 47.4103 61.0031 47.8159 61.3693 48.5556C61.7284 49.223 62.5545 50.6714 64.7527 51.3811C66.9983 52.0761 68.984 51.1061 69.7013 50.5427C69.8046 50.4674 69.8978 50.3941 69.9827 50.3236C70.0665 50.2543 70.153 50.1764 70.1668 50.1638C70.227 50.1091 70.2825 50.0565 70.3341 50.0057C70.4372 49.9041 70.5247 49.8103 70.6015 49.7235C70.9049 49.3765 71.0551 49.1398 71.1706 48.9551C71.3904 48.5912 71.4596 48.4184 71.5176 48.2898C71.6264 48.0301 71.6124 48.049 71.6258 48.0169C71.6337 47.9954 71.6353 47.9913 71.6335 47.9982C71.5481 48.2964 71.3258 49.128 71.1265 49.7969C68.4618 58.9868 66.5457 60.0904 64.112 71.0353C63.1877 74.5003 62.8757 77.1558 60.3825 81.5289C59.5177 82.6863 58.5985 83.8291 57.0326 84.9116C56.2404 85.4334 55.2059 85.9946 53.7553 86.1324C52.3059 86.2959 50.6769 85.7014 49.7632 84.965C47.9648 83.4663 47.5744 82.3633 46.9781 81.3348C46.4482 80.3133 46.0492 79.3963 45.6815 78.555C44.956 76.8783 44.3702 75.5058 43.8024 74.5522C43.7605 74.4813 43.7188 74.4123 43.6772 74.3456C43.3547 73.8061 43.1198 73.446 42.8018 72.5824C42.7514 72.4301 42.7165 72.3405 42.643 72.0303C42.6106 71.871 42.5775 71.7702 42.5432 71.3601C42.532 71.1596 42.52 70.9666 42.5635 70.5844C42.6346 70.0891 42.7877 69.2234 43.6601 68.3149C44.6577 67.2031 46.5007 67.0687 46.989 67.2084C47.4969 67.287 47.818 67.4188 48.0629 67.5286C48.3325 67.6557 48.4043 67.7056 48.508 67.7673C48.6042 67.8267 48.6846 67.8814 48.7558 67.9323C49.042 68.1422 49.1024 68.207 49.233 68.3244C49.5979 68.6726 49.7512 68.8752 49.9161 69.0867C50.5261 69.9005 50.8539 70.5996 51.2368 71.3678C51.9845 72.8911 52.8381 74.6198 55.2231 77.2C55.3447 77.3317 55.4665 77.4644 55.5885 77.5982C60.1031 82.5299 62.5029 86.0087 65.6644 91.1008C68.9207 96.329 80.1013 111.47 85.0003 116.313C89.9107 121.155 93.5189 128.243 96.112 132.164C96.9228 133.388 97.5041 134.387 97.9201 135.182C98.0959 135.519 98.0902 135.742 97.9799 135.828C97.9798 135.828 97.9797 135.828 97.9797 135.828C97.8422 135.935 97.5427 135.828 97.2307 135.462C95.7194 133.691 93.3576 131.112 90.3319 128.26C84.6852 122.942 85.1945 121.478 78.3258 113.715C71.4471 105.951 66.6484 101.822 59.6828 91.8052C56.3455 87.0105 53.6063 84.4731 50.656 81.5579C49.3878 80.3035 48.0893 78.9872 46.6756 77.4047C45.9759 76.6246 45.2324 75.7533 44.5028 74.8966C44.3279 74.6918 44.1374 74.4713 44.0052 74.3229C43.9404 74.248 43.8637 74.1742 43.9525 74.2485C43.9877 74.2766 44.0074 74.2952 44.1289 74.3839C44.192 74.4291 44.2743 74.4859 44.3947 74.5574C44.4834 74.606 44.7358 74.7706 45.2332 74.9273C45.3592 74.966 45.5033 75.0037 45.671 75.0352C45.8454 75.0641 45.9908 75.099 46.4176 75.1043C47.1582 75.1257 48.3268 74.809 49.1212 74.0704C50.5495 72.7057 50.4228 71.4386 50.4668 71.2339C50.4791 70.876 50.4481 70.6618 50.4263 70.5132C50.409 70.4046 50.3919 70.327 50.3774 70.267C50.3207 70.0468 50.3136 70.0626 50.3128 70.0634C50.3137 70.0753 50.3249 70.1144 50.3425 70.1677C50.3757 70.2694 50.4272 70.4116 50.4829 70.5628C50.5946 70.8657 50.7254 71.2126 50.8575 71.5801C51.432 73.1832 51.9039 74.8296 52.4508 76.5216C52.7022 77.2985 52.9663 77.9996 53.2288 78.5644C53.4695 79.1183 53.8167 79.5727 53.7401 79.5444C53.7017 79.5382 53.5719 79.4797 53.4061 79.4594C53.2406 79.436 53.0767 79.4622 53.0155 79.4877C52.8864 79.5485 53.0935 79.5006 53.3166 79.3212C53.7913 78.9632 54.339 78.282 54.7636 77.5954C56.737 72.0715 56.069 66.2591 58.52 54.5823C58.9005 52.7248 59.3172 50.8139 59.7783 48.8522C60.01 47.8713 60.2451 46.8946 60.5331 45.8145C60.5912 45.5992 60.6965 45.2125 60.7789 44.9414C60.8438 44.7254 60.9072 44.5165 61.0143 44.2244C61.0677 44.0823 61.1372 43.8866 61.2998 43.553C61.3866 43.3802 61.4927 43.1678 61.7231 42.8274C61.8411 42.6562 61.9911 42.4505 62.2311 42.1879C62.2915 42.1222 62.3578 42.053 62.432 41.98C62.4691 41.9436 62.5082 41.9061 62.5495 41.8678C62.5973 41.8243 62.607 41.8124 62.7515 41.689C63.2213 41.3053 63.964 40.7437 65.299 40.4659C66.6105 40.1561 68.4812 40.5482 69.5445 41.3319C70.644 42.0968 71.0994 42.8779 71.3815 43.4004C71.9 44.4644 71.9002 44.8989 71.9673 45.2478C71.99 45.4092 72.0037 45.5704 72.0084 45.6388C72.0103 45.6664 72.012 45.6929 72.0135 45.7183C72.0164 45.7691 72.0184 45.8158 72.0199 45.8594C72.0257 46.0333 72.024 46.1615 72.0211 46.2748C71.9454 47.5705 71.8711 47.7381 71.7776 48.4381C69.6416 62.3936 67.0962 77.2411 64.5565 85.6685C64.0642 87.3383 63.4841 89.126 62.4993 91.0906C61.4641 92.9474 60.2256 95.5573 56.4088 97.0951C45.8623 99.7441 36.7935 98.5949 26.506 98.2548C25.4382 98.2017 24.3405 98.1599 23.3097 98.1561C23.0861 98.1547 22.7821 98.1583 22.586 98.1636C22.3545 98.1696 22.1522 98.1828 22.0979 98.1878C22.1265 98.1659 22.01 98.2573 22.7366 97.9964C22.8298 97.9583 22.9388 97.91 23.0687 97.8423C23.1069 97.8222 23.2656 97.7396 23.448 97.617C23.6291 97.4953 23.8405 97.335 24.0741 97.1016C24.5305 96.6557 25.1293 95.7894 25.2711 94.6672C25.3475 94.1289 25.2932 93.5275 25.1898 93.1192C25.1105 92.7901 24.9994 92.5022 24.8808 92.2587C24.3812 91.289 23.9151 90.9815 23.648 90.7639C23.3318 90.5383 23.3175 90.5485 23.2349 90.4991C22.9612 90.357 22.9805 90.3839 23.009 90.391C23.0417 90.4035 23.1201 90.4303 23.232 90.4641C33.815 93.5173 47.839 98.0052 56.6885 99.2616C57.8547 99.2055 58.5251 98.8543 58.7259 98.7054C58.7447 98.6918 58.763 98.6776 58.7813 98.6618C58.8197 98.6968 59.0738 98.2411 59.2372 97.733C59.3243 97.4752 59.4054 97.1866 59.4726 96.9019C59.5062 96.7597 59.5367 96.6158 59.5607 96.4939C59.5728 96.4323 59.5828 96.3774 59.5896 96.3536C59.5929 96.3454 59.5949 96.3377 59.596 96.3931C59.5973 96.4216 59.5948 96.4566 59.6043 96.6253C59.6076 96.6785 59.6124 96.7447 59.6234 96.8396C59.6295 96.8905 59.6345 96.9314 59.6485 97.019C59.6716 97.1525 59.6995 97.3225 59.7956 97.6211C59.8458 97.7718 59.9131 97.957 60.0405 98.206C60.1048 98.3306 60.1849 98.4716 60.2942 98.632C60.3216 98.6721 60.3508 98.7134 60.3822 98.7559C60.3979 98.7771 60.4142 98.7987 60.431 98.8205C60.4665 98.8667 60.5132 98.9248 60.5599 98.9793C60.7495 99.2003 61.0027 99.4515 61.3577 99.6935C62.0382 100.193 63.2976 100.537 64.3093 100.332C65.3294 100.147 65.9428 99.6855 66.3064 99.3671C66.4915 99.2014 66.6251 99.0536 66.732 98.9243C66.8052 98.8345 66.8103 98.8261 66.8455 98.7798C66.9037 98.702 66.9522 98.6316 66.9943 98.5671C67.3111 98.0614 67.3525 97.8707 67.4146 97.7138C67.5058 97.4199 67.4685 97.4927 67.4617 97.5163C67.4493 97.5494 67.4252 97.6454 67.409 97.7057C67.3718 97.8495 67.3282 98.0435 67.2891 98.2187C67.206 98.599 67.1258 98.9887 67.0469 99.377C66.8872 100.168 66.7263 101.004 66.5684 101.82C66.2496 103.477 65.928 105.169 65.5925 106.878C65.2559 108.589 64.9106 110.312 64.5205 112.058C64.3217 112.94 64.1208 113.808 63.8562 114.759C63.7913 114.988 63.7152 115.25 63.6294 115.514C63.5906 115.631 63.5344 115.801 63.4742 115.963C63.4439 116.044 63.412 116.126 63.377 116.211C63.3358 116.313 63.2787 116.446 63.2133 116.58C63.18 116.648 63.1431 116.72 63.1001 116.797C63.0786 116.836 63.0555 116.876 63.0304 116.918C62.9908 116.985 62.9438 117.06 62.8888 117.14C62.7775 117.3 62.636 117.489 62.3982 117.713C62.2787 117.825 62.1335 117.946 61.9477 118.068C61.7233 118.221 61.2359 118.476 60.6866 118.556C60.1303 118.651 59.4748 118.566 58.9756 118.351C58.724 118.246 58.5077 118.118 58.328 117.987C58.2082 117.9 58.1238 117.828 58.0383 117.749C57.7062 117.438 57.5328 117.167 57.4068 116.949C57.2883 116.743 57.1932 116.505 57.1698 116.438C57.1371 116.35 57.1106 116.268 57.0878 116.191C56.9059 115.518 56.9233 115.369 56.879 114.998C56.1724 105.489 55.6523 96.6298 55.4056 91.1142C54.9417 80.5395 54.8312 77.9625 53.3394 67.9031C52.4815 62.1176 51.8505 54.0975 51.9573 47.2481C52.0085 43.7996 52.7108 44.4937 53.3935 47.8856C54.3881 52.8447 54.5456 56.9896 55.5912 59.4862C57.6793 64.4803 58.4995 66.6087 58.3006 73.2125C58.1016 79.8156 60.4561 82.6637 60.6322 86.4784C60.825 90.2876 59.552 90.3811 62.7093 109.504C62.9816 111.125 63.2456 112.691 63.499 114.181C63.5161 114.272 63.5318 114.326 63.5381 114.326C63.5415 114.33 63.5413 114.307 63.5242 114.234C63.5155 114.198 63.5024 114.15 63.4807 114.084C63.4687 114.049 63.4606 114.024 63.437 113.964C63.4063 113.888 63.3657 113.794 63.3047 113.679C63.1788 113.451 62.9919 113.113 62.5111 112.692C62.4506 112.64 62.3853 112.587 62.3146 112.535C62.2047 112.454 62.0642 112.361 61.9152 112.279C61.6154 112.114 61.2452 111.97 60.8424 111.896C60.0279 111.735 59.1686 111.922 58.6394 112.188C58.5048 112.252 58.378 112.324 58.2789 112.387C58.2149 112.427 58.1556 112.467 58.1003 112.507C57.9899 112.587 57.896 112.664 57.8144 112.736C57.6516 112.882 57.5373 113.009 57.4483 113.117C57.2767 113.325 57.1761 113.501 57.1469 113.55C57.003 113.807 57.0152 113.808 57.0125 113.788C57.0419 113.639 57.1434 113.143 57.2085 112.728C57.3521 111.847 57.4751 110.908 57.5886 109.995C57.8136 108.167 58.0018 106.403 58.1793 104.732C58.3563 103.061 58.5204 101.472 58.6831 99.9695C58.7659 99.209 58.8481 98.4693 58.9344 97.7498C58.9818 97.3634 59.0265 97.0061 59.0788 96.632C59.1047 96.4461 59.1377 96.2281 59.1709 96.0284C59.2303 95.7403 59.2038 95.6666 59.4374 94.9191C59.5185 94.7179 59.5609 94.4889 59.9735 93.8583C60.0289 93.7778 60.0932 93.6895 60.1714 93.5919C60.3836 93.3366 60.7299 92.9192 61.4582 92.5015C62.1537 92.0817 63.5008 91.7336 64.729 92.0759C65.9599 92.3989 66.6962 93.1199 67.0769 93.5942C67.748 94.4913 67.773 94.852 67.8845 95.1635C68.0423 95.7816 68.0091 95.7956 68.0319 95.9324C68.0436 96.045 68.049 96.1291 68.0527 96.2015C68.0627 96.4112 68.0595 96.5257 68.0589 96.6019C68.0557 96.779 68.0503 96.8776 68.0451 96.9759C68.0337 97.1763 68.0212 97.3287 68.0066 97.4865C67.9781 97.7914 67.9439 98.0704 67.9045 98.3466C67.8252 98.8983 67.7262 99.4265 67.5979 99.9659C67.3264 101.047 67.0197 102.131 66.2013 103.472C63.7049 107.286 60.0356 108.148 57.5594 108.469C56.8052 108.55 56.193 108.541 55.6814 108.525C46.5547 107.808 33.0046 101.884 21.2793 98.8985C21.1072 98.8528 20.9323 98.8062 20.7547 98.7587C20.5423 98.6994 20.337 98.6382 20.1262 98.5679C19.9594 98.5111 19.5993 98.3933 19.1382 98.1556C19.0789 98.1247 19.0166 98.091 18.9504 98.0531C18.8807 98.0121 18.8349 97.9894 18.645 97.8632C18.3249 97.6327 17.8773 97.349 17.3235 96.52C17.1889 96.31 17.053 96.0609 16.9343 95.7646C16.8143 95.4415 16.7224 95.225 16.6413 94.591C16.4913 93.4606 16.9311 92.1829 17.467 91.4913C18.0022 90.77 18.5063 90.4474 18.8729 90.2281C19.1383 90.0778 19.222 90.0439 19.3707 89.9772C19.8959 89.7542 20.2303 89.6885 20.4839 89.6336C20.6575 89.5978 20.8116 89.5725 20.9596 89.5512C22.0194 89.4134 22.6464 89.4119 23.3525 89.3865C24.7472 89.3511 26.1265 89.3607 27.571 89.3761C30.4397 89.4097 33.4934 89.4818 36.5964 89.5138C42.5982 89.5623 49.9325 89.5605 53.3857 88.4546C53.2107 88.5125 53.3874 88.4454 53.6517 88.082C53.9125 87.737 54.2226 87.19 54.4826 86.6087C55.0162 85.4224 55.3987 84.1106 55.6559 82.9988C57.3383 74.2118 58.3957 74.1468 60.3075 66.5642Z" fill="#FF9DF5"/>
<path d="M195.012 145.886C194.351 146.515 193.741 147.144 193.16 147.778C190.366 150.541 188.593 154.005 182.604 155.572C182.29 155.616 182.068 155.643 181.795 155.678C181.759 155.683 181.715 155.688 181.665 155.695C181.644 155.698 181.628 155.7 181.621 155.701C181.618 155.701 181.617 155.701 181.619 155.7C181.622 155.699 181.614 155.701 181.632 155.697C181.65 155.693 181.669 155.691 181.769 155.662C181.826 155.642 181.883 155.635 182.106 155.526C182.222 155.453 182.392 155.411 182.741 155.006C182.904 154.8 183.144 154.425 183.172 153.856C183.21 153.288 182.924 152.714 182.664 152.446C182.123 151.907 181.867 151.928 181.709 151.863C181.551 151.822 181.473 151.815 181.41 151.807C181.295 151.795 181.232 151.797 181.221 151.797C181.203 151.797 181.189 151.797 181.177 151.797C181.154 151.798 181.14 151.798 181.13 151.799C181.109 151.8 181.104 151.801 181.104 151.802C181.102 151.803 181.134 151.801 181.15 151.8C181.178 151.798 181.215 151.796 181.26 151.793C181.464 151.777 181.603 151.768 181.801 151.752C181.957 151.741 182.146 151.726 182.317 151.713C182.474 151.702 182.638 151.691 182.809 151.679C183.441 151.636 184.034 151.603 184.586 151.577C185.692 151.525 186.617 151.504 187.597 151.469C189.54 151.401 191.598 151.276 195.205 150.819C198.194 150.49 200.791 150.08 204.05 150.246C204.393 150.313 204.619 150.363 204.974 150.486C205.168 150.555 205.353 150.636 205.543 150.755C205.83 150.959 206.188 151.158 206.357 151.91C206.421 152.255 206.322 152.639 206.233 152.82C206.15 153.002 206.05 153.141 205.952 153.258C205.722 153.516 205.626 153.573 205.472 153.691C205.144 153.92 204.968 154.006 204.701 154.143C203.769 154.594 202.951 154.864 202.168 155.131C200.618 155.646 199.361 156.014 198.428 156.355C195.344 157.454 194.814 156.797 190.374 158.005C185.918 159.183 183.167 159.65 179.14 160.115C178.437 160.187 177.536 160.325 176.38 160.389C175.894 160.391 175.329 160.413 174.682 160.067C173.99 159.699 173.746 158.856 173.733 158.281C173.731 158.259 173.733 158.193 173.736 158.171C174.861 152.833 177.667 146.637 178.565 143.65C179.293 141.4 180.325 139.087 181.335 136.997L181.331 137.008C182.203 135.112 182.977 133.376 183.355 131.984C183.607 131.072 183.773 130.34 183.915 129.778C183.975 129.54 184.041 129.436 184.09 129.442C184.09 129.442 184.09 129.442 184.09 129.442C184.15 129.452 184.186 129.634 184.146 129.946C183.984 131.465 183.541 133.749 182.752 136.356C182.639 136.744 182.529 137.101 182.42 137.439C182.419 137.441 182.417 137.448 182.416 137.45C181.114 141.272 180.367 142.003 178.285 147.882C176.946 151.845 175.905 155.006 175.388 158.372L175.393 158.159C175.409 158.319 175.443 158.45 175.472 158.508C175.505 158.57 175.497 158.541 175.504 158.547C175.508 158.568 175.86 158.648 176.275 158.614C177.496 158.502 179.171 158.213 180.859 157.961C188.692 156.629 190.372 155.36 201.152 152.853C202.185 152.571 203.138 152.264 203.81 151.923C203.95 151.856 204.123 151.738 204.137 151.727C204.15 151.729 204.096 151.731 204.026 151.984C203.992 152.119 204.003 152.322 204.067 152.472C204.125 152.609 204.186 152.674 204.231 152.719C204.398 152.847 204.256 152.73 204.119 152.699C204.004 152.662 203.842 152.623 203.644 152.588C197.698 152.754 194.931 154.058 186.057 155.195C185.128 155.32 184.197 155.439 183.232 155.557C182.747 155.616 182.271 155.673 181.764 155.728C181.688 155.736 181.621 155.743 181.562 155.749C181.539 155.751 181.488 155.756 181.426 155.761C181.396 155.763 181.366 155.766 181.32 155.768C181.297 155.769 181.27 155.77 181.228 155.771C181.175 155.763 181.311 155.798 180.844 155.738C180.699 155.687 180.53 155.758 179.916 155.304C179.624 155.086 179.148 154.426 179.202 153.672C179.253 152.933 179.599 152.556 179.776 152.367C180.163 152.003 180.296 151.996 180.404 151.936C180.506 151.893 180.56 151.876 180.604 151.862C180.888 151.782 180.833 151.806 180.855 151.799C180.867 151.797 180.877 151.795 180.888 151.793C180.909 151.789 180.928 151.785 180.948 151.782C180.988 151.775 181.03 151.768 181.077 151.761C181.154 151.748 181.192 151.743 181.259 151.733C181.573 151.686 181.719 151.666 182.028 151.622C184.893 151.064 188.373 148.256 191.009 145.684C195.082 141.732 198.524 137.96 200.557 135.352C203.622 131.454 207.179 126.335 210.525 120.486C211.708 118.422 212.922 116.314 214.142 114.175C217.445 108.223 221.373 100.974 222.479 93.6168C222.878 90.6128 223.122 87.6098 223.246 84.6917C223.699 76.8474 222.28 66.4979 220.032 59.2554C219.332 56.8782 218.7 54.7956 218.208 53.1771C216.17 46.5728 215.652 44.9624 213.088 38.824C211.596 35.3068 209.635 30.4306 207.857 26.3559C206.934 24.3075 207.381 24.6408 208.523 26.5989C210.165 29.4813 211.154 32.026 212.079 33.4763C213.915 36.4003 214.663 37.6801 215.912 41.8116C217.141 45.9477 218.487 47.6114 219.245 50.0104C219.839 51.9399 219.721 52.3603 221.854 58.6617C222.38 60.2328 223.007 62.1793 223.679 64.6439C226.949 77.1678 226.43 84.492 226.251 89.3608C226.178 90.62 226.019 92.2362 225.755 94.0511C224.98 99.6464 221.748 106.146 219.136 111.396C217.737 114.222 215.604 118.099 213.342 122.088C209.908 128.229 205.516 134.238 203.15 137.374C199.195 142.56 198.767 142.238 195.012 145.886Z" fill="#9DCCFF"/>
</svg>
