<svg width="272" height="272" viewBox="0 0 272 272" fill="none" xmlns="http://www.w3.org/2000/svg">
<rect x="1.52588e-05" width="272" height="272" fill="white"/>
<path d="M117.699 183.761C105.024 181.902 94.5393 181.209 80.3589 179.543C78.1818 179.288 75.9716 179.02 73.6733 178.727C57.1631 176.915 53.2341 174.96 36.9965 175.408C36.8839 175.441 36.7722 175.493 36.8033 175.479C36.8136 175.455 36.9503 175.455 37.1038 175.057C37.1734 174.849 37.1367 174.596 37.083 174.475C37.0224 174.331 36.9838 174.298 36.9571 174.264C36.8665 174.175 36.9631 174.265 37.0586 174.31C37.1508 174.36 37.2778 174.42 37.4067 174.475C37.9415 174.703 38.558 174.909 39.186 175.108C47.1437 177.458 55.3467 179.364 62.7663 181.231C73.4816 183.878 82.662 186.102 87.9513 187.216C96.9401 189.102 97.7184 189.924 110.442 192.697C123.165 195.458 130.837 197.258 141.909 199.894C148.094 201.364 161.448 204.377 174.244 206.981C184.421 209.06 194.199 210.824 199.762 211.663C211.885 213.524 225.618 215.866 234.378 216.425C234.712 216.448 235.002 216.466 235.319 216.483C236.674 216.557 237.872 216.602 238.95 216.577C239.482 216.564 239.989 216.535 240.441 216.454C240.87 216.378 241.394 216.21 241.219 215.849C240.916 215.284 240.626 215.057 240.675 215.022C240.675 215.022 240.675 215.022 240.675 215.022C240.692 215.006 240.798 215.075 240.975 215.236C241.063 215.318 241.17 215.42 241.279 215.568C241.373 215.706 241.546 215.945 241.395 216.23C239.543 217.328 237.076 216.83 234.356 216.833C231.016 216.7 227.172 216.413 222.981 216.019C208.764 214.518 207.275 213.911 188.297 210.644C183.108 209.72 178.464 208.868 174.032 208.034C162.31 205.817 151.881 203.738 135.849 200.037C113.77 194.888 108.497 194.672 77.4493 186.843C71.5617 185.347 66.5758 184.106 62.3213 183.069C56.7185 181.702 52.2124 180.65 47.8897 179.628C45.7168 179.113 43.6571 178.626 41.4631 178.063C40.3836 177.784 39.2854 177.494 38.1633 177.152C37.5868 176.973 37.0258 176.797 36.3973 176.534C36.2539 176.473 36.0674 176.388 35.8992 176.297C35.6952 176.171 35.5321 176.13 35.1721 175.726C35.0399 175.594 34.6498 174.93 34.9336 174.265C35.185 173.712 35.4563 173.606 35.6105 173.493C35.939 173.302 36.1053 173.259 36.3023 173.189C43.1793 172.003 50.0389 173.138 60.0437 174.001C66.6942 174.684 73.6303 175.51 80.7464 176.408C107.485 179.81 135.563 183.962 150.632 185.952C168.389 188.304 191.829 191.415 216.758 194.871C218.621 195.128 220.421 195.377 222.243 195.63C227.017 196.292 232.013 196.962 237.135 197.652C239.697 198 242.294 198.344 244.937 198.745C245.589 198.847 246.259 198.951 246.957 199.091C247.099 199.12 247.334 199.171 247.514 199.221C247.578 199.238 247.639 199.256 247.702 199.277C247.775 199.303 247.787 199.301 247.955 199.377C248.027 199.411 248.108 199.452 248.22 199.535C248.248 199.557 248.278 199.581 248.311 199.61C248.344 199.643 248.366 199.652 248.475 199.788C248.664 199.986 248.851 200.618 248.627 201.054C248.536 201.261 248.397 201.409 248.32 201.478C248.273 201.521 248.229 201.555 248.189 201.583C248.108 201.639 248.042 201.673 247.984 201.7C247.87 201.753 247.788 201.777 247.714 201.797C247.084 201.933 246.86 201.91 246.47 201.94C245.067 202.006 243.753 202.018 242.385 202.044C222.643 202.504 201.692 201.284 182.337 199.372C178.975 199.039 175.469 198.674 171.82 198.273C143.212 195.122 108.082 190.111 90.8446 187.59C71.4169 184.728 66.6893 184.007 47.9375 181.473C46.4378 181.27 44.7883 181.043 43.1697 180.818C33.0591 179.417 20.5914 177.557 9.88512 175.914C3.594 174.998 5.04794 174.982 11.4014 175.73C20.692 176.861 28.2965 178.028 33.1124 178.484C37.1527 178.868 40.2313 179.167 43.3519 179.531C47.5852 180.025 51.8557 180.638 58.809 181.768C70.8415 183.72 76.5907 183.939 83.6064 184.976C90.6248 185.983 90.4548 186.424 126.257 190.817C145.774 193.17 160.526 194.787 172.062 195.913C181.717 196.853 189.174 197.456 195.347 197.895C205.589 198.626 224.275 199.973 242.347 199.608C243.833 199.583 245.347 199.581 246.714 199.498C246.868 199.487 247.054 199.467 247.099 199.456C247.095 199.464 247.114 199.429 246.884 199.547C246.813 199.594 246.791 199.585 246.613 199.766C246.508 199.881 246.377 200.081 246.331 200.344C246.281 200.607 246.342 200.887 246.43 201.061C246.65 201.441 246.692 201.393 246.743 201.453C246.793 201.492 246.83 201.515 246.859 201.532C246.974 201.594 246.95 201.575 246.947 201.576C246.937 201.573 246.913 201.565 246.878 201.555C246.642 201.49 246.233 201.412 245.924 201.357C245.224 201.232 244.516 201.124 243.804 201.017C240.962 200.599 238.131 200.229 235.428 199.878C230.171 199.198 223.629 198.345 216.42 197.383C193.479 194.315 164.174 190.282 150.383 188.56C132.275 186.294 132.292 185.914 117.699 183.761Z" fill="#ADFF9D"/>
<path d="M222.4 160.362V88.4721C222.4 71.4563 208.606 57.6621 191.59 57.6621H88.89C71.8742 57.6621 58.08 71.4563 58.08 88.4721V191.172C58.08 208.188 71.8742 221.982 88.89 221.982H155.645M222.4 160.362L155.645 221.982M222.4 160.362H176.185C164.841 160.362 155.645 169.558 155.645 180.902V221.982" stroke="#3E3E3E" stroke-width="9.48" stroke-linecap="round" stroke-linejoin="round"/>
<path d="M99.16 98.7432H181.32" stroke="#3E3E3E" stroke-width="8.12571" stroke-linecap="round" stroke-linejoin="round"/>
<path d="M99.16 139.823H140.24" stroke="#3E3E3E" stroke-width="8.12571" stroke-linecap="round" stroke-linejoin="round"/>
<rect x="30" width="2" height="272" fill="black" fill-opacity="0.09"/>
<rect x="162" width="2" height="272" fill="black" fill-opacity="0.09"/>
<rect x="96" width="2" height="272" fill="black" fill-opacity="0.09"/>
<rect x="228" width="2" height="272" fill="black" fill-opacity="0.09"/>
<rect x="52" width="2" height="272" fill="black" fill-opacity="0.09"/>
<rect x="184" width="2" height="272" fill="black" fill-opacity="0.09"/>
<rect x="118" width="2" height="272" fill="black" fill-opacity="0.09"/>
<rect x="74" width="2" height="272" fill="black" fill-opacity="0.09"/>
<rect x="206" width="2" height="272" fill="black" fill-opacity="0.09"/>
<rect x="140" width="2" height="272" fill="black" fill-opacity="0.09"/>
<rect x="272" y="36" width="2" height="272" transform="rotate(90 272 36)" fill="black" fill-opacity="0.09"/>
<rect x="272" y="168" width="2" height="272" transform="rotate(90 272 168)" fill="black" fill-opacity="0.09"/>
<rect x="272" y="102" width="2" height="272" transform="rotate(90 272 102)" fill="black" fill-opacity="0.09"/>
<rect x="272" y="234" width="2" height="272" transform="rotate(90 272 234)" fill="black" fill-opacity="0.09"/>
<rect x="272" y="58" width="2" height="272" transform="rotate(90 272 58)" fill="black" fill-opacity="0.09"/>
<rect x="272" y="190" width="2" height="272" transform="rotate(90 272 190)" fill="black" fill-opacity="0.09"/>
<rect x="272" y="124" width="2" height="272" transform="rotate(90 272 124)" fill="black" fill-opacity="0.09"/>
<rect x="272" y="80" width="2" height="272" transform="rotate(90 272 80)" fill="black" fill-opacity="0.09"/>
<rect x="272" y="212" width="2" height="272" transform="rotate(90 272 212)" fill="black" fill-opacity="0.09"/>
<rect x="272" y="146" width="2" height="272" transform="rotate(90 272 146)" fill="black" fill-opacity="0.09"/>
<path d="M60.3075 66.5642C61.8267 60.0774 60.172 54.3714 60.7143 46.9464C60.745 46.5593 60.7554 46.3462 60.7747 46.0479C60.7776 45.9893 60.7786 45.9467 60.7776 45.9273C60.778 45.9075 60.7699 45.8898 60.7666 46.1242C60.7664 46.1845 60.767 46.2624 60.7728 46.3745C60.7748 46.4088 60.7746 46.4123 60.7799 46.4846C60.7918 46.6272 60.8081 46.8109 60.8661 47.1082C60.9335 47.4103 61.0031 47.8159 61.3693 48.5556C61.7284 49.223 62.5545 50.6714 64.7527 51.3811C66.9983 52.0761 68.984 51.1061 69.7013 50.5427C69.8046 50.4674 69.8978 50.3941 69.9827 50.3236C70.0665 50.2543 70.153 50.1764 70.1668 50.1638C70.227 50.1091 70.2825 50.0565 70.3341 50.0057C70.4372 49.9041 70.5247 49.8103 70.6015 49.7235C70.9049 49.3765 71.0551 49.1398 71.1706 48.9551C71.3904 48.5912 71.4596 48.4184 71.5176 48.2898C71.6264 48.0301 71.6124 48.049 71.6258 48.0169C71.6337 47.9954 71.6353 47.9913 71.6335 47.9982C71.5481 48.2964 71.3258 49.128 71.1265 49.7969C68.4618 58.9868 66.5457 60.0904 64.112 71.0353C63.1877 74.5003 62.8757 77.1558 60.3825 81.5289C59.5177 82.6863 58.5985 83.8291 57.0326 84.9116C56.2404 85.4334 55.2059 85.9946 53.7553 86.1324C52.3059 86.2959 50.6769 85.7014 49.7632 84.965C47.9648 83.4663 47.5744 82.3633 46.9781 81.3348C46.4482 80.3133 46.0492 79.3963 45.6815 78.555C44.956 76.8783 44.3702 75.5058 43.8024 74.5522C43.7605 74.4813 43.7188 74.4123 43.6772 74.3456C43.3547 73.8061 43.1198 73.446 42.8018 72.5824C42.7514 72.4301 42.7165 72.3405 42.643 72.0303C42.6106 71.871 42.5775 71.7702 42.5432 71.3601C42.532 71.1596 42.52 70.9666 42.5635 70.5844C42.6346 70.0891 42.7877 69.2234 43.6601 68.3149C44.6577 67.2031 46.5007 67.0687 46.989 67.2084C47.4969 67.287 47.818 67.4188 48.0629 67.5286C48.3325 67.6557 48.4043 67.7056 48.508 67.7673C48.6042 67.8267 48.6846 67.8814 48.7558 67.9323C49.042 68.1422 49.1024 68.207 49.233 68.3244C49.5979 68.6726 49.7512 68.8752 49.9161 69.0867C50.5261 69.9005 50.8539 70.5996 51.2368 71.3678C51.9845 72.8911 52.8381 74.6198 55.2231 77.2C55.3447 77.3317 55.4665 77.4644 55.5885 77.5982C60.1031 82.5299 62.5029 86.0087 65.6644 91.1008C68.9207 96.329 80.1013 111.47 85.0003 116.313C89.9107 121.155 93.5189 128.243 96.112 132.164C96.9228 133.388 97.5041 134.387 97.9201 135.182C98.0959 135.519 98.0902 135.742 97.9799 135.828C97.9798 135.828 97.9797 135.828 97.9797 135.828C97.8422 135.935 97.5427 135.828 97.2307 135.462C95.7194 133.691 93.3576 131.112 90.3319 128.26C84.6852 122.942 85.1945 121.478 78.3258 113.715C71.4471 105.951 66.6484 101.822 59.6828 91.8052C56.3455 87.0105 53.6063 84.4731 50.656 81.5579C49.3878 80.3035 48.0893 78.9872 46.6756 77.4047C45.9759 76.6246 45.2324 75.7533 44.5028 74.8966C44.3279 74.6918 44.1374 74.4713 44.0052 74.3229C43.9404 74.248 43.8637 74.1742 43.9525 74.2485C43.9877 74.2766 44.0074 74.2952 44.1289 74.3839C44.192 74.4291 44.2743 74.4859 44.3947 74.5574C44.4834 74.606 44.7358 74.7706 45.2332 74.9273C45.3592 74.966 45.5033 75.0037 45.671 75.0352C45.8454 75.0641 45.9908 75.099 46.4176 75.1043C47.1582 75.1257 48.3268 74.809 49.1212 74.0704C50.5495 72.7057 50.4228 71.4386 50.4668 71.2339C50.4791 70.876 50.4481 70.6618 50.4263 70.5132C50.409 70.4046 50.3919 70.327 50.3774 70.267C50.3207 70.0468 50.3136 70.0626 50.3128 70.0634C50.3137 70.0753 50.3249 70.1144 50.3425 70.1677C50.3757 70.2694 50.4272 70.4116 50.4829 70.5628C50.5946 70.8657 50.7254 71.2126 50.8575 71.5801C51.432 73.1832 51.9039 74.8296 52.4508 76.5216C52.7022 77.2985 52.9663 77.9996 53.2288 78.5644C53.4695 79.1183 53.8167 79.5727 53.7401 79.5444C53.7017 79.5382 53.5719 79.4797 53.4061 79.4594C53.2406 79.436 53.0767 79.4622 53.0155 79.4877C52.8864 79.5485 53.0935 79.5006 53.3166 79.3212C53.7913 78.9632 54.339 78.282 54.7636 77.5954C56.737 72.0715 56.069 66.2591 58.52 54.5823C58.9005 52.7248 59.3172 50.8139 59.7783 48.8522C60.01 47.8713 60.2451 46.8946 60.5331 45.8145C60.5912 45.5992 60.6965 45.2125 60.7789 44.9414C60.8438 44.7254 60.9072 44.5165 61.0143 44.2244C61.0677 44.0823 61.1372 43.8866 61.2998 43.553C61.3866 43.3802 61.4927 43.1678 61.7231 42.8274C61.8411 42.6562 61.9911 42.4505 62.2311 42.1879C62.2915 42.1222 62.3578 42.053 62.432 41.98C62.4691 41.9436 62.5082 41.9061 62.5495 41.8678C62.5973 41.8243 62.607 41.8124 62.7515 41.689C63.2213 41.3053 63.964 40.7437 65.299 40.4659C66.6105 40.1561 68.4812 40.5482 69.5445 41.3319C70.644 42.0968 71.0994 42.8779 71.3815 43.4004C71.9 44.4644 71.9002 44.8989 71.9673 45.2478C71.99 45.4092 72.0037 45.5704 72.0084 45.6388C72.0103 45.6664 72.012 45.6929 72.0135 45.7183C72.0164 45.7691 72.0184 45.8158 72.0199 45.8594C72.0257 46.0333 72.024 46.1615 72.0211 46.2748C71.9454 47.5705 71.8711 47.7381 71.7776 48.4381C69.6416 62.3936 67.0962 77.2411 64.5565 85.6685C64.0642 87.3383 63.4841 89.126 62.4993 91.0906C61.4641 92.9474 60.2256 95.5573 56.4088 97.0951C45.8623 99.7441 36.7935 98.5949 26.506 98.2548C25.4382 98.2017 24.3405 98.1599 23.3097 98.1561C23.0861 98.1547 22.7821 98.1583 22.586 98.1636C22.3545 98.1696 22.1522 98.1828 22.0979 98.1878C22.1265 98.1659 22.01 98.2573 22.7366 97.9964C22.8298 97.9583 22.9388 97.91 23.0687 97.8423C23.1069 97.8222 23.2656 97.7396 23.448 97.617C23.6291 97.4953 23.8405 97.335 24.0741 97.1016C24.5305 96.6557 25.1293 95.7894 25.2711 94.6672C25.3475 94.1289 25.2932 93.5275 25.1898 93.1192C25.1105 92.7901 24.9994 92.5022 24.8808 92.2587C24.3812 91.289 23.9151 90.9815 23.648 90.7639C23.3318 90.5383 23.3175 90.5485 23.2349 90.4991C22.9612 90.357 22.9805 90.3839 23.009 90.391C23.0417 90.4035 23.1201 90.4303 23.232 90.4641C33.815 93.5173 47.839 98.0052 56.6885 99.2616C57.8547 99.2055 58.5251 98.8543 58.7259 98.7054C58.7447 98.6918 58.763 98.6776 58.7813 98.6618C58.8197 98.6968 59.0738 98.2411 59.2372 97.733C59.3243 97.4752 59.4054 97.1866 59.4726 96.9019C59.5062 96.7597 59.5367 96.6158 59.5607 96.4939C59.5728 96.4323 59.5828 96.3774 59.5896 96.3536C59.5929 96.3454 59.5949 96.3377 59.596 96.3931C59.5973 96.4216 59.5948 96.4566 59.6043 96.6253C59.6076 96.6785 59.6124 96.7447 59.6234 96.8396C59.6295 96.8905 59.6345 96.9314 59.6485 97.019C59.6716 97.1525 59.6995 97.3225 59.7956 97.6211C59.8458 97.7718 59.9131 97.957 60.0405 98.206C60.1048 98.3306 60.1849 98.4716 60.2942 98.632C60.3216 98.6721 60.3508 98.7134 60.3822 98.7559C60.3979 98.7771 60.4142 98.7987 60.431 98.8205C60.4665 98.8667 60.5132 98.9248 60.5599 98.9793C60.7495 99.2003 61.0027 99.4515 61.3577 99.6935C62.0382 100.193 63.2976 100.537 64.3093 100.332C65.3294 100.147 65.9428 99.6855 66.3064 99.3671C66.4915 99.2014 66.6251 99.0536 66.732 98.9243C66.8052 98.8345 66.8103 98.8261 66.8455 98.7798C66.9037 98.702 66.9522 98.6316 66.9943 98.5671C67.3111 98.0614 67.3525 97.8707 67.4146 97.7138C67.5058 97.4199 67.4685 97.4927 67.4617 97.5163C67.4493 97.5494 67.4252 97.6454 67.409 97.7057C67.3718 97.8495 67.3282 98.0435 67.2891 98.2187C67.206 98.599 67.1258 98.9887 67.0469 99.377C66.8872 100.168 66.7263 101.004 66.5684 101.82C66.2496 103.477 65.928 105.169 65.5925 106.878C65.2559 108.589 64.9106 110.312 64.5205 112.058C64.3217 112.94 64.1208 113.808 63.8562 114.759C63.7913 114.988 63.7152 115.25 63.6294 115.514C63.5906 115.631 63.5344 115.801 63.4742 115.963C63.4439 116.044 63.412 116.126 63.377 116.211C63.3358 116.313 63.2787 116.446 63.2133 116.58C63.18 116.648 63.1431 116.72 63.1001 116.797C63.0786 116.836 63.0555 116.876 63.0304 116.918C62.9908 116.985 62.9438 117.06 62.8888 117.14C62.7775 117.3 62.636 117.489 62.3982 117.713C62.2787 117.825 62.1335 117.946 61.9477 118.068C61.7233 118.221 61.2359 118.476 60.6866 118.556C60.1303 118.651 59.4748 118.566 58.9756 118.351C58.724 118.246 58.5077 118.118 58.328 117.987C58.2082 117.9 58.1238 117.828 58.0383 117.749C57.7062 117.438 57.5328 117.167 57.4068 116.949C57.2883 116.743 57.1932 116.505 57.1698 116.438C57.1371 116.35 57.1106 116.268 57.0878 116.191C56.9059 115.518 56.9233 115.369 56.879 114.998C56.1724 105.489 55.6523 96.6298 55.4056 91.1142C54.9417 80.5395 54.8312 77.9625 53.3394 67.9031C52.4815 62.1176 51.8505 54.0975 51.9573 47.2481C52.0085 43.7996 52.7108 44.4937 53.3935 47.8856C54.3881 52.8447 54.5456 56.9896 55.5912 59.4862C57.6793 64.4803 58.4995 66.6087 58.3006 73.2125C58.1016 79.8156 60.4561 82.6637 60.6322 86.4784C60.825 90.2876 59.552 90.3811 62.7093 109.504C62.9816 111.125 63.2456 112.691 63.499 114.181C63.5161 114.272 63.5318 114.326 63.5381 114.326C63.5415 114.33 63.5413 114.307 63.5242 114.234C63.5155 114.198 63.5024 114.15 63.4807 114.084C63.4687 114.049 63.4606 114.024 63.437 113.964C63.4063 113.888 63.3657 113.794 63.3047 113.679C63.1788 113.451 62.9919 113.113 62.5111 112.692C62.4506 112.64 62.3853 112.587 62.3146 112.535C62.2047 112.454 62.0642 112.361 61.9152 112.279C61.6154 112.114 61.2452 111.97 60.8424 111.896C60.0279 111.735 59.1686 111.922 58.6394 112.188C58.5048 112.252 58.378 112.324 58.2789 112.387C58.2149 112.427 58.1556 112.467 58.1003 112.507C57.9899 112.587 57.896 112.664 57.8144 112.736C57.6516 112.882 57.5373 113.009 57.4483 113.117C57.2767 113.325 57.1761 113.501 57.1469 113.55C57.003 113.807 57.0152 113.808 57.0125 113.788C57.0419 113.639 57.1434 113.143 57.2085 112.728C57.3521 111.847 57.4751 110.908 57.5886 109.995C57.8136 108.167 58.0018 106.403 58.1793 104.732C58.3563 103.061 58.5204 101.472 58.6831 99.9695C58.7659 99.209 58.8481 98.4693 58.9344 97.7498C58.9818 97.3634 59.0265 97.0061 59.0788 96.632C59.1047 96.4461 59.1377 96.2281 59.1709 96.0284C59.2303 95.7403 59.2038 95.6666 59.4374 94.9191C59.5185 94.7179 59.5609 94.4889 59.9735 93.8583C60.0289 93.7778 60.0932 93.6895 60.1714 93.5919C60.3836 93.3366 60.7299 92.9192 61.4582 92.5015C62.1537 92.0817 63.5008 91.7336 64.729 92.0759C65.9599 92.3989 66.6962 93.1199 67.0769 93.5942C67.748 94.4913 67.773 94.852 67.8845 95.1635C68.0423 95.7816 68.0091 95.7956 68.0319 95.9324C68.0436 96.045 68.049 96.1291 68.0527 96.2015C68.0627 96.4112 68.0595 96.5257 68.0589 96.6019C68.0557 96.779 68.0503 96.8776 68.0451 96.9759C68.0337 97.1763 68.0212 97.3287 68.0066 97.4865C67.9781 97.7914 67.9439 98.0704 67.9045 98.3466C67.8252 98.8983 67.7262 99.4265 67.5979 99.9659C67.3264 101.047 67.0197 102.131 66.2013 103.472C63.7049 107.286 60.0356 108.148 57.5594 108.469C56.8052 108.55 56.193 108.541 55.6814 108.525C46.5547 107.808 33.0046 101.884 21.2793 98.8985C21.1072 98.8528 20.9323 98.8062 20.7547 98.7587C20.5423 98.6994 20.337 98.6382 20.1262 98.5679C19.9594 98.5111 19.5993 98.3933 19.1382 98.1556C19.0789 98.1247 19.0166 98.091 18.9504 98.0531C18.8807 98.0121 18.8349 97.9894 18.645 97.8632C18.3249 97.6327 17.8773 97.349 17.3235 96.52C17.1889 96.31 17.053 96.0609 16.9343 95.7646C16.8143 95.4415 16.7224 95.225 16.6413 94.591C16.4913 93.4606 16.9311 92.1829 17.467 91.4913C18.0022 90.77 18.5063 90.4474 18.8729 90.2281C19.1383 90.0778 19.222 90.0439 19.3707 89.9772C19.8959 89.7542 20.2303 89.6885 20.4839 89.6336C20.6575 89.5978 20.8116 89.5725 20.9596 89.5512C22.0194 89.4134 22.6464 89.4119 23.3525 89.3865C24.7472 89.3511 26.1265 89.3607 27.571 89.3761C30.4397 89.4097 33.4934 89.4818 36.5964 89.5138C42.5982 89.5623 49.9325 89.5605 53.3857 88.4546C53.2107 88.5125 53.3874 88.4454 53.6517 88.082C53.9125 87.737 54.2226 87.19 54.4826 86.6087C55.0162 85.4224 55.3987 84.1106 55.6559 82.9988C57.3383 74.2118 58.3957 74.1468 60.3075 66.5642Z" fill="#FF9DF5"/>
<path d="M195.012 145.886C194.351 146.515 193.741 147.144 193.16 147.778C190.366 150.541 188.593 154.005 182.604 155.572C182.29 155.616 182.068 155.643 181.795 155.678C181.759 155.683 181.715 155.688 181.665 155.695C181.644 155.698 181.628 155.7 181.621 155.701C181.618 155.701 181.617 155.701 181.619 155.7C181.622 155.699 181.614 155.701 181.632 155.697C181.65 155.693 181.669 155.691 181.769 155.662C181.826 155.642 181.883 155.635 182.106 155.526C182.222 155.453 182.392 155.411 182.741 155.006C182.904 154.8 183.144 154.425 183.172 153.856C183.21 153.288 182.924 152.714 182.664 152.446C182.123 151.907 181.867 151.928 181.709 151.863C181.551 151.822 181.473 151.815 181.41 151.807C181.295 151.795 181.232 151.797 181.221 151.797C181.203 151.797 181.189 151.797 181.177 151.797C181.154 151.798 181.14 151.798 181.13 151.799C181.109 151.8 181.104 151.801 181.104 151.802C181.102 151.803 181.134 151.801 181.15 151.8C181.178 151.798 181.215 151.796 181.26 151.793C181.464 151.777 181.603 151.768 181.801 151.752C181.957 151.741 182.146 151.726 182.317 151.713C182.474 151.702 182.638 151.691 182.809 151.679C183.441 151.636 184.034 151.603 184.586 151.577C185.692 151.525 186.617 151.504 187.597 151.469C189.54 151.401 191.598 151.276 195.205 150.819C198.194 150.49 200.791 150.08 204.05 150.246C204.393 150.313 204.619 150.363 204.974 150.486C205.168 150.555 205.353 150.636 205.543 150.755C205.83 150.959 206.188 151.158 206.357 151.91C206.421 152.255 206.322 152.639 206.233 152.82C206.15 153.002 206.05 153.141 205.952 153.258C205.722 153.516 205.626 153.573 205.472 153.691C205.144 153.92 204.968 154.006 204.701 154.143C203.769 154.594 202.951 154.864 202.168 155.131C200.618 155.646 199.361 156.014 198.428 156.355C195.344 157.454 194.814 156.797 190.374 158.005C185.918 159.183 183.167 159.65 179.14 160.115C178.437 160.187 177.536 160.325 176.38 160.389C175.894 160.391 175.329 160.413 174.682 160.067C173.99 159.699 173.746 158.856 173.733 158.281C173.731 158.259 173.733 158.193 173.736 158.171C174.861 152.833 177.667 146.637 178.565 143.65C179.293 141.4 180.325 139.087 181.335 136.997L181.331 137.008C182.203 135.112 182.977 133.376 183.355 131.984C183.607 131.072 183.773 130.34 183.915 129.778C183.975 129.54 184.041 129.436 184.09 129.442C184.09 129.442 184.09 129.442 184.09 129.442C184.15 129.452 184.186 129.634 184.146 129.946C183.984 131.465 183.541 133.749 182.752 136.356C182.639 136.744 182.529 137.101 182.42 137.439C182.419 137.441 182.417 137.448 182.416 137.45C181.114 141.272 180.367 142.003 178.285 147.882C176.946 151.845 175.905 155.006 175.388 158.372L175.393 158.159C175.409 158.319 175.443 158.45 175.472 158.508C175.505 158.57 175.497 158.541 175.504 158.547C175.508 158.568 175.86 158.648 176.275 158.614C177.496 158.502 179.171 158.213 180.859 157.961C188.692 156.629 190.372 155.36 201.152 152.853C202.185 152.571 203.138 152.264 203.81 151.923C203.95 151.856 204.123 151.738 204.137 151.727C204.15 151.729 204.096 151.731 204.026 151.984C203.992 152.119 204.003 152.322 204.067 152.472C204.125 152.609 204.186 152.674 204.231 152.719C204.398 152.847 204.256 152.73 204.119 152.699C204.004 152.662 203.842 152.623 203.644 152.588C197.698 152.754 194.931 154.058 186.057 155.195C185.128 155.32 184.197 155.439 183.232 155.557C182.747 155.616 182.271 155.673 181.764 155.728C181.688 155.736 181.621 155.743 181.562 155.749C181.539 155.751 181.488 155.756 181.426 155.761C181.396 155.763 181.366 155.766 181.32 155.768C181.297 155.769 181.27 155.77 181.228 155.771C181.175 155.763 181.311 155.798 180.844 155.738C180.699 155.687 180.53 155.758 179.916 155.304C179.624 155.086 179.148 154.426 179.202 153.672C179.253 152.933 179.599 152.556 179.776 152.367C180.163 152.003 180.296 151.996 180.404 151.936C180.506 151.893 180.56 151.876 180.604 151.862C180.888 151.782 180.833 151.806 180.855 151.799C180.867 151.797 180.877 151.795 180.888 151.793C180.909 151.789 180.928 151.785 180.948 151.782C180.988 151.775 181.03 151.768 181.077 151.761C181.154 151.748 181.192 151.743 181.259 151.733C181.573 151.686 181.719 151.666 182.028 151.622C184.893 151.064 188.373 148.256 191.009 145.684C195.082 141.732 198.524 137.96 200.557 135.352C203.622 131.454 207.179 126.335 210.525 120.486C211.708 118.422 212.922 116.314 214.142 114.175C217.445 108.223 221.373 100.974 222.479 93.6168C222.878 90.6128 223.122 87.6098 223.246 84.6917C223.699 76.8474 222.28 66.4979 220.032 59.2554C219.332 56.8782 218.7 54.7956 218.208 53.1771C216.17 46.5728 215.652 44.9624 213.088 38.824C211.596 35.3068 209.635 30.4306 207.857 26.3559C206.934 24.3075 207.381 24.6408 208.523 26.5989C210.165 29.4813 211.154 32.026 212.079 33.4763C213.915 36.4003 214.663 37.6801 215.912 41.8116C217.141 45.9477 218.487 47.6114 219.245 50.0104C219.839 51.9399 219.721 52.3603 221.854 58.6617C222.38 60.2328 223.007 62.1793 223.679 64.6439C226.949 77.1678 226.43 84.492 226.251 89.3608C226.178 90.62 226.019 92.2362 225.755 94.0511C224.98 99.6464 221.748 106.146 219.136 111.396C217.737 114.222 215.604 118.099 213.342 122.088C209.908 128.229 205.516 134.238 203.15 137.374C199.195 142.56 198.767 142.238 195.012 145.886Z" fill="#9DCCFF"/>
</svg>
