<svg width="764" height="212" viewBox="0 0 764 212" fill="none" xmlns="http://www.w3.org/2000/svg">
<rect x="54.5259" y="105.633" width="643" height="20" fill="#FF9DF5"/>
<path d="M82.543 116.735C77.3695 116.735 72.9944 116.032 69.4177 114.627C65.8409 113.19 63.0626 111.194 61.0826 108.639C59.1026 106.084 57.921 103.114 57.5378 99.7291L57.4899 99.298H73.9684L74.0642 99.6812C74.4794 101.438 75.3736 102.811 76.7468 103.801C78.1519 104.791 80.084 105.286 82.543 105.286C84.0439 105.286 85.3373 105.11 86.4231 104.759C87.5089 104.408 88.3392 103.913 88.914 103.274C89.4889 102.603 89.7763 101.837 89.7763 100.975V100.927C89.7763 99.777 89.2973 98.8509 88.3392 98.1483C87.4131 97.4138 85.7844 96.8071 83.4531 96.328L74.2558 94.5556C70.8707 93.885 68.0125 92.8631 65.6812 91.4899C63.3819 90.0847 61.6415 88.3602 60.4599 86.3164C59.3102 84.2725 58.7354 81.9253 58.7354 79.2747V79.2268C58.7354 75.7458 59.6615 72.7599 61.5137 70.269C63.3979 67.7461 66.0804 65.7981 69.5614 64.4249C73.0742 63.0516 77.1939 62.365 81.9203 62.365C86.966 62.365 91.1974 63.1474 94.6145 64.7123C98.0635 66.2452 100.682 68.305 102.471 70.8917C104.259 73.4465 105.169 76.2887 105.201 79.4184V79.8016H89.6805L89.6326 79.4184C89.4729 77.8855 88.7384 76.5762 87.4291 75.4904C86.1197 74.3726 84.2835 73.8138 81.9203 73.8138C80.547 73.8138 79.3495 74.0054 78.3276 74.3886C77.3056 74.7399 76.5073 75.2509 75.9324 75.9215C75.3895 76.5602 75.1181 77.3426 75.1181 78.2687V78.3166C75.1181 79.0511 75.3097 79.7058 75.6929 80.2806C76.0761 80.8555 76.7468 81.3505 77.7048 81.7656C78.6629 82.1808 79.9722 82.564 81.6328 82.9153L90.7822 84.7356C96.3709 85.8214 100.411 87.5139 102.902 89.8133C105.425 92.0807 106.686 95.1624 106.686 99.0585V99.1064C106.686 102.683 105.664 105.797 103.62 108.447C101.576 111.098 98.7501 113.142 95.1414 114.579C91.5327 116.016 87.3333 116.735 82.543 116.735ZM137.583 116.735C132.09 116.735 127.364 115.649 123.404 113.477C119.444 111.274 116.394 108.144 114.255 104.088C112.147 100.033 111.093 95.1943 111.093 89.5738V89.5259C111.093 83.9372 112.147 79.115 114.255 75.0592C116.394 71.0035 119.396 67.8738 123.26 65.6703C127.156 63.4668 131.739 62.365 137.008 62.365C142.278 62.365 146.844 63.4508 150.709 65.6224C154.573 67.7621 157.559 70.7959 159.666 74.7239C161.774 78.62 162.828 83.2027 162.828 88.472V93.4539H119.428V83.3943H154.876L146.972 92.8311V86.2685C146.972 83.7456 146.573 81.6059 145.775 79.8495C144.976 78.0611 143.858 76.7199 142.421 75.8257C140.984 74.8996 139.308 74.4365 137.392 74.4365C135.475 74.4365 133.783 74.8996 132.314 75.8257C130.877 76.7518 129.759 78.109 128.961 79.8974C128.162 81.6538 127.763 83.7775 127.763 86.2685V92.879C127.763 95.338 128.162 97.4458 128.961 99.2022C129.791 100.959 130.957 102.316 132.458 103.274C133.99 104.2 135.811 104.663 137.918 104.663C139.739 104.663 141.288 104.376 142.565 103.801C143.842 103.226 144.848 102.523 145.583 101.693C146.349 100.863 146.86 100.08 147.116 99.3459L147.164 99.1543H162.493L162.349 99.7291C161.966 101.549 161.231 103.45 160.145 105.43C159.06 107.378 157.543 109.214 155.595 110.938C153.678 112.663 151.235 114.068 148.265 115.154C145.327 116.208 141.767 116.735 137.583 116.735ZM169.391 115.633V63.4668H186.396V72.712H186.731C187.466 69.3908 188.823 66.836 190.803 65.0476C192.815 63.2592 195.37 62.365 198.467 62.365C199.266 62.365 200.032 62.4289 200.767 62.5566C201.533 62.6525 202.236 62.8121 202.875 63.0357V77.5981C202.172 77.2787 201.342 77.0392 200.384 76.8795C199.457 76.7199 198.483 76.64 197.462 76.64C195.066 76.64 193.038 77.0712 191.378 77.9334C189.749 78.7957 188.504 80.0731 187.641 81.7656C186.811 83.4262 186.396 85.4861 186.396 87.9451V115.633H169.391ZM208 115.633V63.4668H225.006V72.8557H225.341C226.363 69.6622 228.183 67.1234 230.802 65.2392C233.42 63.3231 236.518 62.365 240.095 62.365C242.586 62.365 244.805 62.8121 246.753 63.7063C248.701 64.5686 250.33 65.83 251.639 67.4906C252.949 69.1193 253.843 71.1312 254.322 73.5264H254.657C255.328 71.259 256.43 69.295 257.963 67.6343C259.527 65.9737 261.396 64.6803 263.567 63.7542C265.771 62.8281 268.166 62.365 270.753 62.365C274.17 62.365 277.156 63.1155 279.71 64.6165C282.265 66.0855 284.261 68.1613 285.698 70.8438C287.135 73.4944 287.854 76.5921 287.854 80.1369V115.633H270.848V84.4961C270.848 82.6758 270.577 81.1589 270.034 79.9453C269.491 78.6998 268.677 77.7737 267.591 77.167C266.505 76.5283 265.148 76.2089 263.519 76.2089C262.018 76.2089 260.693 76.5602 259.543 77.2628C258.426 77.9653 257.563 78.9394 256.957 80.1848C256.35 81.4303 256.046 82.9313 256.046 84.6877V115.633H239.807V84.3524C239.807 82.564 239.52 81.079 238.945 79.8974C238.402 78.6839 237.588 77.7737 236.502 77.167C235.448 76.5283 234.139 76.2089 232.574 76.2089C231.041 76.2089 229.7 76.5762 228.55 77.3107C227.433 78.0132 226.554 79.0032 225.916 80.2806C225.309 81.558 225.006 83.059 225.006 84.7835V115.633H208ZM320.955 116.735C315.462 116.735 310.719 115.665 306.728 113.525C302.736 111.385 299.654 108.288 297.482 104.232C295.343 100.176 294.273 95.2901 294.273 89.5738V89.478C294.273 83.8574 295.375 79.0192 297.578 74.9634C299.782 70.8757 302.879 67.7621 306.871 65.6224C310.863 63.4508 315.558 62.365 320.955 62.365C326.384 62.365 331.094 63.4508 335.086 65.6224C339.078 67.7621 342.176 70.8598 344.379 74.9155C346.583 78.9394 347.684 83.7935 347.684 89.478V89.5738C347.684 95.3221 346.599 100.224 344.427 104.28C342.255 108.336 339.174 111.433 335.182 113.573C331.222 115.681 326.479 116.735 320.955 116.735ZM321.003 103.849C322.951 103.849 324.627 103.306 326.032 102.22C327.437 101.102 328.507 99.4736 329.242 97.334C330.008 95.1943 330.391 92.6076 330.391 89.5738V89.478C330.391 86.476 329.992 83.9212 329.194 81.8135C328.427 79.6739 327.342 78.0452 325.936 76.9274C324.531 75.8097 322.871 75.2509 320.955 75.2509C319.07 75.2509 317.41 75.8097 315.973 76.9274C314.568 78.0452 313.466 79.6739 312.667 81.8135C311.901 83.9212 311.518 86.476 311.518 89.478V89.5738C311.518 92.6076 311.901 95.1943 312.667 97.334C313.434 99.4736 314.52 101.102 315.925 102.22C317.362 103.306 319.054 103.849 321.003 103.849ZM354.295 115.633V63.4668H371.3V72.6641H371.636C372.977 69.3748 374.973 66.836 377.623 65.0476C380.274 63.2592 383.563 62.365 387.491 62.365C393.24 62.365 397.663 64.1055 400.76 67.5864C403.89 71.0354 405.455 75.8576 405.455 82.053V115.633H388.449V85.6936C388.449 82.7237 387.747 80.4084 386.342 78.7478C384.937 77.0552 382.845 76.2089 380.067 76.2089C378.278 76.2089 376.729 76.6241 375.42 77.4544C374.111 78.2847 373.089 79.4344 372.354 80.9034C371.652 82.3724 371.3 84.0809 371.3 86.029V115.633H354.295ZM432.472 115.633V63.4668H449.478V72.6641H449.813C451.154 69.3748 453.15 66.836 455.801 65.0476C458.451 63.2592 461.741 62.365 465.669 62.365C471.417 62.365 475.84 64.1055 478.938 67.5864C482.067 71.0354 483.632 75.8576 483.632 82.053V115.633H466.627V85.6936C466.627 82.7237 465.924 80.4084 464.519 78.7478C463.114 77.0552 461.022 76.2089 458.244 76.2089C456.455 76.2089 454.906 76.6241 453.597 77.4544C452.288 78.2847 451.266 79.4344 450.531 80.9034C449.829 82.3724 449.478 84.0809 449.478 86.029V115.633H432.472ZM516.685 116.735C511.192 116.735 506.45 115.665 502.458 113.525C498.466 111.385 495.384 108.288 493.213 104.232C491.073 100.176 490.003 95.2901 490.003 89.5738V89.478C490.003 83.8574 491.105 79.0192 493.308 74.9634C495.512 70.8757 498.61 67.7621 502.602 65.6224C506.593 63.4508 511.288 62.365 516.685 62.365C522.114 62.365 526.824 63.4508 530.816 65.6224C534.808 67.7621 537.906 70.8598 540.109 74.9155C542.313 78.9394 543.415 83.7935 543.415 89.478V89.5738C543.415 95.3221 542.329 100.224 540.157 104.28C537.986 108.336 534.904 111.433 530.912 113.573C526.952 115.681 522.21 116.735 516.685 116.735ZM516.733 103.849C518.681 103.849 520.357 103.306 521.763 102.22C523.168 101.102 524.238 99.4736 524.972 97.334C525.739 95.1943 526.122 92.6076 526.122 89.5738V89.478C526.122 86.476 525.723 83.9212 524.924 81.8135C524.158 79.6739 523.072 78.0452 521.667 76.9274C520.262 75.8097 518.601 75.2509 516.685 75.2509C514.801 75.2509 513.14 75.8097 511.703 76.9274C510.298 78.0452 509.196 79.6739 508.398 81.8135C507.631 83.9212 507.248 86.476 507.248 89.478V89.5738C507.248 92.6076 507.631 95.1943 508.398 97.334C509.164 99.4736 510.25 101.102 511.655 102.22C513.092 103.306 514.785 103.849 516.733 103.849ZM572.683 116.735C566.392 116.735 561.745 115.489 558.744 112.998C555.774 110.475 554.289 106.276 554.289 100.4V75.9215H547.199V63.4668H554.289V51.4432H571.342V63.4668H580.683V75.9215H571.342V98.1004C571.342 100.336 571.853 101.933 572.875 102.891C573.897 103.817 575.43 104.28 577.473 104.28C578.176 104.28 578.767 104.264 579.246 104.232C579.725 104.168 580.204 104.104 580.683 104.04V116.112C579.757 116.272 578.639 116.415 577.33 116.543C576.02 116.671 574.472 116.735 572.683 116.735ZM612.203 116.735C606.71 116.735 601.984 115.649 598.024 113.477C594.064 111.274 591.014 108.144 588.874 104.088C586.767 100.033 585.713 95.1943 585.713 89.5738V89.5259C585.713 83.9372 586.767 79.115 588.874 75.0592C591.014 71.0035 594.016 67.8738 597.88 65.6703C601.776 63.4668 606.359 62.365 611.628 62.365C616.897 62.365 621.464 63.4508 625.328 65.6224C629.192 67.7621 632.178 70.7959 634.286 74.7239C636.394 78.62 637.448 83.2027 637.448 88.472V93.4539H594.048V83.3943H629.496L621.592 92.8311V86.2685C621.592 83.7456 621.193 81.6059 620.394 79.8495C619.596 78.0611 618.478 76.7199 617.041 75.8257C615.604 74.8996 613.927 74.4365 612.011 74.4365C610.095 74.4365 608.403 74.8996 606.934 75.8257C605.497 76.7518 604.379 78.109 603.58 79.8974C602.782 81.6538 602.383 83.7775 602.383 86.2685V92.879C602.383 95.338 602.782 97.4458 603.58 99.2022C604.411 100.959 605.576 102.316 607.077 103.274C608.61 104.2 610.431 104.663 612.538 104.663C614.359 104.663 615.907 104.376 617.185 103.801C618.462 103.226 619.468 102.523 620.203 101.693C620.969 100.863 621.48 100.08 621.736 99.3459L621.783 99.1543H637.112L636.969 99.7291C636.585 101.549 635.851 103.45 634.765 105.43C633.679 107.378 632.162 109.214 630.214 110.938C628.298 112.663 625.855 114.068 622.885 115.154C619.947 116.208 616.386 116.735 612.203 116.735ZM666.956 116.735C661.782 116.735 657.407 116.032 653.83 114.627C650.254 113.19 647.475 111.194 645.495 108.639C643.515 106.084 642.334 103.114 641.95 99.7291L641.903 99.298H658.381L658.477 99.6812C658.892 101.438 659.786 102.811 661.159 103.801C662.565 104.791 664.497 105.286 666.956 105.286C668.457 105.286 669.75 105.11 670.836 104.759C671.922 104.408 672.752 103.913 673.327 103.274C673.902 102.603 674.189 101.837 674.189 100.975V100.927C674.189 99.777 673.71 98.8509 672.752 98.1483C671.826 97.4138 670.197 96.8071 667.866 96.328L658.668 94.5556C655.283 93.885 652.425 92.8631 650.094 91.4899C647.795 90.0847 646.054 88.3602 644.873 86.3164C643.723 84.2725 643.148 81.9253 643.148 79.2747V79.2268C643.148 75.7458 644.074 72.7599 645.926 70.269C647.811 67.7461 650.493 65.7981 653.974 64.4249C657.487 63.0516 661.607 62.365 666.333 62.365C671.379 62.365 675.61 63.1474 679.027 64.7123C682.476 66.2452 685.095 68.305 686.883 70.8917C688.672 73.4465 689.582 76.2887 689.614 79.4184V79.8016H674.093L674.045 79.4184C673.886 77.8855 673.151 76.5762 671.842 75.4904C670.532 74.3726 668.696 73.8138 666.333 73.8138C664.96 73.8138 663.762 74.0054 662.74 74.3886C661.718 74.7399 660.92 75.2509 660.345 75.9215C659.802 76.5602 659.531 77.3426 659.531 78.2687V78.3166C659.531 79.0511 659.722 79.7058 660.106 80.2806C660.489 80.8555 661.159 81.3505 662.117 81.7656C663.076 82.1808 664.385 82.564 666.045 82.9153L675.195 84.7356C680.784 85.8214 684.823 87.5139 687.314 89.8133C689.837 92.0807 691.099 95.1624 691.099 99.0585V99.1064C691.099 102.683 690.077 105.797 688.033 108.447C685.989 111.098 683.163 113.142 679.554 114.579C675.945 116.016 671.746 116.735 666.956 116.735Z" fill="#191919"/>
<path d="M699.603 45.629C700.14 43.3338 699.555 41.3149 699.747 38.6878C699.758 38.5508 699.761 38.4754 699.768 38.3699C699.77 38.3451 699.77 38.2524 699.765 38.3968C699.765 38.4182 699.765 38.4457 699.767 38.4854C699.768 38.4976 699.768 38.4988 699.77 38.5244C699.774 38.5748 699.78 38.6398 699.8 38.745C699.824 38.8519 699.849 38.9955 699.979 39.2572C700.106 39.4933 700.398 40.0059 701.176 40.2569C701.97 40.5028 702.673 40.1595 702.927 39.9602C703.093 39.8346 703.11 39.8068 703.15 39.7702C703.187 39.7343 703.218 39.7011 703.245 39.6704C703.352 39.5476 703.406 39.4638 703.446 39.3985C703.524 39.2697 703.549 39.2086 703.569 39.1631C703.632 39.0077 703.604 39.0724 703.61 39.0599C703.58 39.1654 703.501 39.4597 703.431 39.6964C702.488 42.948 701.81 43.3384 700.949 47.211C700.622 48.437 700.512 49.3766 699.629 50.9239C699.323 51.3335 698.998 51.7378 698.444 52.1208C698.164 52.3055 697.798 52.504 697.284 52.5528C696.772 52.6106 696.195 52.4003 695.872 52.1397C695.236 51.6094 695.098 51.2192 694.887 50.8553C694.699 50.4938 694.558 50.1694 694.428 49.8717C694.171 49.2784 693.964 48.7928 693.763 48.4554C693.748 48.4303 693.733 48.4059 693.719 48.3823C693.604 48.1914 693.521 48.064 693.409 47.7584C693.391 47.7045 693.379 47.6729 693.353 47.5631C693.341 47.5067 693.329 47.471 693.317 47.3259C693.313 47.255 693.309 47.1867 693.325 47.0515C693.35 46.8762 693.404 46.5699 693.713 46.2484C694.066 45.8551 694.718 45.8076 694.89 45.857C695.07 45.8848 695.184 45.9314 695.27 45.9703C695.441 46.0535 695.453 46.0718 695.516 46.1131C695.617 46.1874 695.638 46.2103 695.684 46.2519C695.813 46.375 695.868 46.4467 695.926 46.5216C696.142 46.8095 696.258 47.0569 696.393 47.3287C696.658 47.8677 696.96 48.4793 697.804 49.3923C697.847 49.4388 697.89 49.4858 697.933 49.5332C699.531 51.2781 700.38 52.509 701.498 54.3107C702.65 56.1606 706.606 61.518 708.34 63.2316C710.077 64.9445 711.354 67.4527 712.271 68.8398C712.558 69.2732 712.764 69.6263 712.911 69.9078C712.973 70.027 712.971 70.106 712.932 70.1364C712.932 70.1364 712.932 70.1364 712.932 70.1364C712.884 70.1742 712.778 70.1364 712.667 70.0069C712.132 69.3801 711.297 68.4678 710.226 67.4587C708.228 65.5771 708.408 65.0591 705.978 62.3122C703.544 59.5653 701.846 58.1043 699.382 54.5599C698.201 52.8635 697.232 51.9657 696.188 50.9342C695.739 50.4904 695.28 50.0246 694.78 49.4647C694.532 49.1887 694.269 48.8804 694.011 48.5773C693.949 48.5048 693.881 48.4268 693.835 48.3743C693.812 48.3478 693.785 48.3217 693.816 48.3479C693.828 48.3579 693.835 48.3645 693.878 48.3959C693.948 48.4333 693.908 48.4557 694.269 48.5881C694.378 48.6156 694.407 48.6414 694.688 48.6508C694.95 48.6583 695.364 48.5463 695.645 48.2849C696.15 47.802 696.105 47.3537 696.121 47.2813C696.124 47.0251 696.096 46.9859 696.089 46.9392C696.053 46.8096 696.067 46.8778 696.077 46.9041C696.089 46.94 696.107 46.9904 696.127 47.0439C696.166 47.151 696.212 47.2738 696.259 47.4038C696.462 47.971 696.629 48.5535 696.823 49.1522C696.912 49.4271 697.005 49.6752 697.098 49.875C697.183 50.071 697.306 50.2318 697.279 50.2218C697.261 50.2082 697.064 50.1712 697.023 50.2017C696.977 50.2232 697.05 50.2063 697.129 50.1428C697.297 50.0161 697.491 49.7751 697.641 49.5322C698.339 47.5777 698.103 45.5211 698.97 41.3896C699.105 40.7323 699.252 40.0562 699.416 39.3621C699.498 39.015 699.581 38.6694 699.683 38.2873C699.703 38.2111 699.74 38.0743 699.77 37.9784C699.793 37.9019 699.815 37.828 699.853 37.7247C699.872 37.6744 699.896 37.6052 699.954 37.4871C699.985 37.426 700.022 37.3508 700.104 37.2304C700.145 37.1698 700.199 37.097 700.283 37.0041C700.335 36.9505 700.349 36.93 700.468 36.8276C700.634 36.6918 700.897 36.4931 701.369 36.3948C701.833 36.2852 702.495 36.4239 702.871 36.7012C703.26 36.9718 703.421 37.2482 703.521 37.4331C703.705 37.8096 703.705 37.9633 703.728 38.0867C703.736 38.1439 703.741 38.2009 703.743 38.2251C703.744 38.2349 703.744 38.2442 703.745 38.2532C703.746 38.2712 703.746 38.2877 703.747 38.3032C703.749 38.3647 703.748 38.4101 703.747 38.4501C703.721 38.9086 703.694 38.9679 703.661 39.2156C702.905 44.1534 702.005 49.4068 701.106 52.3886C700.932 52.9794 700.727 53.612 700.378 54.3071C700.012 54.9641 699.574 55.8876 698.223 56.4316C694.492 57.3689 691.283 56.9623 687.643 56.842C687.265 56.8232 686.877 56.8084 686.512 56.8071C686.339 56.8057 686.128 56.8131 686.083 56.8183C686.093 56.8105 686.052 56.8429 686.309 56.7506C686.387 56.7021 686.407 56.7651 686.783 56.434C686.944 56.2762 687.156 55.9697 687.206 55.5726C687.233 55.3822 687.214 55.1694 687.177 55.0249C687.149 54.9085 687.11 54.8066 687.068 54.7204C686.891 54.3773 686.726 54.2685 686.632 54.1915C686.52 54.1117 686.515 54.1153 686.486 54.0978C686.315 54.0153 686.423 54.071 686.485 54.0855C690.229 55.1657 695.191 56.7537 698.322 57.1982C698.735 57.1784 698.972 57.0541 699.043 57.0014C699.05 56.9966 699.056 56.9916 699.063 56.986C699.076 56.9984 699.166 56.8371 699.224 56.6574C699.255 56.5661 699.284 56.464 699.307 56.3633C699.319 56.313 699.33 56.2621 699.339 56.2189C699.343 56.1971 699.346 56.1777 699.349 56.1693C699.35 56.1664 699.351 56.1637 699.351 56.1833C699.352 56.1934 699.351 56.2057 699.354 56.2654C699.355 56.2843 699.357 56.3077 699.361 56.3413C699.368 56.3748 699.358 56.405 699.422 56.6178C699.439 56.6711 699.463 56.7366 699.508 56.8247C699.531 56.8688 699.559 56.9187 699.598 56.9755C699.627 57.0147 699.609 56.9976 699.692 57.0983C699.759 57.1765 699.849 57.2654 699.974 57.351C700.215 57.5278 700.661 57.6496 701.019 57.5768C701.38 57.5114 701.597 57.3482 701.725 57.2356C701.791 57.1769 701.838 57.1246 701.876 57.0789C701.902 57.0471 701.904 57.0441 701.916 57.0277C701.937 57.0002 701.954 56.9753 701.969 56.9525C702.081 56.7736 702.096 56.7061 702.117 56.6506C702.165 56.4813 702.122 56.6136 702.115 56.6477C702.102 56.6986 702.087 56.7672 702.073 56.8292C702.044 56.9638 702.015 57.1016 701.987 57.2391C701.931 57.5188 701.874 57.8146 701.818 58.1034C701.705 58.6898 701.592 59.2883 701.473 59.8931C701.354 60.4986 701.232 61.1081 701.093 61.7258C701.023 62.0381 700.952 62.3451 700.858 62.6815C700.805 62.8541 700.783 62.9893 700.631 63.3259C700.6 63.3848 700.603 63.3916 700.516 63.524C700.477 63.5807 700.427 63.6474 700.343 63.727C700.3 63.7666 700.249 63.8094 700.183 63.8526C700.104 63.9065 699.931 63.9967 699.737 64.0252C699.54 64.0585 699.308 64.0287 699.132 63.9525C699.043 63.9154 698.966 63.87 698.902 63.8238C698.86 63.7928 698.83 63.7674 698.8 63.7396C698.682 63.6296 698.621 63.5338 698.576 63.4564C698.485 63.2844 698.484 63.2463 698.464 63.1884C698.399 62.95 698.405 62.8976 698.39 62.7662C698.14 59.4015 697.956 56.267 697.868 54.3155C697.704 50.5739 697.665 49.6621 697.137 46.1028C696.834 44.0557 696.611 41.218 696.648 38.7945C696.666 37.5744 696.915 37.8199 697.156 39.0201C697.508 40.7747 697.564 42.2413 697.934 43.1247C698.673 44.8917 698.963 45.6448 698.893 47.9814C698.822 50.3177 699.655 51.3255 699.718 52.6752C699.786 54.023 699.336 54.0561 700.453 60.8222C700.549 61.3959 700.642 61.95 700.732 62.4772C700.738 62.5092 700.744 62.5283 700.746 62.5285C700.747 62.5296 700.747 62.5215 700.741 62.496C700.727 62.455 700.75 62.4796 700.663 62.2994C700.619 62.2188 700.553 62.0992 700.383 61.9502C700.344 61.9093 700.069 61.7098 699.792 61.6687C699.504 61.6116 699.2 61.6778 699.013 61.7718C698.909 61.822 698.858 61.8597 698.822 61.8848C698.783 61.9129 698.75 61.9402 698.721 61.9659C698.663 62.0174 698.623 62.0624 698.591 62.1005C698.53 62.1742 698.495 62.2367 698.485 62.2539C698.434 62.3447 698.438 62.345 698.437 62.3379C698.447 62.2854 698.483 62.1097 698.506 61.9629C698.557 61.6511 698.601 61.3191 698.641 60.9961C698.72 60.3491 698.787 59.7251 698.85 59.1339C698.912 58.5425 698.971 57.9803 699.028 57.4487C699.057 57.1796 699.086 56.9179 699.117 56.6633C699.134 56.5266 699.15 56.4002 699.168 56.2678C699.177 56.202 699.189 56.1249 699.201 56.0542C699.222 55.9523 699.212 55.9262 699.295 55.6617C699.324 55.5905 699.339 55.5095 699.485 55.2864C699.504 55.2579 699.527 55.2267 699.555 55.1922C699.63 55.1018 699.752 54.9541 700.01 54.8063C700.256 54.6578 700.733 54.5346 701.167 54.6557C701.603 54.77 701.863 55.0251 701.998 55.1929C702.235 55.5104 702.244 55.638 702.284 55.7482C702.34 55.9669 702.328 55.9719 702.336 56.0203C702.34 56.0601 702.342 56.0899 702.343 56.1155C702.347 56.1897 702.346 56.2302 702.345 56.2571C702.344 56.3198 702.342 56.3547 702.341 56.3895C702.337 56.4604 702.332 56.5143 702.327 56.5701C702.317 56.678 702.305 56.7768 702.291 56.8745C702.263 57.0697 702.228 57.2566 702.182 57.4474C702.086 57.83 701.978 58.2137 701.688 58.6879C700.805 60.0376 699.507 60.3426 698.63 60.456C698.364 60.4846 698.147 60.4816 697.966 60.476C694.737 60.2223 689.942 58.1262 685.794 57.0697C685.733 57.0536 685.671 57.0371 685.608 57.0203C685.437 56.9661 685.392 56.9769 685.036 56.8069C684.983 56.7777 684.985 56.7836 684.862 56.7034C684.748 56.6219 684.59 56.5215 684.394 56.2282C684.297 56.0627 684.206 55.9315 684.153 55.5456C684.1 55.1457 684.255 54.6936 684.445 54.4489C684.634 54.1937 684.812 54.0795 684.942 54.0019C685.036 53.9488 685.066 53.9368 685.118 53.9132C685.304 53.8342 685.422 53.811 685.512 53.7916C685.574 53.7789 685.628 53.77 685.681 53.7624C686.056 53.7137 686.277 53.7131 686.527 53.7041C687.021 53.6916 687.509 53.695 688.02 53.7005C689.035 53.7124 690.115 53.7379 691.213 53.7492C693.337 53.7664 695.932 53.7657 697.154 53.3744C697.036 53.4556 697.377 53.1452 697.542 52.7213C697.731 52.3016 697.866 51.8374 697.957 51.444C698.552 48.335 698.926 48.312 699.603 45.629Z" fill="#FF9DF5"/>
<path d="M675.549 50.588C690.297 59.8412 697.97 72.1569 706.29 90.6179C706.397 90.858 706.5 91.0985 706.6 91.3395C711.276 104.286 706.491 111.044 704.266 118.254C702.029 123.742 697.802 128.068 691.962 135.171C691.814 135.347 691.652 135.526 691.486 135.697C679.672 144.601 666.096 147.219 655.606 151.192C647.729 154.07 640.602 153.873 636.209 154.231C631.575 154.496 628.768 154.452 625.784 154.396C621.995 154.314 617.938 154.188 609.493 154.352C594.489 154.619 585.379 154.472 572.256 153.963C567.408 153.762 558.857 153.478 549.266 152.878C532.865 152.028 513.545 149.015 504.556 146.719C502.63 146.278 500.681 145.784 498.728 145.251C488.371 142.458 477.954 138.392 470.04 135.437C468.298 134.797 466.67 134.224 465.189 133.732C462.223 132.745 459.863 132.038 458.066 131.446C457.305 131.196 456.966 131.038 456.98 130.991C456.98 130.991 456.98 130.991 456.98 130.991C456.999 130.932 457.563 131.043 458.552 131.325C461.6 132.178 465.617 133.296 470.253 134.822C472.922 135.694 475.808 136.666 478.872 137.652C488.199 140.641 492.557 142.054 499.09 143.961C503.519 145.216 508.94 146.733 517.748 148.225C529.644 150.169 539.06 150.756 549.358 151.282C557.959 151.686 567.192 151.968 579.077 152.272C598.775 152.71 607.043 152.048 625.733 151.719C631.775 151.499 639.079 151.829 647.775 150.711C650.314 150.32 652.625 149.651 654.829 148.925C671.668 143.106 681.662 140.432 689.793 133.335C693.197 128.836 698.202 123.884 701.076 117.223C702.029 114.166 703.216 111.039 703.98 107.57C705.145 102.517 704.931 97.1506 702.66 92.2664C695.113 75.0397 684.551 55.5471 668.178 50.6804C656.351 47.252 645.712 45.0768 638.044 43.6906C631.532 42.5196 624.356 41.3863 616.602 40.3122C598.491 37.8164 577.424 35.5404 555.544 33.5204C546.022 32.6489 535.823 31.861 525.252 31.2773C508.132 30.4957 489.876 29.1386 472.667 31.6089C465.547 32.7776 458.509 33.8966 451.952 35.8296C446.082 37.5572 439.987 40.3479 435.488 45.3364C426.024 56.0361 414.362 68.1625 413.683 82.3749C412.632 96.2149 416.317 109.195 424.202 114.983C425.618 116.186 426.976 117.281 428.25 118.26C442.096 128.392 449.035 131.159 460.022 136.24C463.488 137.766 467.405 139.438 472.185 141.434C481.777 145.445 494.401 150.698 506.043 155.699C508.425 156.725 510.764 157.741 513.02 158.743C519.698 161.782 518.099 161.275 511.259 158.527C509.366 157.771 507.551 157.042 505.783 156.329C498.258 153.3 492.071 150.724 487.823 149.198C477.352 145.419 472.889 143.839 460.139 137.905C459.898 137.792 459.662 137.681 459.43 137.572C447.189 131.766 441.137 129.215 434.265 124.853C430.547 122.375 428.858 121.21 423.047 116.373C418.068 112.539 410.324 102.471 411.466 83.0068C411.468 82.7808 411.47 82.5554 411.473 82.3307C413.259 62.9032 426.144 52.5591 433.354 43.414C444.738 31.6535 457.365 31.465 465.641 29.442C467.561 29.0906 469.74 28.7212 472.131 28.3324C485.902 26.0531 506.38 27.1885 525.425 28.24C530.457 28.5294 535.428 28.8566 540.129 29.1774C559.132 30.4354 592.571 33.6736 617.056 37.1053C625.653 38.2965 633.117 39.5063 638.518 40.435C656.067 43.5759 658.739 44.7186 669.001 47.7495C670.977 48.3553 673.157 49.2348 675.549 50.588Z" fill="#9DD8FF"/>
<path d="M671.793 191.18C670.67 191.49 669.618 191.835 668.604 192.204C665.035 193.289 661.727 195.418 655.917 193.571C655.719 193.482 655.559 193.408 655.413 193.339C655.305 193.289 655.218 193.249 655.151 193.218C655.127 193.206 655.066 193.179 655.035 193.164C655.019 193.157 655.008 193.152 655.007 193.151C655.006 193.15 655.008 193.15 655.013 193.152C655.022 193.155 655.037 193.162 655.099 193.181C655.133 193.191 655.174 193.204 655.281 193.227C655.337 193.237 655.407 193.252 655.547 193.262C655.696 193.257 655.883 193.32 656.443 193.106C656.714 192.993 657.142 192.723 657.409 192.214C657.682 191.708 657.663 191.139 657.576 190.822C657.383 190.176 657.187 190.067 657.09 189.94C656.885 189.734 656.829 189.714 656.775 189.673C656.681 189.612 656.722 189.639 656.699 189.625C656.557 189.551 656.908 189.738 656.999 189.786C657.157 189.87 657.31 189.95 657.455 190.027C657.61 190.108 657.757 190.186 657.893 190.259C658.478 190.571 658.973 190.844 659.459 191.116C660.412 191.652 661.229 192.134 662.076 192.62C663.757 193.59 665.57 194.573 668.879 196.094C671.8 197.492 674.436 198.633 677.231 200.571C677.457 200.776 677.651 200.969 677.819 201.161C677.937 201.296 678.048 201.436 678.146 201.585C678.198 201.666 678.232 201.719 678.294 201.839C678.361 201.971 678.422 202.117 678.464 202.29C678.503 202.48 678.537 202.607 678.492 202.948C678.446 203.249 678.287 203.557 678.089 203.761C677.742 204.112 677.435 204.196 677.186 204.264C676.826 204.351 676.462 204.35 676.237 204.343C675.211 204.296 674.401 204.106 673.67 203.954C672.186 203.628 670.961 203.302 670.059 203.124C666.837 202.448 666.744 201.614 662.32 200.307C657.907 198.967 655.31 197.907 651.652 196.194C650.908 195.833 649.893 195.41 648.608 194.72C648.168 194.452 647.658 194.14 647.286 193.515C646.895 192.871 647.007 192.038 647.242 191.479C647.249 191.458 647.278 191.4 647.29 191.381C650.481 187.089 655.331 183.054 657.336 180.848C659.005 179.094 660.992 177.424 662.848 175.957L662.838 175.966C664.401 174.677 665.8 173.481 666.708 172.407C667.322 171.689 667.779 171.092 668.144 170.642C668.298 170.451 668.401 170.383 668.443 170.409C668.443 170.41 668.443 170.41 668.443 170.41C668.494 170.444 668.45 170.624 668.283 170.892C667.502 172.204 666.128 174.092 664.281 176.096C664.048 176.355 663.834 176.588 663.62 176.813C663.619 176.815 663.613 176.82 663.611 176.822C660.691 179.799 659.722 180.086 655.255 184.546C652.542 187.337 650.353 189.642 648.678 192.236L648.77 192.045C648.655 192.397 648.686 192.558 648.735 192.626C648.78 192.725 649.055 192.971 649.45 193.177C650.69 193.788 652.43 194.485 654.245 195.263C661.611 198.239 663.703 198.107 674.202 201.53C675.075 201.77 675.948 201.959 676.499 201.956C676.612 201.977 676.696 201.863 676.392 202.097C676.194 202.239 676.101 202.715 676.146 202.796C676.171 202.932 676.2 202.949 676.189 202.93C676.189 202.911 676.07 202.756 676 202.681C675.914 202.586 675.801 202.475 675.665 202.351C670.137 199.065 667.179 198.817 658.798 194.968C657.98 194.598 657.153 194.219 656.314 193.827C655.925 193.646 655.467 193.431 655.029 193.219C654.962 193.186 654.946 193.179 654.847 193.128C654.794 193.101 654.762 193.087 654.658 193.026C654.644 193.018 654.628 193.008 654.607 192.995C654.602 192.99 654.531 192.952 654.391 192.838C654.314 192.765 654.21 192.71 653.984 192.377C653.881 192.201 653.696 191.928 653.669 191.348C653.613 190.771 654.052 189.945 654.503 189.673C654.945 189.37 655.238 189.344 655.425 189.313C655.616 189.291 655.726 189.298 655.813 189.304C655.98 189.317 656.053 189.336 656.113 189.348C656.225 189.374 656.266 189.389 656.305 189.402C656.375 189.425 656.412 189.44 656.407 189.438C656.429 189.446 656.448 189.453 656.466 189.461C656.53 189.486 656.638 189.531 656.68 189.549C656.727 189.569 656.78 189.592 656.838 189.617C657.116 189.737 657.245 189.795 657.518 189.916C660.066 190.916 664.29 190.267 667.703 189.294C673.424 187.707 678.475 185.869 681.588 184.411C685.602 182.556 690.387 179.968 695.297 176.681C697.826 174.99 700.462 173.237 703.105 171.421C707.934 168.038 713.544 163.862 717.019 158.433C719.168 154.993 721.061 151.376 722.69 147.83C725.737 141.39 728.285 132.492 729.32 125.25C729.832 121.889 730.25 118.947 730.555 116.782C731.496 109.93 731.707 108.256 731.996 101.602C732.143 97.7871 732.451 92.5337 732.626 88.0847C732.692 85.8349 732.946 86.3332 733.119 88.5914C733.345 91.9038 733.151 94.6149 733.365 96.3352C733.774 99.7674 733.907 101.233 733.282 105.508C732.64 109.777 733.158 111.852 732.831 114.35C732.523 116.546 732.223 116.741 731.312 125.498C731.185 126.675 731.03 127.983 730.818 129.481C728.902 142.26 725.73 148.851 723.701 153.293C722.861 155.053 721.498 157.521 719.765 160.167C716.991 164.434 712.552 168.078 708.811 171.059C705.946 173.352 701.539 176.412 697.102 179.382C691.83 182.954 686.155 185.841 682.978 187.391C677.063 190.211 676.835 189.715 671.793 191.18Z" fill="#9DCCFF"/>
<path d="M214.573 122.806C195.712 122.127 180.291 122.64 159.159 122.387C156.112 122.352 153.025 122.305 149.826 122.241C125.295 122.128 119.649 120.139 95.2789 122.868C95.1194 122.926 94.9672 122.996 94.9474 123.011C94.9457 123.012 94.9571 123.007 95.0002 122.971C95.0338 122.938 95.1334 122.865 95.2398 122.643C95.3623 122.449 95.3677 121.909 95.2497 121.713C95.1431 121.478 95.0363 121.398 95.0021 121.364C94.9104 121.289 94.9362 121.318 94.9758 121.334C95.0181 121.354 95.0723 121.377 95.1531 121.407C95.2844 121.455 95.4849 121.517 95.6505 121.562C96.3929 121.765 97.2339 121.931 98.1037 122.089C110.234 124.04 122.561 125.338 133.751 126.715C149.621 128.601 163.217 130.162 171.023 130.856C184.397 132.036 185.677 132.961 204.622 134.76C223.561 136.542 235.01 137.787 251.539 139.632C260.8 140.662 280.805 142.689 299.88 144.272C314.937 145.532 329.335 146.453 337.513 146.774C355.543 147.525 376.012 148.672 388.818 148.234C389.215 148.221 389.586 148.208 389.945 148.194C391.943 148.115 393.695 148.018 395.259 147.86C396.038 147.779 396.77 147.684 397.428 147.542C397.764 147.468 398.082 147.383 398.358 147.258C398.63 147.135 398.856 146.946 398.743 146.723C398.539 146.335 398.182 146.113 398.015 145.95C397.83 145.791 397.747 145.703 397.762 145.683C397.762 145.683 397.762 145.683 397.762 145.683C397.779 145.659 397.947 145.734 398.241 145.923C398.387 146.019 398.568 146.14 398.757 146.331C398.85 146.43 398.951 146.541 399.006 146.722C399.069 146.906 398.976 147.147 398.832 147.271C396.163 148.578 392.726 148.429 388.839 148.741C383.91 149.009 378.201 149.149 371.944 149.199C351.057 149.167 348.802 148.603 320.719 146.998C313.105 146.525 306.284 146.073 299.771 145.615C282.307 144.373 266.795 143.141 242.8 140.607C209.864 137.063 202.205 137.487 155.773 131.77C147.101 130.69 139.764 129.806 133.481 129.074C125.122 128.1 118.409 127.374 111.989 126.667C108.763 126.309 105.703 125.971 102.457 125.561C100.86 125.357 99.2353 125.141 97.5706 124.868C96.7215 124.725 95.896 124.582 94.9746 124.352C94.8557 124.322 94.7505 124.294 94.6333 124.26C94.5016 124.223 94.377 124.184 94.2578 124.145C93.9839 124.045 93.7346 123.981 93.2843 123.685C93.1416 123.579 93.0371 123.512 92.8317 123.261C92.7289 123.129 92.6257 122.962 92.5513 122.755C92.4764 122.562 92.4219 122.224 92.4612 121.952C92.5499 121.361 92.7961 121.1 92.9663 120.909C93.1117 120.757 93.2618 120.648 93.3644 120.58C93.7902 120.312 94.0095 120.243 94.2759 120.135C104.014 117.819 114.327 118.312 129.298 118.103C138.908 118.097 148.916 118.223 159.224 118.416C198.745 119.187 240.451 120.729 262.749 121.255C288.844 121.881 323.255 122.711 359.902 123.777C362.749 123.858 365.52 123.938 368.293 124.019C375.315 124.225 382.603 124.41 390.106 124.604C393.852 124.704 397.658 124.795 401.524 124.952C402.484 124.993 403.456 125.036 404.47 125.119C404.581 125.128 404.723 125.141 404.866 125.156C405.013 125.172 405.105 125.182 405.275 125.206C405.364 125.219 405.448 125.232 405.532 125.249C405.618 125.267 405.681 125.273 405.901 125.342C406.002 125.377 406.117 125.416 406.293 125.522C406.346 125.56 406.349 125.543 406.548 125.715C406.705 125.861 406.933 126.126 407.024 126.555C407.234 127.498 406.429 128.137 406.489 128.076C406.268 128.256 406.134 128.307 406.022 128.357C405.912 128.403 405.811 128.433 405.78 128.443C405.035 128.64 404.64 128.666 404.109 128.745C402.11 129.002 400.203 129.186 398.231 129.394C369.482 132.517 338.759 133.7 310.255 133.819C305.382 133.839 300.33 133.836 295.049 133.809C252.965 133.588 200.995 131.899 175.507 130.992C146.835 129.947 139.855 129.662 112.214 128.94C110.021 128.882 107.605 128.814 105.237 128.744C90.3201 128.312 71.8892 127.611 56.0581 126.952C46.7734 126.627 48.8848 126.417 58.2298 126.525C71.9023 126.728 83.1346 127.195 90.2009 127.137C96.1508 127.09 100.681 127.062 105.289 127.112C111.499 127.178 117.793 127.388 128.043 127.891C145.832 128.763 154.213 128.288 164.571 128.669C174.926 129.013 174.75 129.585 227.452 130.414C256.311 130.816 278.069 130.92 295.046 130.827C309.112 130.749 319.958 130.539 328.962 130.291C344.009 129.878 371.551 129.146 397.921 126.35C400.061 126.13 402.214 125.937 404.223 125.656C404.336 125.64 404.459 125.62 404.579 125.599C404.692 125.579 404.788 125.561 404.869 125.541C404.895 125.536 404.936 125.52 404.872 125.543C404.831 125.563 404.754 125.579 404.562 125.726C404.503 125.782 404.502 125.747 404.299 125.999C404.136 126.206 403.949 126.666 404.037 127.121C404.119 127.575 404.363 127.84 404.508 127.969C404.588 128.039 404.645 128.075 404.656 128.083C404.677 128.097 404.697 128.109 404.715 128.12C405 128.273 404.988 128.231 404.976 128.237C404.963 128.234 404.929 128.227 404.88 128.22C404.501 128.162 403.924 128.12 403.445 128.089C402.403 128.023 401.395 127.982 400.335 127.941C396.186 127.789 392.057 127.697 388.13 127.61C380.316 127.443 370.561 127.227 359.821 126.961C326.058 126.116 283.052 124.901 262.812 124.546C236.153 124.073 236.112 123.596 214.573 122.806Z" fill="#ADFF9D"/>
<path d="M18.9497 76.444C19.5976 76.8071 20.5134 76.9521 21.4573 77.1379C23.6394 77.5946 24.419 76.7268 25.6104 74.8632C26.1157 74.0512 26.6512 73.2006 27.2516 72.2876C29.9139 67.9906 30.8344 67.5171 32.7316 61.8785C33.0474 60.8804 33.3564 59.8858 33.6786 58.8854C33.8409 58.3842 34.0026 57.8908 34.188 57.3813C34.2838 57.1203 34.3783 56.8719 34.5039 56.5882C34.651 56.3035 34.6885 56.0544 35.1898 55.5213C35.6831 55.1287 35.8384 54.7609 37.0281 54.4595C37.3734 54.3999 37.8976 54.4634 38.2854 54.7516C38.4766 54.8875 38.626 55.0592 38.7269 55.2144C38.8114 55.344 38.8723 55.4715 38.9192 55.5938C39.0171 55.8581 39.0401 56.0168 39.0653 56.1899C39.0882 56.3624 39.0959 56.5282 39.0974 56.6539C39.0888 57.7417 38.8938 58.5245 38.7308 59.3004C38.3905 60.7938 38.0398 61.997 37.8602 62.883C37.2762 65.5795 36.4679 65.6103 35.2628 69.282C34.1118 72.5577 33.2985 74.5952 31.5078 77.1041C31.434 77.2108 31.1924 77.3785 31.0693 77.4195C30.7415 77.497 30.3981 77.5744 30.0488 77.6487C26.7423 78.4998 16.5719 80.1866 12.809 80.6516C11.8187 80.8094 10.7785 80.8894 9.73725 80.8778C9.73296 80.8779 9.72011 80.8775 9.71582 80.8775C6.84756 80.751 4.06427 80.2259 2.1851 80.0018C1.39003 79.9054 0.766697 79.8056 0.289713 79.7144C0.0878302 79.6758 -0.00288429 79.6189 0.000653094 79.5696C0.000655423 79.5696 0.000657752 79.5696 0.000660081 79.5695C0.0052198 79.5082 0.15562 79.4584 0.418044 79.4697C1.69188 79.5232 3.59995 79.5665 5.85561 79.4814C7.59149 79.414 8.67939 79.4405 9.75672 79.4912L9.73634 79.4909C11.2348 79.5022 12.7758 79.5471 16.0351 79.0241C21.38 78.0808 24.5927 77.1053 30.5022 75.592L29.9556 75.9851C30.0497 75.8698 30.1871 75.6689 30.2962 75.5013C33.3825 69.834 33.0584 67.8729 36.1852 59.2879C36.5033 58.2684 36.7319 57.2557 36.7235 56.6373C36.7295 56.4839 36.6646 56.3784 36.7587 56.5339C36.8132 56.6261 37.0273 56.7833 37.2003 56.8018C37.3841 56.8265 37.4304 56.79 37.437 56.7904C37.4271 56.7901 37.3262 56.8408 37.1995 56.9399C37.1003 57.0162 36.9806 57.1213 36.848 57.2514C35.5349 60.6728 35.7674 64.0129 32.7131 70.5816C31.6674 72.7717 30.3398 75.0183 28.7797 77.1302C27.9604 78.2289 26.9075 79.3785 25.3058 80.0468C23.6997 80.7513 21.8177 80.4451 20.7085 80.0955C19.5292 79.7512 17.6009 79.4019 16.2549 78.1773C13.6664 75.9463 11.55 73.774 10.0941 72.1694C6.53724 68.3245 1.77497 61.5426 2.92616 53.3239C3.00743 52.7215 3.10197 52.1175 3.21007 51.5125C4.27009 45.3726 6.59915 38.2626 10.5356 32.2551C11.7705 30.3482 13.0578 28.4732 14.4347 26.7297C18.2942 21.5762 24.8097 16.0014 30.5653 13.2545C32.8431 12.0962 34.8492 11.0982 36.3539 10.3675C41.5742 7.84737 42.8334 7.23969 47.7398 4.59499C50.5723 3.09885 54.5561 1.17255 58.1971 0.167611C59.1099 -0.0695031 59.5055 -0.015281 59.4093 0.0864723C59.3308 0.185723 58.7963 0.3919 57.9499 0.766175C55.4495 1.88731 53.3896 2.78776 52.2198 3.63663C49.9096 5.35085 48.9279 6.07134 45.6066 7.41088C42.2865 8.7616 41.1339 10.1944 39.2584 11.0979C37.6534 11.881 37.2934 11.6815 31.5164 14.9806C30.5526 15.5342 29.4558 16.2137 28.2274 17.0858C19.8725 23.2252 17.1368 28.4597 14.8873 31.668C14.4588 32.333 13.926 33.1382 13.323 34.0514C10.9203 37.5708 8.08812 43.2061 7.03668 48.1949C6.69765 49.7027 6.33071 51.6049 6.0898 53.7047C5.00128 60.0336 9.72064 67.3321 12.5234 69.9537C15.7757 73.1518 16.0289 73.679 18.1637 75.8399C18.3777 76.0582 18.621 76.2618 18.9497 76.444Z" fill="#9DCCFF"/>
</svg>
