<svg width="30" height="79" viewBox="0 0 30 79" fill="none" xmlns="http://www.w3.org/2000/svg">
<path d="M20.5577 27.2798V31.9308L2.04647 31.9308L2.04647 27.2798L20.5577 27.2798ZM7.44172 18.7218L12.93 18.7218L12.93 52.7676C12.93 54.318 13.1548 55.4808 13.6044 56.2559C14.0695 57.0156 14.6586 57.5272 15.3718 57.7908C16.1005 58.0389 16.8679 58.1629 17.6741 58.1629C18.2787 58.1629 18.7748 58.1319 19.1624 58.0699C19.55 57.9923 19.8601 57.9303 20.0926 57.8838L21.2089 62.814C20.8368 62.9535 20.3174 63.093 19.6508 63.2326C18.9841 63.3876 18.1392 63.4651 17.1159 63.4651C15.5656 63.4651 14.0462 63.1318 12.5579 62.4651C11.0851 61.7985 9.86027 60.783 8.88355 59.4187C7.92233 58.0544 7.44172 56.3335 7.44172 54.256L7.44172 18.7218Z" fill="black"/>
<line x1="28.9241" y1="18.5537" x2="28.9241" y2="64.3947" stroke="black" stroke-width="1.09145"/>
</svg>
