<svg width="19" height="16" viewBox="0 0 19 16" fill="none" xmlns="http://www.w3.org/2000/svg">
<path d="M17.5001 7.36328H18.5001V6.36326L17.5001 6.36328L17.5001 7.36328ZM0.292875 6.65662C-0.0976393 7.04716 -0.0976229 7.68032 0.292912 8.07084L6.65704 14.4346C7.04757 14.8251 7.68074 14.8251 8.07125 14.4346C8.46177 14.0441 8.46175 13.4109 8.07122 13.0204L2.41421 7.36367L8.07092 1.70667C8.46143 1.31614 8.46142 0.682973 8.07088 0.292459C7.68035 -0.0980549 7.04718 -0.0980382 6.65667 0.292496L0.292875 6.65662ZM17.5001 15.3633H18.5001V7.36328H17.5001H16.5001V15.3633H17.5001ZM17.5001 7.36328L17.5001 6.36328L0.999974 6.36371L1 7.36371L1.00003 8.36371L17.5001 8.36328L17.5001 7.36328Z" fill="black"/>
</svg>
